<?xml version="1.0" encoding="UTF-8" standalone="no"?>
<!-- Created with Inkscape (http://www.inkscape.org/) -->

<svg
   xmlns:dc="http://purl.org/dc/elements/1.1/"
   xmlns:cc="http://creativecommons.org/ns#"
   xmlns:rdf="http://www.w3.org/1999/02/22-rdf-syntax-ns#"
   xmlns:svg="http://www.w3.org/2000/svg"
   xmlns="http://www.w3.org/2000/svg"
   xmlns:xlink="http://www.w3.org/1999/xlink"
   xmlns:sodipodi="http://sodipodi.sourceforge.net/DTD/sodipodi-0.dtd"
   xmlns:inkscape="http://www.inkscape.org/namespaces/inkscape"
   width="100"
   height="100"
   viewBox="0 0 26.458333 26.458333"
   version="1.1"
   id="svg5379"
   inkscape:version="0.92.0 r15299"
   sodipodi:docname="a10_icon.svg">
  <defs
     id="defs5373">
    <linearGradient
       inkscape:collect="always"
       xlink:href="#linearGradient4595"
       id="linearGradient4597-7"
       x1="887.80212"
       y1="-220.30157"
       x2="887.80212"
       y2="-276.95328"
       gradientUnits="userSpaceOnUse"
       gradientTransform="matrix(0.0536115,0,0,0.05599781,-36.595955,286.19793)" />
    <linearGradient
       inkscape:collect="always"
       id="linearGradient4595">
      <stop
         style="stop-color:#ffcc00;stop-opacity:1;"
         offset="0"
         id="stop4591" />
      <stop
         style="stop-color:#ffcc00;stop-opacity:0;"
         offset="1"
         id="stop4593" />
    </linearGradient>
  </defs>
  <sodipodi:namedview
     id="base"
     pagecolor="#ffffff"
     bordercolor="#666666"
     borderopacity="1.0"
     inkscape:pageopacity="0.0"
     inkscape:pageshadow="2"
     inkscape:zoom="5.6"
     inkscape:cx="24.517622"
     inkscape:cy="58.542727"
     inkscape:document-units="px"
     inkscape:current-layer="layer1"
     showgrid="false"
     units="px"
     width="100px"
     inkscape:pagecheckerboard="true"
     inkscape:window-width="2560"
     inkscape:window-height="1377"
     inkscape:window-x="-8"
     inkscape:window-y="-8"
     inkscape:window-maximized="1" />
  <metadata
     id="metadata5376">
    <rdf:RDF>
      <cc:Work
         rdf:about="">
        <dc:format>image/svg+xml</dc:format>
        <dc:type
           rdf:resource="http://purl.org/dc/dcmitype/StillImage" />
        <dc:title></dc:title>
      </cc:Work>
    </rdf:RDF>
  </metadata>
  <g
     inkscape:label="Layer 1"
     inkscape:groupmode="layer"
     id="layer1"
     transform="translate(0,-270.54167)">
    <path
       style="fill:#0b0b0b;stroke-width:0.05760798"
       d="m 5.1297932,287.94516 c -0.1253086,-0.1253 -0.1163468,-0.16409 0.093001,-0.40253 0.1519565,-0.17307 0.1717155,-0.22544 0.1148617,-0.30444 -0.2256477,-0.31356 -0.2616778,-0.45848 -0.1914813,-0.77016 0.1737275,-0.77141 0.9518784,-2.03305 1.6686532,-2.70544 0.1916968,-0.17984 0.3893966,-0.40597 0.439331,-0.50253 l 0.090793,-0.17557 -0.1946123,0.11482 c -0.2273111,0.13411 -0.336168,0.10912 -0.5988648,-0.13754 -0.2180793,-0.20476 -0.234163,-0.36105 -0.073563,-0.71486 0.061125,-0.13466 0.08453,-0.24485 0.052013,-0.24485 -0.032516,0 -0.240806,0.10795 -0.4628633,0.23986 -0.3412912,0.20277 -0.4275039,0.23156 -0.5573478,0.18619 -0.1152471,-0.0402 -0.1579899,-0.0985 -0.1711627,-0.23321 -0.01474,-0.15068 0.013761,-0.1989 0.1773354,-0.29999 0.2075303,-0.12825 0.3298885,-0.33227 0.3298885,-0.55004 0,-0.0983 -0.064942,-0.16776 -0.2466217,-0.26414 l -0.2466217,-0.13082 -0.3197138,0.18042 c -0.3533491,0.19942 -0.6108269,0.23264 -0.6670755,0.086 -0.019923,-0.0519 0.01106,-0.23344 0.068835,-0.40342 0.057779,-0.16999 0.093957,-0.32016 0.080399,-0.33372 -0.013564,-0.0135 -0.1732639,-0.11414 -0.3549016,-0.22352 -0.3003838,-0.18088 -0.3471938,-0.19291 -0.5176402,-0.13311 -0.1030648,0.0362 -0.2183625,0.0857 -0.2562169,0.10991 -0.1568042,0.10065 -0.5350703,0.20473 -0.5654325,0.1556 -0.017785,-0.0288 0.033377,-0.1821 0.1137212,-0.34065 0.080349,-0.15856 0.1460839,-0.32279 0.1460839,-0.36498 0,-0.0421 -0.6545684,-0.45136 -1.4546016,-0.9093 -1.10129877,-0.63039 -1.45880243,-0.86203 -1.47189389,-0.95367 -0.0225319,-0.15768 0.31471645,-0.4569 0.6062,-0.53784 0.40684779,-0.11299 1.00891679,-0.0762 1.34964249,0.0824 0.1694882,0.0788 0.357897,0.14371 0.4186875,0.14403 0.060786,2.1e-4 0.4626045,0.15456 0.8929238,0.34277 0.4303193,0.18822 1.2486611,0.53512 1.8185349,0.77089 0.8580952,0.35502 1.0415095,0.45144 1.0673978,0.56111 0.022746,0.0964 0.1641692,0.19944 0.5192797,0.37854 0.6724426,0.33914 1.6983778,0.77391 2.7907426,1.18266 0.9735857,0.3643 1.1519007,0.38646 1.4124037,0.17551 0.15651,-0.12673 0.106165,-0.27308 -0.136013,-0.39537 -0.236495,-0.11943 -0.431207,-0.29984 -0.531366,-0.49235 -0.105555,-0.20287 -0.104037,-0.81363 0.0025,-1.01971 0.127631,-0.2468 0.450537,-0.50091 0.772358,-0.60782 0.324669,-0.10784 0.25697,0.0285 0.616248,-1.24132 0.08516,-0.301 0.182055,-0.58118 0.215318,-0.62262 0.05993,-0.0747 0.411414,-0.2415 0.508744,-0.2415 0.07741,0 0.06064,0.2542 -0.06464,0.97933 -0.139999,0.81038 -0.140789,0.85966 -0.0144,0.89963 0.490972,0.15525 0.746161,0.36537 0.90476,0.74495 0.07278,0.17416 0.128029,0.20604 0.645958,0.37254 0.435585,0.14004 0.619589,0.17311 0.796808,0.1432 0.126738,-0.0213 0.554477,-0.0431 0.950532,-0.0482 0.676409,-0.008 0.731908,-8.7e-4 0.914718,0.12943 0.113233,0.0808 0.252284,0.26476 0.33251,0.44001 0.09467,0.20677 0.187146,0.32013 0.295049,0.36165 0.407819,0.15691 0.985773,0.31299 1.057152,0.28548 0.04364,-0.0168 0.221288,-0.46231 0.394778,-0.98999 0.237457,-0.72223 0.354947,-0.99725 0.475266,-1.11252 0.151642,-0.14528 0.159829,-0.14696 0.159829,-0.0328 0,0.0662 -0.181464,0.81058 -0.403255,1.65418 -0.22179,0.8436 -0.403255,1.54602 -0.403255,1.5609 0,0.0148 -0.0941,0.13122 -0.209101,0.25851 -0.244915,0.27109 -0.379583,0.23683 -0.327626,-0.0834 0.0205,-0.12631 0.0045,-0.20768 -0.04741,-0.24087 -0.107137,-0.0686 -1.090416,-0.36365 -1.219279,-0.36593 -0.05718,-9.5e-4 -0.25946,0.10379 -0.449497,0.2328 -0.661481,0.4492 -1.022001,0.50696 -1.543206,0.24723 l -0.304652,-0.15181 -0.145327,0.14533 c -0.133409,0.1334 -0.139789,0.16212 -0.07779,0.34993 0.07532,0.22824 -0.0074,0.18792 1.385886,0.67453 1.099127,0.38382 4.276054,1.13056 4.489148,1.05516 0.101204,-0.0358 0.285493,-0.0224 0.580355,0.0424 1.275838,0.28032 1.821313,0.41308 1.924773,0.46845 0.06332,0.0339 0.634757,0.18628 1.269873,0.33867 1.473029,0.35341 2.140199,0.54224 2.310774,0.65401 0.07656,0.0502 0.162864,0.18998 0.198146,0.321 0.107596,0.39958 -0.06845,1.03882 -0.285022,1.035 -0.01771,-2.2e-4 -1.521848,-0.25663 -3.342532,-0.56957 -1.820687,-0.31295 -3.337217,-0.55867 -3.370069,-0.54604 -0.03285,0.0126 -0.189348,0.2754 -0.347771,0.58396 -0.250824,0.48852 -0.308957,0.56341 -0.449945,0.57958 -0.182778,0.021 -0.32776,-0.0731 -0.32776,-0.21272 0,-0.0515 0.109336,-0.30622 0.242968,-0.56607 0.133633,-0.25988 0.224011,-0.49143 0.200838,-0.51461 -0.02317,-0.0232 -0.302864,-0.0887 -0.621536,-0.14559 -0.531835,-0.0949 -0.590889,-0.0958 -0.719307,-0.0117 -0.07695,0.0504 -0.139905,0.13515 -0.139905,0.18827 0,0.13521 -0.48973,0.66363 -0.569399,0.61438 -0.04478,-0.0277 -0.04687,-0.0731 -0.0068,-0.14786 0.03177,-0.0594 0.05777,-0.17573 0.05777,-0.2586 0,-0.0828 0.0411,-0.23013 0.09132,-0.32725 0.05373,-0.10389 0.0701,-0.19781 0.03976,-0.22814 -0.02835,-0.0283 -0.267917,-0.0831 -0.532357,-0.12163 -0.44598,-0.065 -0.485363,-0.0625 -0.543826,0.0346 -0.131151,0.21784 -0.680334,0.93253 -0.769602,1.00154 -0.150944,0.11668 -0.235652,0.0859 -0.475982,-0.17283 -0.188038,-0.20245 -0.227526,-0.286 -0.22812,-0.48263 -4.14e-4,-0.13079 0.03817,-0.33087 0.08569,-0.44462 0.102041,-0.24421 0.112069,-0.44094 0.02248,-0.44094 -0.03516,0 -0.213781,0.15555 -0.396935,0.34565 -0.504294,0.52343 -0.762455,0.46094 -0.492401,-0.11921 0.08009,-0.17207 0.14588,-0.34459 0.14619,-0.38338 6.53e-4,-0.0812 -0.189562,-0.18453 -0.615113,-0.3342 l -0.298831,-0.1051 -0.306053,0.26039 c -0.363646,0.30938 -0.468674,0.36703 -0.746305,0.40962 -0.138809,0.0213 -0.251766,0.003 -0.333756,-0.0547 -0.139882,-0.0979 -0.08413,-0.13433 -1.3862902,0.90349 -1.3740327,1.09508 -1.542826,1.20551 -2.4349091,1.59272 -0.3217411,0.13967 -0.6297498,0.29444 -0.6844634,0.34395 -0.073806,0.0669 -0.1595511,0.0798 -0.3322858,0.0507 -0.2075629,-0.0351 -0.2594961,-0.0182 -0.4788666,0.15626 -0.5121555,0.40709 -0.702914,0.47238 -0.8756269,0.29968 z m 3.2262395,-3.73987 c 0.3787406,-0.16749 0.8646227,-0.51056 0.9505741,-0.67115 0.068172,-0.12737 -0.053365,-0.62973 -0.2001188,-0.82718 l -0.085625,-0.11522 -0.1100885,0.11522 c -0.1950878,0.20417 -0.997474,1.52731 -0.9614983,1.58551 0.046189,0.0747 0.035442,0.077 0.4067587,-0.0872 z m -0.6537199,-0.0725 c 0.2512486,-0.28607 0.9111328,-1.43768 0.8961919,-1.56401 -0.023411,-0.19793 -0.1757223,-0.27832 -0.3503075,-0.18489 -0.1219557,0.0652 -0.8777935,1.26579 -0.9975302,1.58441 -0.081974,0.21813 0.2866297,0.35238 0.4516458,0.16449 z m 2.0901523,-1.00815 c 0.2662729,-0.30875 0.3987479,-0.56515 0.5078369,-0.98289 0.09957,-0.38129 0.06782,-0.444 -0.283522,-0.55996 -0.3346636,-0.11045 -0.8235737,-0.0454 -1.255088,0.16707 -0.2096402,0.10315 -0.3811624,0.2109 -0.3811624,0.23933 0,0.0284 0.108319,0.0841 0.2407108,0.1238 0.4359553,0.13062 0.6114929,0.38115 0.830608,1.18548 0.033979,0.12475 0.1228814,0.0796 0.3406167,-0.17283 z m 1.9293269,-2.40513 c 0.06987,-0.0452 0.06161,-0.0559 -0.04321,-0.0568 -0.07129,-4.3e-4 -0.129617,0.0251 -0.129617,0.0568 0,0.0721 0.06113,0.0721 0.172825,0 z"
       id="path6086"
       inkscape:connector-curvature="0" />
  </g>
</svg>
