<?xml version="1.0" encoding="UTF-8" standalone="no"?>
<!-- Created with Inkscape (http://www.inkscape.org/) -->

<svg
   xmlns:dc="http://purl.org/dc/elements/1.1/"
   xmlns:cc="http://creativecommons.org/ns#"
   xmlns:rdf="http://www.w3.org/1999/02/22-rdf-syntax-ns#"
   xmlns:svg="http://www.w3.org/2000/svg"
   xmlns="http://www.w3.org/2000/svg"
   xmlns:sodipodi="http://sodipodi.sourceforge.net/DTD/sodipodi-0.dtd"
   xmlns:inkscape="http://www.inkscape.org/namespaces/inkscape"
   width="100"
   height="100"
   viewBox="0 0 26.458333 26.458333"
   version="1.1"
   id="svg5379"
   inkscape:version="0.92.0 r15299"
   sodipodi:docname="about_us_banner.svg">
  <defs
     id="defs5373" />
  <sodipodi:namedview
     id="base"
     pagecolor="#ffffff"
     bordercolor="#666666"
     borderopacity="1.0"
     inkscape:pageopacity="0.0"
     inkscape:pageshadow="2"
     inkscape:zoom="7.9195959"
     inkscape:cx="56.839756"
     inkscape:cy="44.17383"
     inkscape:document-units="px"
     inkscape:current-layer="layer1"
     showgrid="false"
     units="px"
     width="100px"
     inkscape:pagecheckerboard="true"
     inkscape:window-width="2560"
     inkscape:window-height="1377"
     inkscape:window-x="-8"
     inkscape:window-y="-8"
     inkscape:window-maximized="1" />
  <metadata
     id="metadata5376">
    <rdf:RDF>
      <cc:Work
         rdf:about="">
        <dc:format>image/svg+xml</dc:format>
        <dc:type
           rdf:resource="http://purl.org/dc/dcmitype/StillImage" />
        <dc:title></dc:title>
      </cc:Work>
    </rdf:RDF>
  </metadata>
  <g
     inkscape:label="Layer 1"
     inkscape:groupmode="layer"
     id="layer1"
     transform="translate(0,-270.54167)">
    <path
       style="font-style:normal;font-variant:normal;font-weight:normal;font-stretch:normal;font-size:22.57777786px;line-height:6.61458302px;font-family:'[TOP_SECRET]';-inkscape-font-specification:'[TOP_SECRET]';letter-spacing:0px;word-spacing:0px;fill:#ffffff;fill-opacity:1;stroke:none;stroke-width:0.06036462"
       d="m 16.848314,279.98618 -0.402393,0.0301 h -0.09054 l -1.21e-4,2.2e-4 -0.0025,-2.2e-4 h -0.05022 c -0.03186,0 -0.06547,0.0102 -0.100684,0.0301 l 0.01143,0.0306 -0.06036,0.015 c -0.01371,-0.018 -0.02753,-0.0387 -0.04162,-0.0658 l -0.03078,-4.6e-4 0.0032,-0.009 h -0.01012 l -0.01002,-0.0102 h -0.271717 l -0.01544,0.0153 -0.379402,-0.006 c -0.07714,0 -0.144243,0.0168 -0.201252,0.0504 -0.02852,-0.0335 -0.06875,-0.0504 -0.120731,-0.0504 h -0.07038 c -0.147556,0.0218 -0.221413,0.0487 -0.221413,0.0805 h -0.01002 c -0.0066,-0.0537 -0.01676,-0.0805 -0.03018,-0.0805 H 13.40502 l -0.01012,0.0102 6.84e-4,0.0179 c -0.174232,-0.0112 -0.426889,-0.0207 -0.765285,-0.0279 h -0.211296 c -0.420876,0 -0.77975,0.0269 -1.076542,0.0805 l 0.04032,-0.0504 v -0.0202 h -0.03525 v -0.0102 l -2.8672017,0.009 c -0.048977,-0.0157 -0.1589659,-0.0254 -0.3321227,-0.0289 h -0.080526 c -0.079563,0 -0.1399786,0.007 -0.1820385,0.022 l -0.049282,-0.002 -0.010129,0.0102 0.00233,0.0277 c -6.846e-4,8.1e-4 -0.00185,0.002 -0.00233,0.002 l 0.00281,0.003 0.00732,0.0874 v 0.0516 l -0.010129,0.008 h -0.010016 l -0.010016,-0.0102 c 0,-0.0554 -0.016813,-0.0956 -0.050344,-0.12073 v -0.0102 l 0.040207,-0.0301 c 0,-0.0201 -0.030184,-0.0336 -0.090548,-0.0403 -0.062042,0 -0.1458424,0.057 -0.2514805,0.17107 -0.045276,-0.0939 -0.1156995,-0.1409 -0.211276,-0.1409 -0.04863,0 -0.088869,0.0135 -0.1207275,0.0403 l 0.010016,-0.0504 v -0.0102 h -0.010016 c -0.045276,0 -0.1425658,0.0234 -0.2918039,0.0704 h -0.020056 l 0.050223,-0.0603 v -0.0102 H 6.0454813 l -0.4168933,0.0102 c -0.00362,-0.003 -0.00684,-0.007 -0.010611,-0.0102 H 2.227418 l -0.020056,0.02 v 0.005 c -0.4139957,0.0207 -0.6238043,0.066 -0.6238043,0.1364 l -0.050344,-0.0102 h -0.020056 c -0.043594,0 -0.1743885,0.067 -0.3923722,0.20113 -0.62376565,0.45106 -0.9356517,0.87362 -0.9356517,1.26766 l 0.0200555,0.16105 c -0.067069,0.0335 -0.10056823,0.11402 -0.10056823,0.24146 v 0.0704 c 0.0234746,0.34207 0.050344,0.5131 0.0805255,0.5131 h 0.0200555 l 0.1006873,-0.12073 h 0.0301839 l 0.0100152,0.0102 c -0.0788063,0.0956 -0.13243023,0.14932 -0.16093438,0.16105 0.0687504,0.2683 0.13917334,0.4024 0.2112752,0.4024 l -0.0201682,0.0301 v 0.0402 c 0,0.0385 0.0469894,0.10568 0.14088928,0.20126 l 0.1307505,-0.0201 c 0.0368852,0 0.0603195,0.0135 0.0703835,0.0403 v 0.02 l -0.0401996,0.0302 -0.0905477,-0.0102 h -0.0301839 v 0.0201 c 0.44099782,0.51646 0.96415583,0.7746 1.56948053,0.7746 h 0.1107078 0.050223 l 0.011206,-0.0111 0.049162,-0.009 0.6036457,0.0102 c 0.08384,0 0.1576988,-0.0169 0.2214164,-0.0504 0.083841,0.0335 0.1475198,0.0504 0.1911143,0.0504 h 0.090548 l 0.1509122,-0.0201 v -0.0102 c 0,-0.0135 -0.010067,-0.0202 -0.030184,-0.0202 v -0.0301 l 0.0402,0.0201 0.1107079,-0.0301 h 0.010016 c 0.011754,0 0.021809,0.0168 0.030184,0.0504 l -0.010016,0.0102 -0.070384,-0.0301 -0.020169,0.0202 v 0.02 l 0.010016,0.0102 1.4588926,0.02 c 0.2409788,0 0.4068937,-0.005 0.4985958,-0.0154 l 0.2408695,-0.005 0.6036456,0.02 0.010016,-0.0102 -0.010016,-0.0102 c 0,-0.0335 0.026749,-0.0571 0.080407,-0.0705 l -0.020055,0.0504 v 0.0102 l 0.010016,0.0102 0.4225544,0.0102 H 7.544531 l 0.2955746,-0.003 0.026411,0.0131 1.1669708,-0.0102 h 0.070504 c 0.04024,-0.0485 0.080486,-0.0754 0.12073,-0.0805 0.033538,0.008 0.050223,0.0184 0.050223,0.0301 0,0.0201 -0.013371,0.0301 -0.0402,0.0301 v 0.0202 H 9.647276 l 1.067935,0.006 0.0036,0.003 h 2.07244 c 0.07714,-0.0805 0.127437,-0.12073 0.150912,-0.12073 0.03353,0.008 0.05035,0.0184 0.05035,0.0301 l -0.130753,0.0704 v 0.02 h 1.227336 l -6.85e-4,-0.007 c 0.114249,-0.003 0.220537,-0.007 0.312668,-0.0127 l 0.271642,0.02 c 0.01509,-0.067 0.02847,-0.10057 0.0402,-0.10057 h 0.02017 v 0.0102 l -0.02017,0.0301 v 0.0403 l 0.02017,0.02 h 0.12073 c 0.06707,0 0.100572,-0.0234 0.100572,-0.0704 0.06204,0.0403 0.109031,0.0603 0.14089,0.0603 0.04024,0 0.067,-0.0201 0.08041,-0.0603 l 0.03018,0.0301 -0.02003,0.0301 v 0.0102 h 1.509114 l 0.01698,-0.017 0.458393,0.007 h 0.110592 l 1.325546,-0.019 v 0.009 l 0.02016,0.02 h 2.07244 c 0.07713,-0.0805 0.127437,-0.12074 0.150911,-0.12074 0.03354,0.008 0.05035,0.0184 0.05035,0.0301 l -0.130752,0.0705 v 0.02 h 1.227336 l -4.79e-4,-0.004 0.427976,-0.0164 h 1.773094 c 0.0037,0.007 0.0079,0.0144 0.01272,0.02 l 0.120728,-0.0301 0.09054,0.0102 h 0.120728 c 0.187801,0 0.435889,-0.0739 0.744418,-0.22142 0.409139,-0.22972 0.680779,-0.53154 0.814923,-0.90547 v -0.0102 l 0.03018,0.0102 c 0.0285,0 0.05205,-0.0368 0.0705,-0.11059 l -0.01012,-0.0301 -0.05022,0.0102 -0.08053,-0.0805 0.02017,-0.02 h 0.04021 c 0.04863,0.0403 0.08556,0.0603 0.110707,0.0603 h 0.01002 l 0.01002,-0.0102 c 0.07378,-0.25487 0.110707,-0.50296 0.110707,-0.74441 0,-0.59862 -0.191152,-1.09835 -0.573463,-1.4991 -0.405785,-0.39573 -0.892018,-0.59363 -1.458773,-0.59363 h -0.03525 l -1.951806,-0.0102 c -0.481028,0.006 -0.782032,0.019 -0.9037,0.0384 -0.162687,-0.0161 -0.463058,-0.0289 -0.902168,-0.0384 h -0.211276 c -0.405784,0 -0.753328,0.0252 -1.043767,0.0751 v -0.0355 l 0.0076,-0.009 v -0.0202 h -0.0076 v -0.0102 l -0.01012,-0.0102 h -0.02005 l -0.04009,0.02 h -0.118253 c -0.0037,-0.004 -0.0079,-0.007 -0.01272,-0.0102 -0.04695,-0.005 -0.07038,-0.0151 -0.07038,-0.0301 l -1.006158,0.0202 -0.674031,-0.0202 -0.02017,0.0301 v 0.0603 l -0.05022,0.0102 c 0,-0.0537 -0.01002,-0.0803 -0.03018,-0.0803 h -0.04032 c -0.06708,0.0168 -0.100572,0.0334 -0.100572,0.0502 -0.05366,-0.047 -0.120768,-0.0704 -0.201255,-0.0704 z m -10.9435643,0.0906 h 0.090546 c 0,0.0469 -0.030184,0.0704 -0.090546,0.0704 v 0.0102 c 0.011729,0.0268 0.035171,0.0403 0.070384,0.0403 h 0.010016 l 0.060367,-0.0403 c 0.068742,0 0.108987,0.0469 0.1207275,0.14077 h -0.060359 l -0.1911143,-0.0704 h -0.010016 c -0.021809,0 -0.045348,0.0102 -0.070504,0.0302 h -0.010016 c 0,-0.0151 -0.013371,-0.0319 -0.040208,-0.0504 -0.046949,-0.005 -0.070504,-0.0151 -0.070504,-0.0302 v -0.0102 c 0.085514,-0.0603 0.1493122,-0.0906 0.1912326,-0.0906 z m 2.9779097,0 h 0.060367 c 0.011754,0 0.02181,0.0201 0.030184,0.0603 -0.018431,0.047 -0.03514,0.0704 -0.050223,0.0704 h -0.020168 l -0.010016,-0.0102 0.010016,-0.0504 v -0.0403 z m 2.7416376,0 c 0,0.0385 0.01002,0.0687 0.03018,0.0906 v 0.0504 h -0.04032 l -0.100571,0.0302 -0.05035,-0.0705 v -0.02 z m 7.907768,0 c 0,0.0385 0.01002,0.0687 0.03018,0.0906 v 0.0504 h -0.04032 l -0.100572,0.0302 -0.05035,-0.0705 v -0.02 z m 2.962816,0 0.150911,0.0201 h 0.03018 v 0.02 c -0.06372,0.0403 -0.124082,0.0603 -0.181094,0.0603 h -0.01002 l 0.01002,-0.0302 v -0.0102 l -0.05022,0.0102 v -0.0403 c 0,-0.0118 0.01668,-0.0218 0.05022,-0.0301 z m 1.936738,0 c 0.03353,0 0.05366,0.0102 0.06036,0.0301 v 0.0102 c 0,0.0403 -0.02011,0.0603 -0.06036,0.0603 z m -7.060186,0.0201 0.01012,0.0301 c -0.03689,0.0335 -0.07714,0.0502 -0.120728,0.0502 h -0.01012 l -0.01002,-0.0302 c 0.06373,-0.0102 0.107276,-0.0268 0.13075,-0.0502 z m 6.763432,0 h 0.04528 v 0.0323 z m -7.911654,0.006 0.0089,0.0237 v 0.02 c -0.0096,0 -0.01951,-0.002 -0.02935,-0.008 0.0072,-0.0161 0.01419,-0.03 0.0205,-0.0361 z m -2.13033,0.0122 0.0063,0.002 v 0.0102 l -0.0031,0.005 z m -7.4335733,0.0216 h 0.1105912 c 0,0.0168 -0.030184,0.0335 -0.090548,0.0504 v 0.0102 l 0.010129,0.0102 c 0.033538,0.002 0.050223,0.008 0.050223,0.0202 l 0.010129,0.0102 v 0.0102 c -0.045276,-0.0335 -0.085517,-0.0504 -0.12073,-0.0504 v -0.0301 z m -0.2918015,0.0201 c 0.04024,0.0218 0.060359,0.0587 0.060359,0.11059 l -0.1005684,0.0202 h -0.010129 l -0.030184,-0.0301 v -0.0301 z m 0.4627565,0 h 0.010129 l 0.1105912,0.0403 v 0.0202 l -0.030184,0.0102 c -0.060367,-0.0168 -0.090546,-0.0335 -0.090546,-0.0504 z m 3.1893033,0 v 0.0102 c 0.0939,0.0319 0.140889,0.062 0.140889,0.0906 -0.14085,-0.0251 -0.2112759,-0.0485 -0.2112759,-0.0704 v -0.0102 z m 6.97966,0 h 0.03018 v 0.0102 l -0.04021,0.0403 0.02005,0.0301 -0.181094,0.0403 h -0.01002 l 0.01002,-0.0403 h 0.06036 c 0.04024,-0.0537 0.07717,-0.0803 0.110708,-0.0803 z m -15.2948864,0.02 h 0.020169 l 0.050223,0.0301 -0.010016,0.0301 c -0.026829,0.0184 -0.040208,0.0353 -0.040208,0.0504 h -0.020168 l -0.010016,-0.0302 0.010016,-0.0603 z m 10.5939904,0 h 0.03018 c 0.03856,0 0.08887,0.0168 0.150912,0.0504 l -0.02017,0.0402 0.02017,0.0202 0.05035,-0.0102 v 0.0403 l -0.05035,0.0102 h -0.05035 v 0.0202 h -0.03018 l -0.12073,-0.1509 z m 7.907766,0 h 0.03018 c 0.03856,0 0.08887,0.0168 0.150912,0.0504 l -0.02016,0.0402 0.02016,0.0202 0.05035,-0.0102 v 0.0403 l -0.05035,0.0102 h -0.05035 v 0.0202 h -0.03018 l -0.12073,-0.1509 z m -2.95539,0.0202 c 0,0.0335 0.0067,0.0504 0.02016,0.0504 h 0.01002 l 0.01012,-0.0102 v 0.0102 l 0.01002,0.0102 v 0.0102 l -0.03018,0.0102 c -0.03353,0 -0.05366,-0.0102 -0.06036,-0.0301 z m 6.250331,0.0102 c 0.04528,0.0184 0.07546,0.042 0.09054,0.0705 v 0.02 h -0.04032 l -0.09055,-0.0403 v -0.0201 c 0,-0.0102 0.01348,-0.0201 0.04032,-0.0301 z m -0.221414,0.0102 h 0.06036 l 0.01012,0.0102 c -0.02012,0.047 -0.05031,0.0704 -0.09055,0.0704 h -0.04032 v -0.02 z m -11.916944,0.0102 v 0.0403 c -0.0025,0.005 -0.0056,0.008 -0.0085,0.0117 l -0.0046,-0.0505 z m 12.782208,0 h 0.03525 v 0.0385 l -0.0051,0.002 h -0.01002 l -0.02017,-0.02 z m -1.800918,0.0102 h 0.02017 c 0.03354,0 0.05366,0.0102 0.06037,0.0301 v 0.0301 l -0.01002,0.0102 -0.06036,-0.0301 h -0.02017 l -0.01002,0.0102 v -0.0102 l -0.01012,-0.0102 z m -20.8107026,0.0202 0.070504,0.0202 -0.020169,0.0502 c -0.073778,0.0184 -0.1107071,0.0453 -0.1107071,0.0805 l -0.080407,-0.0403 0.030184,-0.0403 v -0.0102 l -0.010149,-0.0102 h 0.100687 c 0.01341,0 0.020056,-0.0168 0.020056,-0.0504 z m 21.4244896,0.0202 0.02005,0.02 c 0.0939,0.008 0.147637,0.0184 0.161051,0.0301 l -0.03018,0.0906 v 0.0102 c 0,0.0268 0.09386,0.0402 0.281661,0.0402 h 0.05035 c 0.174387,0 0.2615,-0.0134 0.2615,-0.0402 v -0.0102 l -0.03018,-0.10057 v -0.0102 l 0.05035,0.0102 h 0.01002 l 0.130869,-0.0403 v 0.0102 l -0.0705,0.0603 v 0.0102 l 0.01012,0.0102 0.06036,-0.0202 h 0.01002 l -0.01002,0.0301 c 0,0.0168 0.02344,0.047 0.07038,0.0906 h 0.352165 0.105638 c 0.363864,0 0.692439,0.12747 0.985878,0.38235 0.348772,0.34877 0.523239,0.7512 0.523239,1.20729 v 0.0906 c 0,0.47453 -0.177781,0.88029 -0.533262,1.21732 -0.27667,0.21464 -0.528188,0.33204 -0.754557,0.35217 v 0.0403 l 0.01002,0.0102 -0.02005,0.0301 c -0.09151,-0.0372 -0.192848,-0.059 -0.303237,-0.0667 l -0.0036,-0.004 -0.05459,0.002 c -0.0104,-2.2e-4 -0.02033,-0.002 -0.03089,-0.002 -0.0064,0 -0.01144,8.1e-4 -0.01579,0.002 l -0.331299,0.008 -2.464927,-0.0102 -0.02017,0.0202 h -0.276592 l 0.02005,0.0804 -0.0402,0.0504 v 0.0202 h 0.0402 l 0.09055,0.0301 v 0.0301 l 0.02016,0.0906 v 0.0102 c -0.147558,0 -0.268286,-0.0168 -0.362187,-0.0504 v -0.02 c 0.100602,-0.0453 0.150909,-0.0889 0.150909,-0.13086 v -0.0102 h -0.13075 v -0.0202 c 0.07378,-0.006 0.110591,-0.0301 0.110591,-0.0704 h -0.01002 l -0.01002,-0.0102 h -1.697798 l -0.01012,-0.0102 -0.181095,-0.0102 -2.012074,-0.0102 -1.257638,0.0102 -0.02829,0.0113 c -0.06212,-6.8e-4 -0.124363,-0.002 -0.185457,-0.002 -0.320267,0 -0.551666,0.0169 -0.694193,0.0504 -0.194506,-0.0335 -0.338791,-0.0504 -0.43269,-0.0504 l -1.056382,0.0102 H 13.19381 l 0.02005,0.0804 -0.04021,0.0504 v 0.0202 h 0.04021 l 0.09054,0.0301 v 0.0301 l 0.02017,0.0906 v 0.0102 c -0.147558,0 -0.268289,-0.0169 -0.362189,-0.0504 v -0.02 c 0.100603,-0.0453 0.150913,-0.0889 0.150913,-0.13087 v -0.0102 h -0.130751 v -0.0202 c 0.07378,-0.006 0.110588,-0.0302 0.110588,-0.0704 h -0.01002 l -0.01002,-0.0102 h -1.722042 l -0.0035,-0.0102 -0.01002,0.0102 -0.845105,-0.0102 c -0.160971,0 -0.281701,0.0269 -0.362188,0.0805 h -0.04032 l -0.07039,-0.0805 -0.171072,0.0102 -1.3078614,-0.0102 c -0.1338944,0.002 -0.2441291,0.004 -0.3403765,0.006 l -0.3136119,-0.0165 h -0.010016 c -0.09893,0 -0.1626093,0.0234 -0.1911143,0.0704 l -0.020168,-0.0704 c -0.04024,0.0654 -0.067109,0.0989 -0.080526,0.10057 h -0.020056 l -0.030184,-0.0301 v -0.0102 l 0.070384,-0.0201 c 0,-0.0218 -0.080486,-0.0384 -0.2414574,-0.0502 -0.053659,0.003 -0.080528,0.0134 -0.080528,0.0301 v 0.0301 l 0.010149,0.0102 c -0.1509122,-0.0402 -0.2985093,-0.0603 -0.442713,-0.0603 h -0.050344 l -0.2011372,0.0202 c -0.1291142,-0.0201 -0.2532752,-0.0302 -0.3723262,-0.0302 -0.1324689,0 -0.2431372,0.0167 -0.3320059,0.0502 -0.072105,-0.0335 -0.1458425,-0.0502 -0.2212982,-0.0502 l -0.4829159,0.0102 H 2.2274879 l -0.01946,0.0195 c -0.4876541,-0.006 -0.8838089,-0.17036 -1.1878409,-0.49247 -0.12072757,-0.13918 -0.24145832,-0.30678 -0.36218827,-0.50296 v 0.02 l 0.0101287,0.0403 -0.0101287,0.0403 c -0.10060686,-0.006 -0.15091147,-0.0201 -0.15091147,-0.0403 0.0939015,-0.0369 0.14089171,-0.0872 0.14089171,-0.15092 -0.0100643,-0.0537 -0.0234344,-0.0805 -0.0402077,-0.0805 H 0.45685968 c -0.0385665,0.0738 -0.0687504,0.11735 -0.090546,0.13076 h -0.0201682 v -0.0102 c 0.0419212,-0.14085 0.0955378,-0.21128 0.16093198,-0.21128 l 0.0905485,0.0403 0.0101287,-0.0102 c -0.0201199,-0.0654 -0.0336109,-0.19618 -0.0403203,-0.39237 0,-0.42926 0.13422264,-0.79819 0.40250852,-1.10673 0.36386482,-0.36889 0.79979282,-0.5533 1.30786132,-0.5533 0.00306,0 0.00547,-4.5e-4 0.00804,-8e-4 l 1.6922136,-0.0193 1.73053,0.0202 0.016041,-0.0561 0.039266,0.0561 0.1710708,-0.0202 h 0.4929399 c 0.1425296,0 0.2431365,-0.0234 0.3018237,-0.0704 l 0.080526,0.0704 0.8953298,0.0102 0.1576312,-0.002 c 0.00112,4.5e-4 0.0021,0.002 0.00345,0.002 H 8.097986 c 0.021495,0 0.041149,-0.002 0.059893,-0.006 l 0.1171935,-0.002 c 0.0041,0.004 0.00871,0.007 0.014142,0.007 h 0.9960147 c 0.045276,-0.0537 0.1089533,-0.0805 0.1911175,-0.0805 v 0.0201 c -0.080486,0.008 -0.1207307,0.0218 -0.1207307,0.0403 l 0.020168,0.0201 h 0.2514858 l 0.110707,-0.15091 h 0.010016 l 0.010016,0.0403 c 0,0.0134 -0.023434,0.0403 -0.070384,0.0805 v 0.0102 l 0.8350822,0.0301 c 0.06912,0 0.132352,-8e-4 0.195479,-0.002 l 6.85e-4,0.002 c 0.281715,0 0.481234,-0.0122 0.605179,-0.0355 0.0092,-8.1e-4 0.0201,-0.002 0.02901,-0.003 l 0.0097,0.0387 0.191116,-0.0102 0.794878,0.02 c 0.216307,0 0.380596,-0.0268 0.49294,-0.0803 h 0.01002 l -0.02005,0.0603 v 0.0102 l 0.06036,-0.0102 0.512746,0.009 4.79e-4,4.5e-4 4.8e-4,-4.5e-4 0.01969,4.5e-4 h 0.02016 c 0.02942,0 0.05766,-0.003 0.08524,-0.007 l 0.336839,0.007 4.8e-4,4.6e-4 h 0.03018 c 0.02934,0 0.055,-0.002 0.07722,-0.006 l 0.07369,-0.005 v -0.003 l 0.0402,0.0134 v -0.0102 l 0.01012,-0.0102 v -0.0403 c 0,-0.002 -2.5e-4,-0.002 -2.5e-4,-0.004 0.03796,0.018 0.06567,0.0391 0.08064,0.0644 l 0.0705,-0.0102 h 1.227334 l 1.227455,0.0102 v -0.0102 l 0.0091,-0.009 0.466293,-0.0109 0.171073,0.0102 0.02003,-0.0906 c 0.04192,0 0.06879,0.0301 0.08053,0.0906 l 0.09054,-0.02 0.14089,0.0102 c 0.04024,0 0.0838,-0.0234 0.130752,-0.0704 l 0.01002,0.0803 0.79771,0.008 0.0047,0.012 c 0.214546,0 0.381098,-0.007 0.504141,-0.0206 0.05598,-0.005 0.100305,-0.0107 0.124382,-0.0187 0.0016,-2.3e-4 0.0038,-4.5e-4 0.0053,-8.1e-4 l 0.01002,0.0403 0.191115,-0.0102 0.79488,0.02 c 0.216307,0 0.380593,-0.0268 0.492939,-0.0803 h 0.01002 l -0.02005,0.0603 v 0.0102 l 0.06036,-0.0102 0.533142,0.0102 h 0.02017 c 0.01449,0 0.02818,-0.002 0.04221,-0.003 l 0.0031,0.003 h 0.221298 c 0.05377,0 0.10049,-0.005 0.141715,-0.0142 l 0.0142,0.0142 h 0.03018 c 0.05138,0 0.09126,-0.006 0.120846,-0.0167 0.02099,0.005 0.04128,0.0102 0.0606,0.0134 l 0.0097,0.003 v -0.002 c 0.04265,0.007 0.08148,0.0115 0.115778,0.0115 l 0.774601,-0.0102 h 0.01012 c 0.02515,-0.0805 0.05865,-0.12073 0.100571,-0.12073 l -0.05035,-0.0504 v -0.0102 z m -5.385067,0.0102 0.04021,0.0704 v 0.0102 l -0.01002,0.0102 -0.05035,-0.0301 h -0.05023 v -0.0202 l 0.01002,-0.0102 c 0.03353,0 0.05035,-0.006 0.05035,-0.0201 z m -1.800918,0.0184 v 0.004 l -0.0025,-0.002 z m -9.2835349,0.0218 c 0.04024,0.0134 0.06036,0.027 0.06036,0.0403 v 0.02 l -0.06036,-0.02 -0.1107094,0.02 c 0,-0.0218 0.036933,-0.0419 0.1107094,-0.0603 z m 16.8618899,0 h 0.07038 l 0.08053,0.0202 c -0.01002,0.0335 -0.03362,0.0504 -0.0705,0.0504 l -0.120728,-0.0202 v -0.0102 z m -8.677414,0.0403 0.04021,0.02 c 0,0.0335 -0.03018,0.0504 -0.09055,0.0504 h -0.04021 c 0.03521,-0.047 0.06539,-0.0704 0.09055,-0.0704 z m 1.471388,0 h 0.0076 v 0.0124 l -0.0016,0.008 h -0.03879 l -0.02346,-0.004 c 0.02124,-0.006 0.03281,-0.009 0.05625,-0.0157 z m -0.172723,0.0487 c -2.52e-4,0.004 -8.85e-4,0.007 -8.85e-4,0.0118 h -0.02017 l -0.0046,-0.005 c 0.0072,-0.002 0.01798,-0.005 0.02558,-0.007 z m -12.0033651,0.2029 -0.1107077,0.0102 c -0.2548729,0.10564 -0.3822302,0.27336 -0.3822302,0.50307 v 0.0102 c 0.1006073,0.015 0.1509114,0.0319 0.1509114,0.0504 H 3.4649352 c -0.093901,0.14923 -0.261501,0.56173 -0.5029609,1.23747 -0.2280429,0.47789 -0.3421448,0.76291 -0.3421448,0.85512 v 0.0403 c 0.058686,0.1744 0.1627277,0.2615 0.3119625,0.2615 h 0.030184 c 0.085517,0 0.1592579,-0.0603 0.2212982,-0.18108 0.088869,-0.33201 0.1660404,-0.51642 0.2314377,-0.55332 h 0.3118442 l 0.7645778,0.0102 0.050344,-0.0102 0.030184,0.13075 c 0.1324665,0.39574 0.2766315,0.59363 0.4325725,0.59363 0.1056381,0 0.1996169,-0.0536 0.281781,-0.16093 0,-0.0251 -0.033619,-0.0621 -0.100687,-0.1107 v -0.0302 h 0.010129 l 0.060367,0.0603 0.030184,-0.0202 c 0,-0.0939 -0.030184,-0.19782 -0.090548,-0.31184 -0.00499,-0.0804 -0.018527,-0.12073 -0.040321,-0.12073 h -0.010016 l -0.080526,0.0202 v -0.0102 c 0.046949,-0.0419 0.070504,-0.0721 0.070504,-0.0906 -0.1676783,-0.37561 -0.3622655,-0.8719 -0.5836022,-1.48896 -0.1274377,-0.46279 -0.318593,-0.6942 -0.5734635,-0.6942 z m 5.3875444,0 -0.030184,0.0202 c 0,0.10732 -0.036933,0.16094 -0.1107079,0.16094 h -0.010016 v -0.0202 c 0.053659,-0.0419 0.080526,-0.0788 0.080526,-0.11059 v -0.0102 l -0.010149,-0.0102 c -0.1995379,0 -0.3839444,0.0637 -0.5533025,0.19112 -0.3487728,0.3035 -0.5231194,0.71268 -0.5231194,1.22745 v 0.10057 c 0,0.3471 0.097173,0.65898 0.2916825,0.93566 0.1861248,0.18109 0.3236595,0.27163 0.4125306,0.27163 h 0.010016 l -0.010016,0.0301 v 0.0202 c 0.04695,0.0688 0.3052146,0.12237 0.774719,0.16093 0.2297193,0 0.3738854,-0.0503 0.4325734,-0.1509 v -0.0102 h -0.05035 l -0.02005,-0.0201 v -0.0102 l 0.02005,-0.0301 v -0.0201 l -0.01002,-0.0102 0.04021,-0.0102 c 0.08216,0 0.186202,0.0168 0.311962,0.0502 0.03017,0 0.08049,-0.0301 0.150913,-0.0906 0.295114,-0.28673 0.442594,-0.69579 0.442594,-1.22733 0,-0.22638 -0.03349,-0.43102 -0.100572,-0.61378 -0.06707,-0.0218 -0.100571,-0.0419 -0.100571,-0.0603 l 0.0402,-0.0402 v -0.0302 c -0.219662,-0.46279 -0.659019,-0.6942 -1.317999,-0.6942 z m 13.3807847,0 c -0.09726,0 -0.217983,0.0201 -0.362187,0.0603 -0.402432,0.16265 -0.603649,0.39736 -0.603649,0.70421 v 0.0704 c 0,0.14085 0.03018,0.25814 0.09054,0.35205 l 0.06036,-0.02 h 0.01012 v 0.02 h -0.03018 v 0.0201 c 0.01844,0.0419 0.07881,0.10904 0.181095,0.20126 0.108992,0.0805 0.286652,0.13742 0.533143,0.17095 l 0.301824,0.13087 c 0.342065,0.057 0.513096,0.19443 0.513096,0.41242 l -0.01002,0.0805 c -0.04862,0.22133 -0.243096,0.332 -0.583486,0.332 -0.191155,0 -0.338751,-0.0704 -0.442713,-0.21128 -0.140851,-0.31524 -0.258265,-0.4729 -0.352166,-0.4729 h -0.07038 c -0.125757,0 -0.212992,0.0873 -0.261617,0.26162 0.01174,0.0738 0.02855,0.11071 0.05035,0.11071 0.01843,0.1157 0.04188,0.20281 0.07038,0.26151 0.206245,0.32194 0.538251,0.48291 0.996015,0.48291 0.166001,0 0.330406,-0.0302 0.493057,-0.0906 v -0.0102 l -0.01012,-0.0102 v -0.0906 c 0,-0.0738 -0.03018,-0.11072 -0.09055,-0.11072 v -0.0102 l 0.201256,-0.0202 h 0.04021 c 0.100612,0.008 0.15091,0.0251 0.15091,0.0504 -0.0939,0 -0.14077,0.0435 -0.14077,0.13076 v 0.0102 l 0.01002,0.0102 c 0.02514,0 0.05533,-0.0135 0.09054,-0.0403 0,-0.0134 -0.01002,-0.02 -0.03018,-0.02 v -0.0201 h 0.02017 l 0.06036,-0.0102 c 0.228042,-0.13247 0.342026,-0.30694 0.342026,-0.52324 l -0.02017,-0.12072 c 0.03353,0 0.05035,-0.0102 0.05035,-0.0302 v -0.0302 l -0.04021,-0.0403 0.02005,-0.11072 -0.01002,-0.0803 c -0.06707,-0.21463 -0.150873,-0.32198 -0.251481,-0.32198 h -0.06036 v -0.0102 l 0.02005,-0.0301 v -0.0301 c -0.405784,-0.1945 -0.720984,-0.29181 -0.945673,-0.29181 h -0.01002 v 0.0102 l 0.140772,0.15091 v 0.0102 h -0.05022 c -0.11402,-0.006 -0.171071,-0.0235 -0.171071,-0.0504 l 0.0402,-0.0202 -0.02005,-0.12074 c 0,-0.0453 -0.08049,-0.0754 -0.241458,-0.0906 l -0.171072,0.0102 h -0.01002 v -0.0403 l -0.01012,-0.0502 c 0.03186,0 0.0688,-0.0201 0.110708,-0.0603 v -0.0301 c 0,-0.0102 -0.02344,-0.0269 -0.07038,-0.0504 0.07377,-0.13917 0.134146,-0.22639 0.181095,-0.2616 l -0.01012,-0.0603 c 0.01173,-0.0419 0.04193,-0.0788 0.09055,-0.11058 l -0.02005,-0.0301 v -0.0705 l 0.01002,-0.0102 c 0.01843,0 0.04532,0.0169 0.08053,0.0504 h 0.01002 c 0,-0.0537 0.03018,-0.0906 0.09055,-0.11071 l 0.04021,0.0102 v 0.0202 c -0.105642,0.0637 -0.15926,0.1107 -0.160935,0.14088 l 0.02016,0.02 h 0.02003 c 0.02514,0 0.05201,-0.0134 0.08053,-0.0403 h 0.02017 v 0.0202 l -0.01012,0.0102 c -0.02011,0 -0.03018,0.006 -0.03018,0.0202 0.005,0.0201 0.02515,0.0301 0.06036,0.0301 h 0.06037 c 0.0369,0 0.06044,-0.0135 0.0705,-0.0403 l 0.06036,0.0504 c 0.234751,0.0738 0.352049,0.15096 0.352049,0.23144 l 0.120728,-0.0202 c 0.04695,0 0.09394,0.0201 0.140892,0.0603 h 0.01002 l -0.01002,-0.0504 c 0,-0.0201 0.0067,-0.0302 0.02017,-0.0302 l 0.04021,0.0302 h 0.01002 l 0.09055,-0.0102 c 0.04024,0.0134 0.06036,0.0268 0.06036,0.0403 h -0.0402 l -0.06037,-0.0102 h -0.01002 l 0.01002,0.10057 c 0,0.0268 -0.02011,0.0403 -0.06036,0.0403 h -0.01002 l -0.04032,-0.0805 h -0.01002 c -0.01002,0 -0.04355,0.057 -0.100571,0.17106 v 0.0102 l 0.01002,0.0102 0.100572,-0.0102 -0.02005,0.0603 v 0.0102 h 0.06036 c 0.159297,0 0.249846,-0.0938 0.271642,-0.28165 -0.03353,-0.22134 -0.100643,-0.33201 -0.201255,-0.33201 -0.01342,0 -0.02017,0.0169 -0.02017,0.0504 l -0.12073,0.10057 c -0.02515,-0.0201 -0.04859,-0.0301 -0.07038,-0.0301 h -0.07038 c -0.03186,0 -0.06547,0.0102 -0.100683,0.0301 l -0.01002,-0.0301 c -0.08049,-0.0218 -0.120727,-0.062 -0.120727,-0.12074 l -0.05035,0.0102 -0.09054,-0.02 v -0.0102 l 0.422552,-0.02 0.261622,0.02 v -0.02 l -0.05035,-0.0704 c -0.179417,-0.13414 -0.316838,-0.20114 -0.412415,-0.20114 h -0.01012 l -0.01002,0.0102 0.02017,0.0504 h -0.01012 c -0.176062,-0.0738 -0.337034,-0.1107 -0.482916,-0.1107 z m -15.926121,0.0102 c -0.1676791,0.006 -0.2515996,0.0235 -0.2515996,0.0504 v 0.0102 l 0.010129,0.0102 -0.010129,0.0102 c -0.095577,-0.0335 -0.2163063,-0.0504 -0.3621874,-0.0504 l -0.4527335,0.0301 c -0.1274361,0.0553 -0.1911143,0.16944 -0.1911143,0.34215 l 0.010016,0.76458 -0.010016,0.0403 0.030184,0.0202 h 0.1207276 l 0.020168,0.0202 v 0.0403 l -0.010129,0.0403 v 0.0102 l -0.1307504,-0.0102 h -0.010016 l -0.010129,0.0102 0.020169,0.23133 v 0.0504 l -0.060367,0.78475 c 0,0.32864 0.1039228,0.49294 0.3118442,0.49294 l 0.4829182,-0.0102 0.7445366,0.0102 c 0.1140207,0 0.2246891,-0.0201 0.3320069,-0.0603 0.3353566,-0.14756 0.503077,-0.31516 0.503077,-0.50295 0,-0.047 -0.00676,-0.0839 -0.020168,-0.11072 0.060367,0 0.090549,-0.0704 0.090549,-0.21127 0,-0.22302 -0.1810942,-0.43429 -0.5432816,-0.63383 0.2347498,-0.14924 0.3521645,-0.30346 0.3521645,-0.46276 v -0.0301 c 0,-0.0335 -0.010067,-0.0672 -0.030184,-0.10068 0.04024,0 0.060367,-0.006 0.060367,-0.02 v -0.0504 c 0,-0.12073 -0.026869,-0.22466 -0.080524,-0.31184 -0.2146323,-0.26829 -0.4963336,-0.40251 -0.8451057,-0.40251 z m 6.453946,0 c -0.0436,0 -0.07378,0.0168 -0.09054,0.0504 v 0.0102 h 0.110708 c 0.05198,0 0.08216,0.0135 0.09055,0.0403 l -0.03018,0.0403 v 0.0102 c 0,0.0603 0.05031,0.0973 0.150913,0.11071 l 0.07038,-0.0202 c 0,-0.0587 -0.01681,-0.12236 -0.05035,-0.19111 l -0.05022,0.0102 z m 7.907763,0 c -0.04359,0 -0.07377,0.0168 -0.09054,0.0504 v 0.0102 h 0.110708 c 0.05198,0 0.08216,0.0135 0.09055,0.0403 l -0.03018,0.0403 v 0.0102 c 0,0.0603 0.05031,0.0973 0.150912,0.11071 l 0.07038,-0.0202 c 0,-0.0587 -0.01681,-0.12236 -0.05035,-0.19111 l -0.05022,0.0102 z m -9.728726,0.0102 c -0.129111,0 -0.20297,0.0838 -0.221413,0.25147 v 0.0202 l 0.04032,-0.0302 h 0.02005 v 0.02 c -0.02851,0 -0.04862,0.0135 -0.06036,0.0403 0,0.0134 0.02011,0.02 0.06036,0.02 v 0.0102 c 0,0.008 -0.03018,0.0218 -0.09055,0.0403 v 0.0102 c 0.06708,0.0102 0.110747,0.0236 0.130869,0.0403 0.09894,0.12073 0.155866,0.1811 0.170954,0.1811 h 0.02016 c 0.05366,-0.047 0.0939,-0.0705 0.12073,-0.0705 v 0.0201 c -0.0084,0.0805 -0.03856,0.12073 -0.09054,0.12073 l -0.04021,-0.0102 c -0.0939,-0.0201 -0.140889,-0.0839 -0.140889,-0.19124 h -0.09054 c -0.05366,0 -0.08053,0.0269 -0.08053,0.0805 0.03857,0.0369 0.06212,0.0939 0.0705,0.17108 -0.04695,0.0285 -0.0705,0.0721 -0.0705,0.13075 v 0.13076 c 0,0.0201 0.04367,0.0301 0.13087,0.0301 h 0.08041 c 0.07042,0 0.14085,-0.0102 0.211276,-0.0301 -0.03353,0.0537 -0.0939,0.0805 -0.181094,0.0805 h -0.01002 c -0.07042,0 -0.144163,-0.0169 -0.221297,-0.0504 l -0.01012,0.0102 0.01012,0.0906 -0.01012,0.6942 c 0.01508,0.22133 0.03521,0.332 0.06037,0.332 l 0.08053,-0.0202 c 0,0.0301 0.01002,0.0603 0.03018,0.0906 0.0939,0.0151 0.140889,0.0353 0.140889,0.0603 v 0.0302 l -0.03018,0.0301 -0.14089,-0.0301 c -0.02683,0.003 -0.04021,0.0134 -0.04021,0.0301 v 0.0102 c 0.06372,0.15426 0.107276,0.23143 0.130749,0.23143 h 0.02017 c 0.04695,-0.0403 0.09383,-0.0603 0.140773,-0.0603 h 0.03018 l 0.372327,0.0504 0.06036,-0.0102 0.04021,0.0603 v 0.0202 l -0.01002,0.0102 -0.03018,-0.02 c -0.167678,-0.0251 -0.251597,-0.0487 -0.251597,-0.0705 l -0.100572,0.0202 h -0.06036 l -0.110709,-0.0202 -0.06036,0.0504 c 0.187802,0.22804 0.459442,0.34204 0.814922,0.34204 0.182771,-0.006 0.290127,-0.0201 0.321985,-0.0403 0.204568,0 0.362227,-0.0269 0.472895,-0.0805 0.355481,-0.16097 0.536575,-0.58352 0.543282,-1.26765 v -0.34203 c 0,-0.0738 -0.02687,-0.11071 -0.08053,-0.11071 0.04695,-0.0385 0.07038,-0.10556 0.07038,-0.20114 0,-0.0738 -0.01002,-0.15426 -0.03018,-0.24146 h -0.06036 v 0.0102 l 0.03018,0.0403 v 0.0102 h -0.110606 l -0.02017,-0.0201 c 0.01002,-0.0218 0.06368,-0.0553 0.160935,-0.10057 v -0.0102 l -0.01002,-0.0102 0.05035,-0.14089 -0.02017,-0.0302 h -0.01002 l -0.01012,0.0102 c 0,0.0201 -0.0066,0.0301 -0.02005,0.0301 h -0.02017 c -0.02851,-0.0168 -0.04862,-0.0403 -0.06036,-0.0705 v -0.02 l 0.09055,0.0302 c 0.01002,0 0.02344,-0.0269 0.04021,-0.0805 0,-0.0268 -0.05031,-0.0403 -0.150912,-0.0403 l -0.211276,0.0102 c -0.02011,0 -0.03018,0.006 -0.03018,0.0202 v 0.0102 c 0,0.0102 0.02687,0.0301 0.08053,0.0603 l -0.03018,0.0301 -0.150912,-0.0906 0.03018,-0.0102 -0.05035,-0.0603 0.02017,-0.0201 c 0,0.0335 0.0067,0.0504 0.02017,0.0504 h 0.03018 c 0.02683,0 0.06033,-0.0301 0.100571,-0.0906 l -0.02017,-0.0201 h -0.09054 c -0.08719,0.0118 -0.13075,0.0285 -0.13075,0.0504 v 0.13075 c 0,0.0134 0.01337,0.0202 0.04021,0.0202 0.09222,0.0671 0.159335,0.10057 0.201255,0.10057 h 0.01002 c 0.01342,0 0.02348,-0.0201 0.03018,-0.0603 h 0.01012 c 0,0.0218 0.02012,0.0487 0.06036,0.0805 l -0.24146,0.0704 -0.100684,-0.0202 -0.01002,0.0102 -0.01002,0.27165 c 0,0.1073 0.02344,0.18105 0.07038,0.22129 h -0.01002 c -0.04695,0 -0.0705,0.0234 -0.0705,0.0704 l 0.02017,0.0603 c 0.06036,0.0553 0.09055,0.099 0.09055,0.13086 v 0.0102 l -0.01002,0.0102 -0.0705,-0.0301 h -0.01002 l -0.01002,0.0102 0.02005,0.14076 -0.03018,0.53327 v 0.12072 l 0.01012,0.0603 v 0.0102 l -0.05035,-0.02 c -0.01341,0 -0.02679,0.0469 -0.04021,0.14077 0,0.0218 0.01002,0.0454 0.03018,0.0705 -0.174387,0.0235 -0.26162,0.0537 -0.26162,0.0906 v 0.0102 c 0.114025,0.0134 0.207883,0.0335 0.281662,0.0603 v 0.0102 c -0.05198,0 -0.08547,0.0102 -0.100571,0.0302 l -0.05035,-0.0302 c -0.02851,0 -0.07538,0.0169 -0.140772,0.0504 v -0.0102 c 0,-0.0118 0.02344,-0.0252 0.07038,-0.0403 v -0.0102 c -0.03521,-0.006 -0.07214,-0.0235 -0.110711,-0.0504 h -0.03018 v 0.0202 c 0.02683,0.003 0.04032,0.0134 0.04032,0.0301 v 0.0301 l -0.03018,0.0102 -0.03018,-0.0102 v -0.0102 l 0.01002,-0.0102 v -0.0403 l -0.01002,-0.0102 -0.100684,0.0102 c -0.321946,0 -0.529789,-0.0772 -0.62369,-0.23144 l -0.08053,-0.25148 c -0.02011,0 -0.05031,0.0169 -0.09055,0.0504 h -0.01002 v -0.0202 c 0.0084,-0.0269 0.03856,-0.0403 0.09055,-0.0403 v -0.33201 c 0,-0.057 -0.0067,-0.10068 -0.02017,-0.13087 0.01342,0 0.02017,-0.0234 0.02017,-0.0704 v -0.0403 c 0,-0.0503 -0.02687,-0.10403 -0.08053,-0.16105 0.06707,0 0.100571,-0.0637 0.100571,-0.19111 l -0.03018,-0.28166 0.01012,-0.0603 -0.01012,-0.0102 c -0.02851,0 -0.07207,0.0135 -0.130751,0.0403 l -0.02017,-0.0201 c 0,-0.0419 0.03693,-0.0822 0.110706,-0.12073 l 0.06036,0.0102 c 0.02011,-0.062 0.03018,-0.11897 0.03018,-0.17095 v -0.0704 c -0.04192,-0.25486 -0.162649,-0.38222 -0.362187,-0.38222 z m 4.134978,0 -0.311963,0.0102 h -0.13075 l -0.12073,0.0102 v -0.0102 h -0.03018 c 0,0.0587 -0.03349,0.0922 -0.100572,0.10057 l -0.02016,-0.0502 -0.201255,0.10057 h -0.01002 l 0.01002,-0.0301 c 0,-0.0168 -0.02675,-0.0436 -0.08041,-0.0805 l 0.02005,-0.0301 v -0.0102 l -0.01002,0.0102 -0.39237,-0.0102 c -0.08887,0 -0.179419,0.0134 -0.271642,0.0403 -0.05366,0.0353 -0.08053,0.10232 -0.08053,0.20125 v 0.0403 c 0.0016,0.0335 0.0084,0.0504 0.02017,0.0504 0,0.0822 0.117413,0.12916 0.352165,0.14089 h 0.130753 c 0.231396,0 0.368932,0.0167 0.412529,0.0502 l -0.01012,1.0262 c 0,0.0972 0.01681,0.24154 0.05035,0.4327 -0.03353,0.0872 -0.05035,0.15761 -0.05035,0.21127 0,0.0788 0.03018,0.14581 0.09054,0.20114 h -0.04021 c -0.04024,0 -0.06036,0.0269 -0.06036,0.0805 v 0.0603 c 0,0.19282 0.100612,0.31687 0.301822,0.37221 h 0.04021 c 0.05869,0 0.122488,-0.0368 0.191233,-0.1106 l -0.02017,-0.0201 h -0.05035 l -0.13075,0.0504 h -0.01002 l 0.04021,-0.0504 c 0,-0.015 -0.01681,-0.0251 -0.05035,-0.0302 v -0.0102 h 0.03018 l 0.221415,0.02 c 0.03353,0 0.05022,-0.0503 0.05022,-0.15091 -0.0084,-0.052 -0.02177,-0.0888 -0.0402,-0.1106 0.02012,0 0.03018,-0.006 0.03018,-0.0201 v -0.12072 l -0.01002,-0.0102 -0.09055,0.02 c -0.02683,0 -0.04695,-0.0134 -0.06036,-0.0403 v -0.0102 h 0.01002 l 0.01002,0.0102 H 15.216 l 0.13075,-0.0402 v -1.7909 l 0.01002,0.0102 0.211278,-0.0302 c 0.06204,0 0.09897,-0.047 0.110708,-0.14089 0.04193,0.0301 0.122404,0.057 0.241458,0.0805 v 0.0102 c -0.05198,0 -0.08216,0.0134 -0.09055,0.0403 v 0.0102 l 0.02017,0.02 h 0.07038 c 0.134143,-0.003 0.201255,-0.02 0.201255,-0.0502 v -0.0102 h -0.06036 l -0.0705,0.0102 v -0.0102 h -0.02005 v -0.02 l 0.05022,-0.0102 0.150912,0.0403 c 0.08049,-0.0738 0.120731,-0.14422 0.120731,-0.21129 v -0.0301 c 0,-0.14085 -0.23803,-0.21128 -0.714238,-0.21128 z m 3.77279,0 c -0.129115,0 -0.202974,0.0838 -0.221418,0.25147 v 0.0202 l 0.04033,-0.0302 h 0.02005 v 0.02 c -0.02851,0 -0.04862,0.0135 -0.06036,0.0403 0,0.0134 0.02013,0.02 0.06036,0.02 v 0.0102 c 0,0.008 -0.03018,0.0218 -0.09054,0.0403 v 0.0102 c 0.06708,0.0102 0.110748,0.0236 0.130869,0.0403 0.09894,0.12073 0.155865,0.1811 0.170955,0.1811 h 0.02016 c 0.05366,-0.047 0.0939,-0.0705 0.120729,-0.0705 v 0.0201 c -0.0084,0.0805 -0.03856,0.12073 -0.09055,0.12073 l -0.04021,-0.0102 c -0.0939,-0.0201 -0.14089,-0.0839 -0.14089,-0.19124 h -0.09054 c -0.05366,0 -0.08053,0.0269 -0.08053,0.0805 0.03857,0.0369 0.06212,0.0939 0.0705,0.17108 -0.04695,0.0285 -0.0705,0.0721 -0.0705,0.13075 v 0.13076 c 0,0.0201 0.04367,0.0301 0.130868,0.0301 h 0.08041 c 0.07042,0 0.140853,-0.0102 0.211276,-0.0301 -0.03353,0.0537 -0.0939,0.0805 -0.181095,0.0805 h -0.01002 c -0.07042,0 -0.144165,-0.0169 -0.221298,-0.0504 l -0.01012,0.0102 0.01012,0.0906 -0.01012,0.6942 c 0.0151,0.22133 0.03521,0.332 0.06037,0.332 l 0.08053,-0.0202 c 0,0.0301 0.01002,0.0603 0.03018,0.0906 0.0939,0.0151 0.14089,0.0353 0.14089,0.0603 v 0.0302 l -0.03018,0.0301 -0.140889,-0.0301 c -0.02683,0.003 -0.04021,0.0134 -0.04021,0.0301 v 0.0102 c 0.06372,0.15426 0.107276,0.23143 0.13075,0.23143 h 0.02017 c 0.04695,-0.0403 0.09382,-0.0603 0.14077,-0.0603 h 0.03018 l 0.37233,0.0504 0.06036,-0.0102 0.04021,0.0603 v 0.0202 l -0.01002,0.0102 -0.03018,-0.02 c -0.167679,-0.0251 -0.2516,-0.0487 -0.2516,-0.0705 l -0.100561,0.0202 h -0.06037 l -0.110708,-0.0202 -0.06036,0.0504 c 0.1878,0.22804 0.459441,0.34204 0.814922,0.34204 0.182771,-0.006 0.290125,-0.0201 0.321985,-0.0403 0.204568,0 0.362228,-0.0269 0.472896,-0.0805 0.35548,-0.16097 0.536574,-0.58352 0.54328,-1.26765 v -0.34203 c 0,-0.0738 -0.02687,-0.11071 -0.08053,-0.11071 0.04695,-0.0385 0.07038,-0.10556 0.07038,-0.20114 0,-0.0738 -0.01002,-0.15426 -0.03018,-0.24146 h -0.06036 v 0.0102 l 0.03018,0.0403 v 0.0102 H 21.34305 l -0.02017,-0.0201 c 0.01002,-0.0218 0.06369,-0.0553 0.160933,-0.10057 v -0.0102 l -0.01002,-0.0102 0.05035,-0.14089 -0.02016,-0.0302 h -0.01002 l -0.01012,0.0102 c 0,0.0201 -0.0066,0.0301 -0.02005,0.0301 h -0.02017 c -0.02851,-0.0168 -0.04862,-0.0403 -0.06036,-0.0705 v -0.02 l 0.09055,0.0302 c 0.01002,0 0.02344,-0.0269 0.0402,-0.0805 0,-0.0268 -0.05031,-0.0403 -0.15091,-0.0403 l -0.211278,0.0102 c -0.02011,0 -0.03018,0.006 -0.03018,0.0202 v 0.0102 c 0,0.0102 0.02687,0.0301 0.08053,0.0603 l -0.03018,0.0301 -0.150911,-0.0906 0.03018,-0.0102 -0.05035,-0.0603 0.02016,-0.0201 c 0,0.0335 0.0067,0.0504 0.02016,0.0504 h 0.03018 c 0.02683,0 0.06032,-0.0301 0.100571,-0.0906 l -0.02017,-0.0201 h -0.09054 c -0.08719,0.0118 -0.130751,0.0285 -0.130751,0.0504 v 0.13075 c 0,0.0134 0.01337,0.0202 0.0402,0.0202 0.09222,0.0671 0.159335,0.10057 0.201255,0.10057 h 0.01002 c 0.01342,0 0.02348,-0.0201 0.03018,-0.0603 h 0.01012 c 0,0.0218 0.02012,0.0487 0.06036,0.0805 l -0.241457,0.0704 -0.100684,-0.0202 -0.01002,0.0102 -0.01002,0.27165 c 0,0.1073 0.02344,0.18105 0.07038,0.22129 h -0.01002 c -0.04695,0 -0.0705,0.0234 -0.0705,0.0704 l 0.02017,0.0603 c 0.06036,0.0553 0.09055,0.099 0.09055,0.13086 v 0.0102 l -0.01002,0.0102 -0.0705,-0.0301 h -0.01002 l -0.01002,0.0102 0.02005,0.14076 -0.03018,0.53327 v 0.12072 l 0.01012,0.0603 v 0.0102 l -0.05035,-0.02 c -0.01342,0 -0.02679,0.0469 -0.04021,0.14077 0,0.0218 0.01002,0.0454 0.03018,0.0705 -0.174385,0.0235 -0.261618,0.0537 -0.261618,0.0906 v 0.0102 c 0.114021,0.0134 0.207883,0.0335 0.281661,0.0603 v 0.0102 c -0.05198,0 -0.08548,0.0102 -0.100572,0.0302 l -0.05035,-0.0302 c -0.0285,0 -0.07538,0.0169 -0.140774,0.0504 v -0.0102 c 0,-0.0118 0.02345,-0.0252 0.07038,-0.0403 v -0.0102 c -0.03521,-0.006 -0.07214,-0.0235 -0.110706,-0.0504 h -0.03018 v 0.0202 c 0.02683,0.003 0.04032,0.0134 0.04032,0.0301 v 0.0301 l -0.03018,0.0102 -0.03018,-0.0102 v -0.0102 l 0.01002,-0.0102 v -0.0403 l -0.01002,-0.0102 -0.100684,0.0102 c -0.321944,0 -0.529788,-0.0772 -0.623688,-0.23144 l -0.08053,-0.25148 c -0.02011,0 -0.05031,0.0169 -0.09054,0.0504 h -0.01002 v -0.0202 c 0.0084,-0.0269 0.03856,-0.0403 0.09054,-0.0403 v -0.33201 c 0,-0.057 -0.0067,-0.10068 -0.02016,-0.13087 0.01342,0 0.02016,-0.0234 0.02016,-0.0704 v -0.0403 c 0,-0.0503 -0.02687,-0.10403 -0.08052,-0.16105 0.06707,0 0.100572,-0.0637 0.100572,-0.19111 l -0.03018,-0.28166 0.01012,-0.0603 -0.01012,-0.0102 c -0.0285,0 -0.07206,0.0135 -0.130751,0.0403 l -0.02016,-0.0201 c 0,-0.0419 0.03694,-0.0822 0.110709,-0.12073 l 0.06036,0.0102 c 0.02012,-0.062 0.03018,-0.11897 0.03018,-0.17095 v -0.0704 c -0.04192,-0.25486 -0.162647,-0.38222 -0.362187,-0.38222 z m -3.943864,0.0403 c -0.06036,0.16097 -0.124042,0.24146 -0.191113,0.24146 h -0.03018 v -0.0102 l 0.03018,-0.0102 -0.02017,-0.0603 c 0,-0.067 0.07042,-0.1207 0.211275,-0.16094 z m 7.490285,0 h 0.01002 l 0.100571,0.0301 v 0.0201 l -0.03018,0.0102 -0.100572,-0.0201 v -0.02 z m -9.743937,0.0202 c -0.04359,0 -0.07709,0.0201 -0.100571,0.0603 v 0.0301 h 0.02016 c 0.05198,0 0.08548,-0.0169 0.100572,-0.0504 v -0.0102 z m 7.907768,0 c -0.04359,0 -0.07709,0.0201 -0.100572,0.0603 v 0.0301 h 0.02017 c 0.05198,0 0.08548,-0.0169 0.100571,-0.0504 v -0.0102 z m -11.5749163,0.0302 h 0.080526 c 0.03353,0 0.053659,0.0102 0.060359,0.0301 v 0.02 c -0.010067,0.0268 -0.03349,0.0403 -0.070384,0.0403 h -0.070504 z m 13.5318123,0.0301 c 0.12073,0.0184 0.181094,0.0385 0.181094,0.0603 l -0.05035,0.0102 h -0.100571 l -0.03018,0.0202 0.01002,0.0502 v 0.0102 h -0.01002 l -0.01012,-0.0102 h -0.01002 l -0.06036,0.0202 v -0.0202 c 0.05366,-0.0553 0.08053,-0.0989 0.08053,-0.13074 z m -16.751181,0.0603 c 0.023475,0.0102 0.043594,0.0469 0.060359,0.1106 0,0.0268 -0.010067,0.0403 -0.030184,0.0403 H 6.276944 v -0.0102 l 0.010016,-0.0102 c 0,-0.047 -0.02012,-0.0704 -0.06036,-0.0704 v -0.0102 z m 8.677414,0 0.110591,0.0301 c 0,0.0335 -0.03018,0.0502 -0.09055,0.0502 h -0.02005 l 0.01002,-0.0502 h -0.06036 c 0,-0.0118 0.01681,-0.0218 0.05035,-0.0301 z m 7.258847,0 c 0.07042,0 0.124042,0.0167 0.160932,0.0502 l -0.13075,0.0603 h -0.02017 v -0.0102 l 0.04021,-0.0102 v -0.0201 c -0.01844,-0.0335 -0.03856,-0.0504 -0.06036,-0.0504 v -0.0102 z m 0.603646,0.0102 0.08041,0.0102 c -0.02514,0.0403 -0.05533,0.0603 -0.09054,0.0603 h -0.04021 v -0.0102 l 0.04021,-0.0102 -0.02005,-0.0301 v -0.0102 z m -6.79609,0.0504 0.03018,0.0102 c -0.04863,0.0537 -0.08556,0.0805 -0.110708,0.0805 l -0.04021,-0.0201 c 0.04192,-0.047 0.08216,-0.0704 0.12073,-0.0704 z m -1.428592,0.0704 c 0.03017,0.0134 0.04686,0.0268 0.05023,0.0403 v 0.0202 h -0.06036 c -0.04359,0.0335 -0.08041,0.0504 -0.110589,0.0504 h -0.01012 c 0.03018,-0.0738 0.07386,-0.11071 0.130869,-0.11071 z m -5.7397065,0.0704 h 0.030184 c 0,0.047 -0.04024,0.0705 -0.12073,0.0705 H 8.741894 c 0.030176,-0.047 0.063674,-0.0705 0.1005695,-0.0705 z m -2.3844018,0.0403 c 0.1156972,0 0.2095568,0.0102 0.2816595,0.0301 0.3554822,0.0838 0.5332614,0.21119 0.5332614,0.38223 0,0.0754 -0.04699,0.166 -0.1408892,0.27164 -0.1022842,0.0603 -0.19946,0.0906 -0.291685,0.0906 L 6.156231,281.82805 H 6.146215 v -0.72438 c 0.1190526,-0.0268 0.2229747,-0.0403 0.3118458,-0.0403 z m 3.1289368,0.02 h 0.010016 c 0.3303286,0 0.5650405,0.1644 0.7042135,0.49306 l 0.06036,-0.0202 h 0.02017 l -0.02017,0.12073 0.04032,0.5533 v 0.0603 l -0.02016,0.19122 c 0,0.0268 0.01337,0.0403 0.04021,0.0403 v 0.0102 c -0.114023,0.052 -0.170956,0.12915 -0.170956,0.23143 v 0.0301 l 0.01002,0.0102 c -0.154266,0.0889 -0.231436,0.16936 -0.231436,0.24147 l -0.040208,-0.02 c -0.1140222,0.0118 -0.1710731,0.052 -0.1710731,0.12073 -0.2666111,0 -0.5616868,-0.0973 -0.8853085,-0.29181 l 0.020168,-0.0704 v -0.0102 L 8.872626,282.60343 8.5506407,282.704 h -0.010016 c 0.083841,-0.0805 0.1610116,-0.12073 0.2314377,-0.12073 h 0.070384 l 0.010016,-0.0102 c -0.046949,-0.16935 -0.070384,-0.32702 -0.070384,-0.4729 0,-0.15427 0.026869,-0.31192 0.080526,-0.4729 0.1257611,-0.36218 0.3672202,-0.54327 0.7243749,-0.54327 z m 5.3975645,0.0603 c 0.04695,0 0.07038,0.0201 0.07038,0.0603 l -0.02003,0.0504 0.01002,0.0102 c 0.114023,0.0168 0.171074,0.0403 0.171074,0.0704 l -0.02017,0.02 c -0.04863,-0.047 -0.115738,-0.0704 -0.201255,-0.0704 l 0.02017,-0.0301 -0.03018,-0.10058 z M 3.9378296,281.2547 h 0.010016 c 0.02012,0.0804 0.050304,0.12073 0.090548,0.12073 l -0.010016,0.0504 v 0.0302 c 0,0.0519 0.033498,0.0956 0.1005654,0.13074 v 0.11071 l 0.020169,0.12073 c 0.1475576,0.36722 0.2212981,0.56501 0.2212981,0.5935 H 3.5354434 l 0.010016,-0.0502 c 0.1408507,-0.33033 0.211276,-0.53829 0.211276,-0.62381 v -0.0906 l -0.010016,-0.0102 c 0.067069,-0.0251 0.1005684,-0.0588 0.1005684,-0.10068 v -0.0102 l -0.010016,-0.0102 -0.06036,0.0502 0.020055,-0.0603 c 0.051977,0 0.098969,-0.0838 0.1408893,-0.25148 z m 3.7174953,0.0201 c 0.026829,0 0.043513,0.0268 0.050223,0.0803 l -0.050223,-0.0102 h -0.030184 c -0.045267,0.0335 -0.078886,0.0504 -0.1006849,0.0504 H 7.51444 v -0.0302 c 0.093902,-0.0251 0.1408917,-0.0553 0.1408917,-0.0906 z m 5.5886781,0.0301 c 0.05198,0 0.08216,0.0134 0.09055,0.0403 -0.04695,0 -0.07038,0.0134 -0.07038,0.0403 v 0.0102 l -0.06036,-0.0202 c -0.02514,0.0201 -0.04858,0.0301 -0.07038,0.0301 h -0.01012 c 0,-0.047 0.04025,-0.0804 0.12073,-0.10057 z m 7.907765,0 c 0.05198,0 0.08216,0.0134 0.09054,0.0403 -0.04695,0 -0.07038,0.0134 -0.07038,0.0403 v 0.0102 l -0.06036,-0.0202 c -0.02515,0.0201 -0.04859,0.0301 -0.07038,0.0301 h -0.01012 c 0,-0.047 0.04024,-0.0804 0.120726,-0.10057 z m -10.639264,0.0906 0.140891,0.02 v 0.0102 l -0.140891,0.0502 -0.100572,-0.0403 c 0,-0.0218 0.03349,-0.0352 0.100572,-0.0403 z m 4.45189,0.0102 h 0.01012 l 0.170955,0.0805 c -0.0034,0.0134 -0.02003,0.0268 -0.05022,0.0403 l -0.110709,-0.0202 0.01002,-0.0502 v -0.0202 c 0,-0.0134 -0.01002,-0.0201 -0.03018,-0.0201 z m -1.468793,0.0403 0.05022,0.0102 v 0.02 l -0.01002,0.0102 -0.02017,-0.0202 c -0.03018,0.0268 -0.05693,0.0403 -0.08041,0.0403 h -0.03018 l -0.01012,-0.0102 c 0.02011,-0.0335 0.05374,-0.0504 0.100684,-0.0504 z m 7.907766,0 0.05023,0.0102 v 0.02 l -0.01002,0.0102 -0.02016,-0.0202 c -0.03018,0.0268 -0.05693,0.0403 -0.08041,0.0403 h -0.03018 l -0.01012,-0.0102 c 0.02011,-0.0335 0.05374,-0.0504 0.100684,-0.0504 z m -13.8789109,0.0704 h 0.040321 c 0.016765,0.0335 0.053578,0.0502 0.1105903,0.0502 l -0.010016,0.0301 H 7.635167 C 7.599955,281.5699 7.569771,281.5564 7.544621,281.5564 H 7.504413 v -0.0202 z m -0.040207,0.0704 c 0.046949,0.0102 0.070384,0.047 0.070384,0.11071 -0.050304,0.0268 -0.097176,0.0402 -0.1407734,0.0402 h -0.010129 v -0.0201 c 0.04024,0 0.067109,-0.0435 0.080526,-0.13075 z m 7.4902819,0.0504 0.140773,0.0502 v 0.0102 l -0.100572,0.02 h -0.01002 v -0.0102 h 0.02005 v -0.0202 c 0,-0.0201 -0.02012,-0.0301 -0.06036,-0.0301 v -0.0102 z m 7.369435,0.0603 h 0.01012 c 0.04192,0 0.112345,0.0302 0.211277,0.0906 -0.07042,0.0603 -0.147597,0.0906 -0.231438,0.0906 -0.09222,0 -0.162648,-0.0236 -0.211276,-0.0705 l 0.03018,-0.0301 0.261619,0.0403 0.02005,-0.0201 v -0.0301 l -0.02005,-0.0301 c -0.05701,0 -0.100684,0.006 -0.130869,0.0202 v -0.0102 h -0.02005 v -0.02 c 0.005,-0.0201 0.03179,-0.0301 0.08041,-0.0301 z m -7.329231,0.0906 h 0.03018 l 0.171073,0.0803 v 0.0403 l -0.01012,0.0102 -0.08041,-0.0202 -0.02017,0.0202 c -0.06036,-0.0319 -0.09055,-0.0721 -0.09055,-0.12073 z m 8.053607,0.0803 0.04032,0.0102 v 0.02 l -0.03018,0.0301 h -0.09054 c -0.01676,0 -0.02684,0.0135 -0.03018,0.0403 h -0.02017 l -0.01002,-0.0102 0.01002,-0.0403 c 0,-0.0218 0.04355,-0.0386 0.13075,-0.0504 z M 8.2991727,281.879 h 0.010016 c 0.051985,0.047 0.08891,0.0704 0.110707,0.0704 v 0.0102 l -0.010016,0.0102 -0.1408893,-0.0504 c 0.010067,-0.0268 0.020119,-0.0403 0.030184,-0.0403 z m -1.2374757,0.0803 h 0.030184 c 0,0.047 -0.036925,0.0704 -0.1107078,0.0704 h -0.020056 c 0.030175,-0.047 0.063674,-0.0704 0.1005684,-0.0704 z m 4.16009,0 h 0.02016 c 0.06875,0 0.115741,0.0301 0.140892,0.0906 l -0.01012,0.0603 h -0.05022 c -0.06707,-0.052 -0.100684,-0.10229 -0.100684,-0.15092 z m 7.907763,0 h 0.02017 c 0.06875,0 0.115738,0.0301 0.140889,0.0906 l -0.01012,0.0603 h -0.05023 c -0.06707,-0.052 -0.100684,-0.10229 -0.100684,-0.15092 z m 3.687313,0.0201 h 0.02016 l 0.12073,0.0202 v 0.0102 c 0,0.0201 -0.02687,0.0334 -0.08053,0.0403 -0.04024,0 -0.06711,-0.0201 -0.08053,-0.0603 h 0.01012 z m 0.553303,0.0102 h 0.0705 v 0.0102 l -0.01012,0.0102 v 0.0102 l 0.01012,0.0102 c 0.03353,0.002 0.05022,0.008 0.05022,0.02 l 0.01012,0.0102 v 0.0403 h -0.191233 v -0.0603 l 0.0705,-0.0201 v -0.0102 l -0.01012,-0.0102 z m -14.7893314,0.0102 h 0.010129 l 0.080407,0.0704 -0.020056,0.0202 H 8.5406063 l -0.010016,-0.0102 0.010016,-0.0301 c 0.026829,-0.0184 0.040208,-0.0352 0.040208,-0.0502 z m 14.0951374,0.0704 c 0.107317,0.0301 0.161051,0.0535 0.161051,0.0704 v 0.0301 h -0.150912 l -0.06036,-0.02 0.05023,-0.0704 z m 0.593625,0.0603 -0.01002,0.0504 v 0.0403 h -0.03018 l -0.06036,-0.0201 c 0.02683,-0.0353 0.06032,-0.0587 0.100571,-0.0704 z m 0.281663,0 c 0.03186,0.0335 0.06204,0.0504 0.09055,0.0504 v 0.0102 l -0.03018,0.0301 h -0.06036 v -0.0504 l -0.02005,-0.02 z m -10.126165,0.0202 h 0.100684 l 0.01002,0.0102 c -0.005,0.0201 -0.01842,0.0334 -0.04021,0.0403 -0.06036,0 -0.09055,-0.0134 -0.09055,-0.0403 h 0.01002 z m 7.907764,0 h 0.100684 l 0.01002,0.0102 c -0.005,0.0201 -0.01842,0.0334 -0.04021,0.0403 -0.06037,0 -0.09055,-0.0134 -0.09055,-0.0403 h 0.01002 z m 2.027286,0 0.100572,0.0102 c 0,0.0436 -0.02013,0.0738 -0.06036,0.0906 -0.01677,0 -0.0369,-0.0269 -0.06036,-0.0805 z m -11.645304,0.0603 h 0.02005 v 0.0102 h -0.02005 z m 7.907767,0 h 0.02005 v 0.0102 h -0.02005 z m -13.4764035,0.0603 h 0.5834864 c 0.2448122,0 0.4427138,0.0469 0.5936253,0.14076 0.00837,0 0.015011,0.0973 0.020056,0.29181 l -0.040207,0.21127 c -0.083837,0.11739 -0.3286104,0.17774 -0.7343955,0.1811 H 6.146216 Z m -2.409633,0.20113 h 0.020168 c -0.040248,0.0353 -0.060359,0.0722 -0.060359,0.1107 -0.021785,0 -0.045236,-0.0102 -0.070384,-0.0301 0.026829,-0.0537 0.063642,-0.0805 0.1105888,-0.0805 z m 11.1976395,0.0102 h 0.05035 c 0.03856,0.0537 0.06543,0.0803 0.08053,0.0803 l -0.03018,0.0301 c -0.03521,0 -0.07546,-0.0134 -0.12073,-0.0403 z m 0.16105,0.21128 0.100572,0.0102 -0.02017,0.0403 -0.100561,-0.0102 z m -9.0497405,0.14077 h 0.06036 l -0.010016,0.0301 v 0.0102 l 0.010016,0.0102 -0.030184,0.0102 -0.060367,-0.0102 -0.060359,0.0102 c 0.016773,-0.0403 0.046949,-0.0603 0.090548,-0.0603 z m 8.8585085,0 h 0.171073 v 0.0301 c -0.08049,0 -0.120731,0.0169 -0.120731,0.0504 -0.02179,-0.0335 -0.04866,-0.0504 -0.08053,-0.0504 z m -4.572621,0.40251 h 0.05035 l 0.02017,0.02 v 0.0301 h -0.02017 l -0.08053,-0.02 h -0.02005 l -0.01012,0.0102 v -0.0102 c 0,-0.0168 0.02011,-0.0268 0.06036,-0.0302 z m -9.4017901,0.37221 h 0.0805257 v 0.0102 l -0.12072998,0.0805 c -0.0134187,-0.003 -0.0267894,-0.0202 -0.0402,-0.0504 0,-0.0268 0.0267485,-0.0403 0.0804071,-0.0403 z m 13.8134771,0.18109 c 0.107314,0.0403 0.160934,0.0705 0.160934,0.0906 v 0.0102 h -0.01002 l -0.08053,-0.0301 -0.03018,0.0301 c -0.01846,-0.003 -0.03183,-0.0301 -0.0402,-0.0804 z m 9.66836,0.0201 h 0.02016 c 0.02185,0.0191 0.0414,0.0356 0.05931,0.0501 -0.08638,-0.0102 -0.12969,-0.0234 -0.12969,-0.0401 z m -9.909819,0.0403 h 0.01002 c -0.0285,0.0519 -0.05194,0.0822 -0.07038,0.0906 h -0.01002 l -0.03018,-0.0202 c 0,-0.0251 0.0335,-0.0485 0.100572,-0.0704 z m 8.898712,0.0102 h 0.02017 v 0.0102 c -0.02683,0 -0.04021,0.006 -0.04021,0.02 v 0.0102 l 0.01002,0.0102 0.06036,-0.0301 h 0.02017 c -0.02515,0.047 -0.0487,0.0704 -0.0705,0.0704 h -0.02005 c 0,-0.0251 -0.01348,-0.0385 -0.04032,-0.0403 v -0.0102 c 0,-0.0134 0.02011,-0.027 0.06036,-0.0403 z m 1.095172,0.004 c 0.05511,0.0445 0.09097,0.0668 0.107171,0.0668 v 0.0102 l -0.100684,0.0202 h -0.05022 c -0.04862,0 -0.07549,-0.0102 -0.08053,-0.0301 v -0.0302 l 0.02016,-0.0201 h 0.01002 l 0.05035,0.0504 0.05022,-0.0403 v -0.02 z m -6.34937,0.0164 0.03018,0.0102 c 0.02852,0.10563 0.05538,0.16944 0.08053,0.19123 v 0.0102 h -0.04032 l -0.221298,-0.0603 h -0.02016 v -0.0301 l 0.01012,-0.0102 0.07038,0.02 0.03018,-0.0102 -0.02017,-0.0805 c 0,-0.0134 0.02687,-0.0268 0.08053,-0.0402 z m -11.5773911,0.0504 h 0.010016 c 0.00338,0.0603 0.016725,0.0906 0.040207,0.0906 v 0.02 l -0.040207,0.0102 c -0.02012,-0.005 -0.030184,-0.0319 -0.030184,-0.0805 v -0.0202 z m 2.6560418,0.0102 v 0.0202 c -0.016765,0.0335 -0.043635,0.0502 -0.080525,0.0502 h -0.020169 v -0.0301 c 0,-0.0168 0.033611,-0.0301 0.100685,-0.0402 z m 5.2566753,0.1107 h 0.02017 c 0.07377,0 0.110707,0.0102 0.110707,0.0301 v 0.0102 c 0,0.0118 -0.01681,0.0218 -0.05035,0.0301 -0.07377,-0.0118 -0.110709,-0.025 -0.110709,-0.0403 z"
       id="path5241"
       inkscape:connector-curvature="0" />
  </g>
</svg>
