<?xml version="1.0" encoding="UTF-8" standalone="no"?>
<!-- Created with Inkscape (http://www.inkscape.org/) -->

<svg
   xmlns:dc="http://purl.org/dc/elements/1.1/"
   xmlns:cc="http://creativecommons.org/ns#"
   xmlns:rdf="http://www.w3.org/1999/02/22-rdf-syntax-ns#"
   xmlns:svg="http://www.w3.org/2000/svg"
   xmlns="http://www.w3.org/2000/svg"
   xmlns:xlink="http://www.w3.org/1999/xlink"
   xmlns:sodipodi="http://sodipodi.sourceforge.net/DTD/sodipodi-0.dtd"
   xmlns:inkscape="http://www.inkscape.org/namespaces/inkscape"
   width="100"
   height="100"
   viewBox="0 0 26.458333 26.458333"
   version="1.1"
   id="svg5379"
   inkscape:version="0.92.0 r15299"
   sodipodi:docname="airborne_icon.svg">
  <defs
     id="defs5373">
    <linearGradient
       inkscape:collect="always"
       xlink:href="#linearGradient4595"
       id="linearGradient4597-7"
       x1="887.80212"
       y1="-220.30157"
       x2="887.80212"
       y2="-276.95328"
       gradientUnits="userSpaceOnUse"
       gradientTransform="matrix(0.0536115,0,0,0.05599781,-36.595955,286.19793)" />
    <linearGradient
       inkscape:collect="always"
       id="linearGradient4595">
      <stop
         style="stop-color:#ffcc00;stop-opacity:1;"
         offset="0"
         id="stop4591" />
      <stop
         style="stop-color:#ffcc00;stop-opacity:0;"
         offset="1"
         id="stop4593" />
    </linearGradient>
  </defs>
  <sodipodi:namedview
     id="base"
     pagecolor="#ffffff"
     bordercolor="#666666"
     borderopacity="1.0"
     inkscape:pageopacity="0.0"
     inkscape:pageshadow="2"
     inkscape:zoom="7.9195959"
     inkscape:cx="69.140174"
     inkscape:cy="36.872292"
     inkscape:document-units="px"
     inkscape:current-layer="layer1"
     showgrid="false"
     units="px"
     width="100px"
     inkscape:pagecheckerboard="true"
     inkscape:window-width="2560"
     inkscape:window-height="1377"
     inkscape:window-x="-8"
     inkscape:window-y="-8"
     inkscape:window-maximized="1" />
  <metadata
     id="metadata5376">
    <rdf:RDF>
      <cc:Work
         rdf:about="">
        <dc:format>image/svg+xml</dc:format>
        <dc:type
           rdf:resource="http://purl.org/dc/dcmitype/StillImage" />
        <dc:title></dc:title>
      </cc:Work>
    </rdf:RDF>
  </metadata>
  <g
     inkscape:label="Layer 1"
     inkscape:groupmode="layer"
     id="layer1"
     transform="translate(0,-270.54167)">
    <path
       style="fill:#1f1f1f;stroke-width:0.0363475"
       d="m 7.6500341,288.28116 c -0.3570223,-0.0556 -0.6737229,-0.15829 -0.8285092,-0.2685 -0.1054841,-0.0751 -0.1080299,-0.0752 -0.2653404,-0.008 -0.2385082,0.10223 -0.5079956,0.15025 -0.8433381,0.15025 -0.3501493,0 -0.5907452,-0.0628 -0.77288,-0.20172 -0.1323918,-0.10098 -0.2647823,-0.33712 -0.2662132,-0.47484 -7.727e-4,-0.0747 -0.014996,-0.0767 -0.5187504,-0.0737 -0.5650527,0.003 -0.7940235,-0.0419 -1.1300203,-0.22373 -0.1901397,-0.10292 -0.4985167,-0.41609 -0.5710312,-0.57991 -0.034177,-0.0772 -0.1303535,-0.14251 -0.4014705,-0.27258 -0.7216695,-0.34625 -1.08825622,-0.90279 -0.9410317,-1.42862 0.044437,-0.15871 0.042758,-0.16795 -0.040706,-0.22387 -0.18846581,-0.1263 -0.4610974,-0.44272 -0.57109123,-0.66284 -0.17446286,-0.34913 -0.14775517,-0.73748 0.0663961,-0.96543 0.0686499,-0.0731 0.0684048,-0.0765 -0.0182711,-0.25764 -0.47206648,-0.98639 -0.36984471,-2.60751 0.22640013,-3.59045 0.3098112,-0.51074 0.7602418,-0.90256 1.2138573,-1.0559 0.1761856,-0.0596 0.2147966,-0.0898 0.2771599,-0.21761 0.2009091,-0.41151 0.6708093,-0.85925 1.0522795,-1.00265 0.3009917,-0.11314 0.6278423,-0.0921 0.8671004,0.0558 l 0.1753691,0.10842 0.165594,-0.16476 c 0.5025138,-0.49999 1.425848,-0.84925 1.9346454,-0.73181 0.3734694,0.0862 0.5726346,0.34275 0.6038663,0.77784 0.00969,0.13494 0.019503,0.24516 0.021817,0.24492 0.00232,-2.4e-4 0.094163,-0.0246 0.2041138,-0.054 0.395881,-0.10627 0.8323374,-0.0427 1.0719089,0.15608 l 0.1087008,0.0902 0.1272513,-0.15949 c 0.8599045,-1.07775 2.2450413,-1.71591 4.0288793,-1.8562 1.494986,-0.11759 3.063987,0.24693 4.17221,0.96931 0.354892,0.23133 0.923054,0.7785 1.104419,1.06362 0.06676,0.10495 0.133004,0.19082 0.147203,0.19082 0.0142,0 0.04626,-0.0493 0.07125,-0.10969 0.06235,-0.15053 0.271079,-0.3071 0.500055,-0.3751 0.188459,-0.0559 0.41809,-0.0472 0.849129,0.0323 l 0.131812,0.0244 0.01477,-0.23192 c 0.04983,-0.78248 0.765413,-1.00384 1.737736,-0.53755 0.348255,0.16701 0.652197,0.38092 0.827953,0.5827 l 0.11802,0.1355 0.209108,-0.11436 c 0.449246,-0.24572 0.954676,-0.11058 1.442393,0.38564 0.156997,0.15973 0.30755,0.35808 0.38426,0.50625 0.118967,0.22977 0.13768,0.2478 0.329631,0.3178 0.818782,0.29853 1.422415,1.16662 1.615916,2.32385 0.125482,0.75044 0.0278,1.69725 -0.234875,2.27656 l -0.108138,0.2385 0.104664,0.16503 c 0.05757,0.0907 0.115399,0.22859 0.128521,0.30626 0.05568,0.32958 -0.234068,0.87483 -0.619566,1.16588 -0.173239,0.13079 -0.192267,0.15757 -0.157769,0.22203 0.07491,0.13998 0.04702,0.48732 -0.05605,0.698 -0.169426,0.34629 -0.683107,0.76284 -1.069617,0.86734 -0.128545,0.0348 -0.171602,0.0693 -0.230483,0.18469 -0.10639,0.20854 -0.402263,0.48698 -0.626606,0.58969 -0.378316,0.1732 -0.898416,0.23432 -1.393772,0.1638 -0.185678,-0.0265 -0.19239,-0.0244 -0.212376,0.0663 -0.04443,0.20142 -0.0618,0.24312 -0.150516,0.36147 -0.05222,0.0697 -0.179786,0.16346 -0.295648,0.2174 -0.180464,0.084 -0.247498,0.0946 -0.585448,0.0925 -0.325406,-0.002 -0.429233,-0.0185 -0.704542,-0.11217 l -0.322894,-0.10985 -0.154327,0.0862 c -0.198731,0.11107 -0.437748,0.17984 -0.792719,0.22806 -0.394721,0.0536 -0.600968,0.0483 -0.802862,-0.0204 -0.160297,-0.0546 -0.190045,-0.0545 -0.397211,10e-4 -0.1891,0.0508 -0.280481,0.0543 -0.587412,0.0228 -1.125462,-0.11584 -1.747308,-0.24409 -2.130636,-0.43942 -0.08759,-0.0446 -0.330998,-0.19887 -0.540905,-0.34276 -0.209907,-0.14388 -0.399983,-0.27201 -0.422392,-0.28474 -0.02444,-0.0138 -0.17558,0.18014 -0.377753,0.48496 -0.185356,0.27947 -0.355119,0.50772 -0.377253,0.50724 -0.02214,-4.3e-4 -0.145024,-0.22538 -0.273089,-0.49978 -0.128066,-0.2744 -0.243233,-0.51102 -0.255927,-0.52584 -0.01269,-0.0148 -0.210507,0.12156 -0.439582,0.30306 -0.229076,0.18148 -0.481928,0.3682 -0.561892,0.41493 -0.350002,0.20451 -1.014475,0.34467 -1.9896291,0.41969 -0.509645,0.0392 -0.5955597,0.0374 -0.7872637,-0.0163 -0.1945031,-0.0545 -0.2303528,-0.0551 -0.3729588,-0.005 -0.1886693,0.0658 -0.4133441,0.0658 -0.8336163,2.9e-4 z m 0.3463628,-0.34329 c 0.2722173,-0.0936 0.6283549,-0.35009 0.8193364,-0.58995 l 0.152101,-0.19103 -0.095833,-0.0824 c -0.052708,-0.0453 -0.1254277,-0.0824 -0.1615993,-0.0824 -0.085149,0 -0.2573072,-0.13552 -0.2573072,-0.20255 0,-0.0684 -0.052103,-0.066 -0.1110646,0.005 -0.025999,0.0314 -0.1947662,0.15798 -0.3750393,0.28146 -0.4216596,0.2888 -0.6617158,0.52895 -0.71863,0.71891 -0.036958,0.12335 -0.035675,0.15331 0.00774,0.18079 0.093909,0.0595 0.5210424,0.0376 0.7402921,-0.0378 z m 1.6792104,-0.0562 c 0.1725417,-0.10112 0.4260797,-0.40986 0.5697057,-0.69376 l 0.09401,-0.18582 -0.3879096,-0.11192 c -0.2133498,-0.0616 -0.3899944,-0.10878 -0.3925436,-0.10495 -0.00254,0.004 -0.1310351,0.24843 -0.2855247,0.54355 l -0.2808901,0.53659 0.1574029,0.0729 c 0.1849511,0.0856 0.3051872,0.0727 0.5257484,-0.0566 z m 9.4591097,0.10543 c 0.09386,-0.0187 0.113586,-0.0399 0.113586,-0.12175 0,-0.21238 -0.203308,-0.4297 -0.843116,-0.90124 -0.31915,-0.23522 -0.354619,-0.25282 -0.375667,-0.1865 -0.01278,0.0403 -0.08319,0.0985 -0.156442,0.12938 -0.416479,0.1756 -0.418074,0.19175 -0.05436,0.55052 0.435611,0.42968 0.89375,0.61404 1.316,0.52959 z m -1.793491,-0.10264 c 0.06933,-0.029 0.126049,-0.0619 0.126049,-0.0732 0,-0.0218 -0.507525,-1.04512 -0.530769,-1.07021 -0.0162,-0.0174 -0.77774,0.18095 -0.77774,0.20266 0,0.045 0.174835,0.35003 0.310036,0.54088 0.279324,0.39427 0.568519,0.52683 0.872424,0.39985 z m -11.0022503,-0.1453 c 0.1332225,-0.0453 0.3321829,-0.12775 0.4421343,-0.1832 0.2336369,-0.11779 0.6179074,-0.3799 0.6179074,-0.42147 0,-0.0158 -0.1659768,-0.11976 -0.3688376,-0.231 -0.3253124,-0.17838 -0.3931935,-0.20224 -0.5752245,-0.20224 -0.1754065,0 -0.2196129,0.0141 -0.2945041,0.0944 -0.1329915,0.14258 -0.3774683,0.2513 -0.7605461,0.33823 -0.1899161,0.0431 -0.367961,0.0924 -0.3956556,0.10972 -0.1504594,0.0936 0.1941107,0.51372 0.4754283,0.57956 0.2130824,0.0498 0.567556,0.0152 0.8592979,-0.084 z m 14.7004353,0.0866 c 0.21221,-0.0589 0.498785,-0.34733 0.498785,-0.50196 0,-0.0381 -0.208288,-0.11203 -0.57938,-0.20567 -0.293319,-0.074 -0.472439,-0.1645 -0.606286,-0.30632 -0.09341,-0.099 -0.127049,-0.11064 -0.318611,-0.11064 -0.188233,0 -0.257591,0.023 -0.572591,0.1898 -0.197128,0.10439 -0.358415,0.20135 -0.358415,0.21548 0,0.0472 0.124997,0.15162 0.375827,0.31393 0.550864,0.35646 1.163647,0.51563 1.560671,0.40538 z m -9.915115,-0.12292 c 0.270051,-0.15826 0.454684,-0.52305 0.454684,-0.89834 0,-0.24663 -0.05388,-0.29698 -0.215577,-0.20146 -0.08748,0.0516 -0.109875,0.0522 -0.201268,0.005 -0.05656,-0.0294 -0.105402,-0.049 -0.108538,-0.0436 -0.0031,0.005 -0.152,0.23759 -0.330807,0.51609 -0.178807,0.27851 -0.330246,0.51882 -0.33653,0.53406 -0.0063,0.0152 0.05096,0.0606 0.127216,0.10085 0.193349,0.10203 0.42357,0.0974 0.61082,-0.0123 z m 4.80239,-0.0429 c 0.06832,-0.0324 0.13351,-0.074 0.144878,-0.0924 0.01137,-0.0183 -0.09281,-0.21677 -0.231503,-0.44083 -0.138692,-0.22407 -0.282634,-0.46056 -0.31987,-0.52553 -0.07517,-0.13118 -0.09377,-0.13807 -0.1975,-0.0733 -0.05915,0.037 -0.09371,0.033 -0.196324,-0.0222 -0.0685,-0.0369 -0.142282,-0.0562 -0.163975,-0.0427 -0.02257,0.0139 -0.03944,0.1387 -0.03944,0.29166 0,0.23073 0.01626,0.29879 0.118901,0.49763 0.206437,0.39993 0.558914,0.56233 0.884835,0.40767 z m -3.548061,-0.91982 c 0,-0.0637 -0.05282,-0.16899 -0.140247,-0.27957 -0.07714,-0.0976 -0.164911,-0.22514 -0.195054,-0.28349 l -0.05481,-0.10608 -0.06453,0.0984 c -0.126085,0.19243 -0.135916,0.61094 -0.02129,0.90643 l 0.03962,0.10214 0.218156,-0.16787 c 0.17509,-0.13473 0.218156,-0.18804 0.218156,-0.27004 z m 10.771421,0.25804 c 0.103212,-0.0456 0.195388,-0.12015 0.240767,-0.19459 0.10519,-0.17253 0.09459,-0.2387 -0.04433,-0.27675 -0.06497,-0.0177 -0.386982,-0.10377 -0.715581,-0.19104 -0.383463,-0.10185 -0.630173,-0.18683 -0.688808,-0.23727 -0.0844,-0.0726 -0.102559,-0.0749 -0.238541,-0.0308 -0.08095,0.0263 -0.2651,0.0819 -0.409219,0.12363 -0.353477,0.10222 -0.48309,0.21347 -0.48309,0.41461 v 0.15283 l 0.190824,0.0419 c 0.104954,0.0231 0.375362,0.0843 0.600906,0.13617 0.799515,0.18378 1.231381,0.20087 1.547071,0.0613 z m -8.488796,-0.44527 c 0.01203,-0.24109 0.0021,-0.33797 -0.04403,-0.42708 -0.07257,-0.14033 -0.111979,-0.14663 -0.122493,-0.0197 -0.0043,0.0526 -0.08153,0.19471 -0.171491,0.31577 -0.08996,0.12107 -0.163575,0.24838 -0.163575,0.28291 0,0.0345 0.08497,0.13044 0.188831,0.21313 l 0.188829,0.15035 0.05419,-0.10183 c 0.03079,-0.0579 0.06091,-0.23643 0.06975,-0.41364 z m -9.6429937,0.33431 c 0.2798756,-0.0626 0.5456667,-0.1222 0.5906468,-0.13244 0.065115,-0.0148 0.081782,-0.0438 0.081782,-0.1422 0,-0.17394 -0.027398,-0.22717 -0.1580832,-0.30718 -0.1247555,-0.0764 -0.7671167,-0.29483 -0.8669275,-0.29484 -0.033992,0 -0.076121,0.0256 -0.093622,0.0568 -0.021006,0.0375 -0.287279,0.11947 -0.7832772,0.24107 -0.7054253,0.17292 -0.7514566,0.18931 -0.7514566,0.26748 0,0.11505 0.1677069,0.30353 0.3437972,0.38637 0.230051,0.10823 0.9688591,0.0743 1.6371415,-0.0751 z m 2.9128246,-0.20421 c 0.011506,-0.03 0.1717025,-0.16735 0.3559955,-0.30526 0.3807494,-0.28493 0.5294936,-0.4441 0.5294936,-0.5666 0,-0.0773 -0.023328,-0.0884 -0.2635193,-0.1255 -0.1449359,-0.0224 -0.3069361,-0.0477 -0.3600008,-0.0562 -0.079149,-0.0127 -0.127581,0.0185 -0.2695883,0.17372 -0.095208,0.10407 -0.3118693,0.3326 -0.4814694,0.50784 -0.1695998,0.17525 -0.3018091,0.32474 -0.2937987,0.33222 0.016623,0.0155 0.5084347,0.082 0.660874,0.0894 0.059875,0.003 0.1096251,-0.0173 0.1220134,-0.0496 z m 11.3953261,-0.0488 c 0.01297,-0.0131 -0.187052,-0.25343 -0.444494,-0.5339 l -0.468078,-0.50996 -0.326294,0.0374 c -0.179463,0.0207 -0.345338,0.0566 -0.368614,0.08 -0.07586,0.0762 0.074,0.30571 0.328278,0.50266 0.129045,0.1 0.308965,0.25194 0.399823,0.33776 l 0.165193,0.15601 0.345301,-0.0231 c 0.189917,-0.0126 0.355915,-0.0338 0.368885,-0.0469 z m -10.0804533,-0.0203 c 0.1626828,-0.0841 0.697389,-0.69797 0.697389,-0.80061 0,-0.0404 -0.1855036,-0.0199 -0.2647981,0.0292 -0.044277,0.0275 -0.2986713,0.16828 -0.565321,0.31299 l -0.4848177,0.26312 0.1193858,0.12318 c 0.095023,0.0981 0.1479702,0.12318 0.2594511,0.12318 0.077036,0 0.1844553,-0.023 0.2387109,-0.051 z m 1.1622683,-0.0185 c 0.170161,-0.0877 0.342017,-0.26795 0.443572,-0.46521 0.09567,-0.18582 0.08461,-0.28669 -0.03006,-0.27418 -0.04501,0.005 -0.137833,-0.0144 -0.206279,-0.0431 l -0.124448,-0.052 -0.225618,0.21535 c -0.3636045,0.34707 -0.4241103,0.4775 -0.2857039,0.61591 0.091826,0.0918 0.2542199,0.093 0.4285319,0.003 z m 7.332261,-0.0813 c 0.07169,-0.063 0.11724,-0.12675 0.10122,-0.1418 -0.01602,-0.015 -0.274068,-0.16799 -0.573442,-0.33989 -0.469666,-0.26969 -0.709673,-0.36857 -0.709673,-0.29239 0,0.0111 0.06775,0.11994 0.150557,0.24188 0.418227,0.61586 0.744367,0.78417 1.031338,0.5322 z m -1.218243,0.005 c 0.136107,-0.13611 0.08915,-0.24025 -0.276837,-0.614 l -0.222315,-0.22703 -0.129794,0.0542 c -0.07138,0.0299 -0.161276,0.046 -0.199755,0.0359 -0.173902,-0.0455 -0.105875,0.24142 0.123667,0.52154 0.227766,0.27797 0.551196,0.38316 0.705034,0.22932 z m -9.4752548,-0.41112 c 0.2279148,-0.15372 0.4321072,-0.27948 0.4537611,-0.27948 0.021654,0 0.048851,-0.0153 0.060438,-0.0341 0.025913,-0.0419 -0.2788809,-0.25669 -0.3643037,-0.25669 -0.079732,0 -1.1765081,0.66054 -1.1779651,0.70944 -0.00266,0.0896 0.1984783,0.16526 0.4062438,0.15277 0.1896091,-0.0113 0.2430484,-0.0365 0.6218261,-0.29195 z m 13.3322138,0.24542 c 0.06026,-0.0312 0.10326,-0.0755 0.09557,-0.0987 -0.02375,-0.0713 -1.057592,-0.71504 -1.149957,-0.71609 -0.08416,-8.6e-4 -0.403437,0.17487 -0.403569,0.22225 -3.5e-5,0.0128 0.03994,0.0334 0.08883,0.0456 0.04889,0.0122 0.216543,0.1183 0.372562,0.23562 0.156018,0.11732 0.348853,0.24808 0.428521,0.29058 0.171932,0.0917 0.413592,0.1005 0.568048,0.0207 z m -8.920927,-0.20381 c 0.130546,-0.0784 0.266098,-0.32679 0.266098,-0.48762 0,-0.11055 -0.108299,-0.34873 -0.166839,-0.3669 -0.0283,-0.009 -0.414721,0.87165 -0.414721,0.94493 0,0.0403 0.186996,-0.0132 0.315462,-0.0904 z m 0.923201,-0.16662 c -0.367248,-0.99124 -2.627881,-7.08062 -2.6919881,-7.25132 l -0.078493,-0.209 H 9.213781 c -0.2184658,0 -0.397211,0.0143 -0.397211,0.032 0,0.0177 0.099955,0.24251 0.2221218,0.49978 0.2330264,0.49073 0.8634187,1.81968 1.7046642,3.59366 0.274923,0.57974 0.740975,1.56113 1.035671,2.18085 0.294696,0.61972 0.567285,1.19629 0.605753,1.28125 0.111854,0.24704 0.110082,0.17883 -0.0033,-0.12722 z m 11.487477,0.22973 c 0.539281,-0.0962 0.980269,-0.40153 1.123214,-0.77774 l 0.07182,-0.18901 -0.121837,-0.13294 -0.121836,-0.13295 -0.268938,0.0441 c -0.20219,0.0332 -0.408766,0.11106 -0.832325,0.314 -0.766096,0.36706 -0.963888,0.40226 -1.317596,0.23448 -0.149709,-0.071 -0.160814,-0.0549 -0.08581,0.12462 0.132551,0.31724 0.602933,0.55097 1.130803,0.56188 0.07997,0.002 0.270094,-0.0192 0.422511,-0.0464 z M 3.6930545,286.0881 c 0.1156941,-0.0442 0.2570592,-0.13509 0.3322092,-0.21352 0.1282382,-0.13385 0.2678247,-0.36496 0.2382755,-0.39451 -0.00822,-0.008 -0.070767,0.0137 -0.1389833,0.0488 -0.086477,0.0445 -0.2084012,0.0638 -0.4026939,0.0638 -0.2758016,0 -0.2843902,-0.003 -0.8359925,-0.28325 -0.8105919,-0.41196 -1.1289638,-0.48019 -1.3183218,-0.28255 -0.085745,0.0895 -0.098415,0.12664 -0.078829,0.23104 0.074033,0.39463 0.6096271,0.79436 1.221471,0.91162 0.2170595,0.0416 0.7839062,-0.005 0.9828645,-0.0814 z m 11.6504875,0.004 c -0.01284,-0.035 -0.09987,-0.25736 -0.193377,-0.49417 -0.168287,-0.42617 -0.170678,-0.42976 -0.23449,-0.35095 -0.155295,0.19178 -0.153887,0.46431 0.0035,0.6854 0.124382,0.17468 0.478805,0.30808 0.424326,0.15972 z m -2.417611,-3.73364 c -0.06345,-1.97971 -0.123336,-3.65263 -0.133073,-3.7176 l -0.01771,-0.11813 h -0.286847 -0.286848 l 0.01718,0.11813 c 0.0094,0.065 0.105558,0.95231 0.213561,1.97186 0.498873,4.70934 0.583364,5.47701 0.595793,5.41333 0.0073,-0.0375 -0.03862,-1.68788 -0.102073,-3.66759 z m 0.632949,1.7974 c 0.09192,-1.04914 0.23198,-2.65173 0.311261,-3.56132 0.07927,-0.90959 0.15443,-1.74787 0.167001,-1.86281 l 0.02286,-0.209 H 13.669085 13.27817 l 0.0285,2.71697 c 0.01567,1.49434 0.03198,2.76605 0.03623,2.82603 0.0042,0.06 0.0098,0.54112 0.01242,1.06922 0.0026,0.52809 0.01183,0.95303 0.02056,0.9443 0.0087,-0.009 0.09108,-0.87426 0.182994,-1.92339 z m 0.178617,1.27209 c 0.07011,-0.28944 0.308869,-1.26227 0.530561,-2.16186 0.944758,-3.83372 1.129973,-4.58415 1.150526,-4.66158 0.02156,-0.0812 0.01882,-0.0818 -0.380704,-0.0818 h -0.402416 l -0.02034,0.11813 c -0.01119,0.065 -0.142195,0.98501 -0.291124,2.04455 -0.148929,1.05952 -0.369658,2.62974 -0.490509,3.48936 -0.120851,0.85961 -0.229923,1.62018 -0.242384,1.69015 -0.05166,0.29014 0.02746,0.0539 0.146394,-0.43697 z m 7.786483,0.41966 c 0.178923,-0.0531 0.327993,-0.17606 0.412542,-0.34019 0.02405,-0.0467 0.0353,-0.0933 0.025,-0.10362 -0.01031,-0.0103 -0.365827,-0.15695 -0.790053,-0.32587 -0.953362,-0.37963 -0.981103,-0.38126 -1.149761,-0.0672 -0.06441,0.11995 -0.117567,0.24614 -0.118128,0.28043 -0.0017,0.1013 0.20788,0.30952 0.410373,0.40779 0.402483,0.1953 0.862558,0.25182 1.210027,0.14863 z m -15.5834023,-0.0511 c 0.4047272,-0.12597 0.6587949,-0.32375 0.6587949,-0.51284 0,-0.0413 -0.049305,-0.17269 -0.1095662,-0.29206 -0.1044893,-0.20699 -0.1158684,-0.21705 -0.245614,-0.21705 -0.08086,0 -0.4455756,0.11582 -0.8990778,0.28551 -0.6551162,0.24513 -0.764724,0.29693 -0.7750187,0.36634 -0.015167,0.10226 0.2213142,0.33554 0.397004,0.39162 0.2090156,0.0668 0.7267245,0.0553 0.9734778,-0.0215 z m 6.4023873,-0.84636 c -0.103012,-0.36646 -0.226081,-0.80531 -0.273487,-0.97524 -0.0474,-0.16992 -0.143536,-0.5134 -0.213621,-0.76329 -0.07009,-0.24989 -0.374327,-1.34576 -0.676092,-2.43528 -0.301764,-1.08952 -0.565086,-2.0324 -0.585161,-2.09529 -0.03642,-0.11412 -0.03714,-0.11439 -0.334793,-0.1297 -0.164062,-0.008 -0.3030453,-0.0122 -0.3088512,-0.008 -0.0058,0.004 0.2820582,0.8146 0.6396992,1.80168 0.357641,0.98709 0.934864,2.58234 1.282719,3.54501 0.347855,0.96267 0.637958,1.745 0.644674,1.73853 0.0067,-0.006 -0.07208,-0.31161 -0.175087,-0.67805 z m 0.05602,-1.90323 c -0.209119,-1.33878 -0.446738,-2.86759 -0.528041,-3.39736 -0.0813,-0.52976 -0.156033,-1 -0.166065,-1.04499 -0.01695,-0.076 -0.03765,-0.0818 -0.294394,-0.0818 -0.268558,0 -0.275558,0.002 -0.254523,0.0818 0.0119,0.045 0.377576,1.62385 0.812621,3.50858 0.435046,1.88474 0.795409,3.41356 0.800805,3.39736 0.0054,-0.0161 -0.161284,-1.1248 -0.370403,-2.46359 z m -2.179583,2.34053 c 0.05981,-0.0672 0.260887,-0.17671 0.324243,-0.17671 0.01159,0 0.06119,0.0433 0.11021,0.0962 0.08551,0.0922 0.08913,0.093 0.08913,0.0181 0,-0.12202 0.122764,-0.21587 0.315421,-0.24114 0.216403,-0.0284 0.334838,-0.0749 0.360446,-0.14166 0.01077,-0.0281 -0.09905,-0.26726 -0.244025,-0.53157 l -0.263595,-0.48057 -0.08165,0.185 c -0.156381,0.35435 -0.325484,0.50839 -0.9589406,0.8736 l -0.1999109,0.11526 0.1634336,-0.01 0.1634342,-0.01 0.050822,0.19011 c 0.02795,0.10455 0.06228,0.1901 0.07628,0.1901 0.014,0 0.05662,-0.035 0.09469,-0.0777 z m 4.044026,-0.48782 c 0.376784,-1.07129 1.011382,-2.86703 1.617687,-4.57763 l 0.631264,-1.78103 -0.273314,-0.0107 c -0.150324,-0.006 -0.285521,0.002 -0.300441,0.0181 -0.05133,0.0546 -1.888013,6.73439 -1.888013,6.86642 0,0.0693 0.04887,-0.049 0.212817,-0.51522 z m -5.2008409,0.43658 c 0.1597472,-0.0668 0.2865332,-0.17873 0.3581033,-0.3163 l 0.052002,-0.1 H 9.3001619 c -0.1612086,0 -0.1863145,0.0136 -0.382582,0.20786 -0.1155289,0.11433 -0.2100524,0.22064 -0.2100524,0.23626 0,0.0481 0.2131914,0.0314 0.3550596,-0.0279 z m 7.4066839,-0.13709 c 0.0361,-0.14476 0.04537,-0.15282 0.195663,-0.17013 l 0.157764,-0.0181 -0.310964,-0.17268 c -0.447803,-0.24869 -0.673156,-0.4952 -0.804943,-0.88051 -0.02591,-0.0758 -0.093,0.0249 -0.43925,0.65858 -0.166769,0.30523 -0.149973,0.35967 0.121812,0.39481 0.306214,0.0396 0.326737,0.0493 0.372935,0.17711 l 0.04431,0.12255 0.07993,-0.0929 c 0.07244,-0.0842 0.08983,-0.0888 0.185611,-0.0491 0.05813,0.0241 0.154556,0.0828 0.214286,0.13056 0.05972,0.0477 0.116777,0.0789 0.126771,0.0694 0.01003,-0.01 0.03523,-0.0858 0.05607,-0.16939 z M 8.2373852,285.32 c 0.2217147,-0.0616 0.5428372,-0.38601 0.5428372,-0.5484 0,-0.0309 -0.063812,-0.0374 -0.2239845,-0.0229 -0.2231847,0.0202 -0.2250346,0.0213 -0.5176768,0.314 l -0.2936918,0.29369 0.1814626,-2.2e-4 c 0.099804,-1.1e-4 0.2397781,-0.0163 0.3110533,-0.0362 z m 8.2448388,-4.1799 c 0.685806,-1.38939 1.25544,-2.5473 1.265856,-2.57314 0.01476,-0.0366 -0.04664,-0.0446 -0.27817,-0.0364 l -0.297107,0.0106 -0.473715,1.12677 c -0.260542,0.61973 -0.769485,1.8301 -1.130983,2.68971 -0.574644,1.36648 -1.194765,2.92958 -1.18814,2.99489 0.0029,0.0284 0.55846,-1.08491 2.102259,-4.21252 z m 1.348526,4.1879 c 0,-0.0156 -0.09405,-0.12014 -0.208998,-0.23228 -0.176067,-0.17176 -0.236201,-0.20772 -0.381648,-0.22827 -0.09774,-0.0137 -0.172651,-0.01 -0.172651,0.009 0,0.0582 0.160115,0.27096 0.258896,0.34411 0.13521,0.10016 0.504401,0.17888 0.504401,0.1076 z m 0.913878,0.0111 c 0.0095,-0.01 -0.109645,-0.15037 -0.264806,-0.313 l -0.282112,-0.29569 -0.241418,-0.0193 -0.241418,-0.0194 0.07238,0.14156 c 0.136459,0.26689 0.3252,0.41534 0.614794,0.48352 0.157916,0.0372 0.31736,0.0476 0.342586,0.0224 z M 7.7896364,284.96879 c 0.1533198,-0.0953 0.3340908,-0.28599 0.2975495,-0.31379 -0.013188,-0.01 -1.1928013,0.0661 -1.2263491,0.0792 -0.036233,0.014 0.1379028,0.24384 0.2292272,0.30244 0.1577553,0.10121 0.4776627,0.0702 0.6995724,-0.0678 z m 11.5809476,0.083 c 0.123235,-0.0515 0.277541,-0.21566 0.277541,-0.29527 0,-0.0507 -1.145999,-0.15678 -1.191533,-0.1103 -0.04757,0.0485 0.320461,0.34472 0.495239,0.39852 0.217704,0.067 0.273006,0.068 0.418753,0.007 z m 3.218086,-0.15676 c 0.145456,-0.0741 0.237214,-0.15391 0.321644,-0.27966 0.06497,-0.0967 0.117612,-0.19454 0.11698,-0.21726 -6.43e-4,-0.0228 -0.04109,-0.0867 -0.08989,-0.14218 -0.08614,-0.0979 -0.0925,-0.0993 -0.216651,-0.0474 -0.224537,0.0938 -0.625955,0.12832 -1.101287,0.0947 -0.245174,-0.0174 -0.539589,-0.0182 -0.654255,-0.002 -0.208036,0.0297 -0.408393,0.1008 -0.408393,0.14489 0,0.0347 0.497852,0.30612 0.726949,0.39623 0.530755,0.20879 0.964118,0.22624 1.304907,0.0525 z m -17.5292806,-0.0146 c 0.2828545,-0.0865 0.8239904,-0.34022 0.8865722,-0.41562 0.033207,-0.04 0.013643,-0.0629 -0.097796,-0.11447 -0.1183893,-0.0547 -0.2566518,-0.0653 -0.9207787,-0.0697 -0.6974821,-0.005 -0.8047749,-0.0135 -0.9982961,-0.0827 -0.1192543,-0.0426 -0.2285458,-0.0775 -0.2428707,-0.0775 -0.014326,0 -0.060531,0.0484 -0.1026789,0.10762 -0.076441,0.10735 -0.076456,0.10796 -0.00613,0.24582 0.2444432,0.47914 0.7717028,0.62376 1.481977,0.40646 z m 19.5257676,-0.0294 c 0.547005,-0.16031 0.892319,-0.40446 1.063241,-0.75174 0.07126,-0.14478 0.08733,-0.23172 0.08478,-0.45857 -0.0047,-0.41542 -0.129161,-0.51379 -0.313242,-0.24757 -0.157552,0.22787 -0.483936,0.45847 -1.010284,0.71382 -0.26988,0.13094 -0.624314,0.30344 -0.78763,0.38334 -0.354487,0.17345 -0.623914,0.38708 -0.550929,0.43686 0.02652,0.018 0.318103,0.026 0.647956,0.0173 0.473034,-0.0122 0.656009,-0.032 0.866112,-0.0935 z m -21.0761156,0.009 c 0.052113,-0.0531 -0.3494121,-0.30725 -1.053284,-0.66669 -0.8109448,-0.41413 -1.1334746,-0.63052 -1.3010639,-0.87289 -0.129779,-0.18771 -0.2776162,-0.20258 -0.31185641,-0.0314 -0.0399336,0.19967 -0.0244659,0.48624 0.0357909,0.66307 0.15657551,0.45953 0.80384071,0.82622 1.64639621,0.93273 0.2380111,0.0301 0.9476893,0.0121 0.9840185,-0.0249 z m 3.6164897,-0.32196 c 0.2540098,-0.0538 0.6369614,-0.221 0.6369614,-0.27809 0,-0.0376 0.031034,-0.039 -0.4867429,0.0221 -0.407631,0.0481 -0.6208627,0.0393 -0.881273,-0.0363 -0.1245188,-0.0362 -0.1400458,0.052 -0.029471,0.16748 0.088484,0.0923 0.2750846,0.16463 0.452453,0.17524 0.029986,0.002 0.16862,-0.021 0.3080734,-0.0504 z m 2.5780911,0.0136 c 0.1257771,-0.0573 0.2110415,-0.25726 0.2314745,-0.54284 0.024109,-0.33698 -0.031566,-0.48387 -0.2267526,-0.59825 -0.3403187,-0.19945 -0.7402676,-0.22994 -2.0422421,-0.15578 -0.6035971,0.0344 -0.8405044,0.0343 -1.1023828,-4.3e-4 -0.3241821,-0.0431 -0.7339218,-0.1591 -0.8291403,-0.23462 -0.032528,-0.0258 -0.060113,-0.0242 -0.089698,0.005 -0.1071004,0.1071 0.2840077,0.54131 0.6385521,0.70892 0.2992191,0.14146 0.6014445,0.20396 1.3467686,0.27851 0.3826228,0.0383 0.8019943,0.0886 0.9319364,0.11193 0.3993377,0.0716 0.8083189,0.24941 0.9409326,0.4092 0.058555,0.0706 0.080954,0.0726 0.2005523,0.0181 z m 7.6290648,-0.0783 c 0.202032,-0.15421 0.486303,-0.27575 0.705987,-0.30185 0.09555,-0.0113 0.214616,-0.0351 0.264594,-0.0527 0.04998,-0.0176 0.377105,-0.0584 0.72695,-0.0904 1.07623,-0.0987 1.452532,-0.20997 1.803117,-0.53312 0.191911,-0.17691 0.319781,-0.37419 0.291052,-0.44906 -0.01877,-0.0489 -0.03259,-0.0489 -0.127365,1.1e-4 -0.05847,0.0302 -0.234594,0.0921 -0.391389,0.13757 -0.268831,0.0779 -0.333759,0.0817 -1.139245,0.0674 -1.963139,-0.0351 -2.13178,-0.0233 -2.42949,0.16975 -0.173322,0.11237 -0.223959,0.2288 -0.223675,0.51428 2.54e-4,0.26548 0.05764,0.46464 0.1647,0.57169 0.114111,0.11412 0.168083,0.10903 0.354764,-0.0335 z m 2.708064,0.0326 c 0.255656,-0.1322 0.288882,-0.33094 0.04088,-0.24449 -0.147993,0.0516 -0.54461,0.0524 -0.870264,0.002 -0.137928,-0.0214 -0.296446,-0.0337 -0.352264,-0.0273 l -0.101486,0.0116 0.139433,0.0824 c 0.351113,0.2075 0.914801,0.29413 1.143707,0.17575 z m -9.577254,-0.55774 0.306053,-0.40862 -0.488422,-0.9544 c -0.5361792,-1.04773 -1.2245438,-2.39017 -1.6169886,-3.15343 l -0.2522978,-0.49069 -0.3701088,-0.1171 c -0.5156088,-0.16314 -0.6932029,-0.17482 -1.2291026,-0.0808 -0.8794025,0.15422 -1.3703325,0.52103 -1.6784133,1.25408 -0.2074399,0.49358 -0.228101,1.19569 -0.048937,1.66297 0.1615139,0.42125 0.4572247,0.78335 0.7689691,0.9416 0.131504,0.0668 1.0920178,0.30117 1.4720738,0.35926 0.3458352,0.0528 1.0096775,0.022 1.2721625,-0.0593 0.2990607,-0.0925 0.8271347,-0.0605 1.0739772,0.0652 0.2138256,0.10885 0.3861285,0.2743 0.4781935,0.45919 0.08715,0.17503 0.08547,0.65286 -0.003,0.85808 -0.0801,0.18574 -0.05437,0.15838 0.315863,-0.33594 z m 5.948307,0.22263 c -0.120361,-0.53122 0.201187,-1.14166 0.685798,-1.30195 0.310411,-0.10266 0.479836,-0.10717 0.808593,-0.0215 0.42883,0.11171 0.826705,0.14563 1.233066,0.10512 0.403194,-0.0402 1.459242,-0.26872 1.617279,-0.34995 0.166072,-0.0853 0.533893,-0.47643 0.646478,-0.68734 0.432052,-0.80937 0.268984,-1.94251 -0.373687,-2.5967 -0.310671,-0.31624 -0.586292,-0.454 -1.126773,-0.56317 -0.58158,-0.11747 -0.833596,-0.11239 -1.285406,0.026 -0.202623,0.0621 -0.384847,0.11723 -0.404942,0.12266 -0.04277,0.0115 0.04704,-0.15943 -1.312715,2.49887 l -1.073286,2.09826 0.302581,0.43226 c 0.16642,0.23773 0.307226,0.42836 0.312903,0.42363 0.0057,-0.005 -0.0078,-0.0885 -0.02989,-0.1861 z m 7.286695,-0.10511 c 1.123943,-0.3257 2.036819,-1.23598 2.309115,-2.30253 0.04304,-0.1686 0.07272,-0.38271 0.06669,-0.48124 l -0.01086,-0.17749 -0.803991,0.86289 c -0.442197,0.47459 -1.084922,1.16139 -1.428279,1.52623 -0.697629,0.74127 -0.696281,0.73547 -0.13269,0.57214 z m -20.4855166,-0.0894 c -0.3146326,-0.37464 -2.66908189,-2.97653 -2.69562258,-2.97892 -0.0454171,-0.004 0.008097,0.4517 0.0892907,0.76057 0.23780969,0.9046 1.02724518,1.76899 1.96201508,2.14831 0.1663242,0.0675 0.6368293,0.20291 0.7351857,0.2116 0.016653,0.001 -0.024239,-0.0623 -0.090869,-0.14156 z m 19.5186686,-0.0847 c 0.729802,-0.25477 1.246214,-0.79173 1.304496,-1.35643 0.01111,-0.10762 0.0087,-0.19568 -0.0054,-0.19568 -0.01408,0 -0.175839,0.13276 -0.359473,0.29504 -0.866366,0.76556 -1.335017,1.02596 -2.125482,1.181 -0.118032,0.0232 -0.06829,0.0768 0.130491,0.14065 0.251661,0.0809 0.720904,0.0521 1.055364,-0.0646 z m -17.7528698,-0.0139 0.1422623,-0.0738 -0.2491798,-0.047 c -0.6186673,-0.11674 -1.0999156,-0.40358 -1.9210087,-1.145 -0.210179,-0.18978 -0.3934902,-0.34506 -0.407358,-0.34506 -0.060837,0 0.025702,0.42903 0.1287651,0.63839 0.1257299,0.25538 0.4642408,0.59745 0.748442,0.75629 0.1563897,0.0874 0.5662913,0.24444 0.7615594,0.29175 0.1763122,0.0427 0.656304,-0.003 0.7965177,-0.0756 z M 22.307064,283.2479 c 0.351195,-0.0846 0.518712,-0.19183 0.618471,-0.39569 0.0767,-0.15674 0.07687,-0.16081 0.0087,-0.21189 -0.09288,-0.0697 -0.3995,-0.0444 -0.571165,0.047 -0.108693,0.058 -0.715902,0.61271 -0.715902,0.6541 0,0.0264 0.394559,-0.0297 0.659826,-0.0935 z M 4.6229266,283.01481 c -0.3573242,-0.37046 -0.5082532,-0.45718 -0.7956536,-0.45718 -0.2384476,0 -0.2808029,0.0433 -0.2098939,0.21447 0.1002373,0.242 0.3858086,0.40493 0.859719,0.49053 0.478248,0.0864 0.4744306,0.0928 0.1458285,-0.24782 z m 17.0872944,-0.2456 c 0.251977,-0.153 0.51077,-0.55092 0.669492,-1.0294 0.117213,-0.35335 0.118618,-0.93583 0.0029,-1.19038 -0.04318,-0.0949 -0.08656,-0.17265 -0.09641,-0.17265 -0.0098,0 -0.08526,0.21673 -0.167579,0.48161 -0.297055,0.95581 -0.498617,1.43439 -0.748342,1.77681 -0.142083,0.19482 -0.144035,0.20223 -0.05923,0.22485 0.09905,0.0264 0.270264,-0.0125 0.399196,-0.0908 z m -16.428506,0.0492 c 0.033914,-0.0215 0.021482,-0.0604 -0.049226,-0.15392 -0.241915,-0.31994 -0.4562114,-0.8608 -0.7953083,-2.00729 -0.051932,-0.17558 -0.1090279,-0.31022 -0.1268813,-0.29918 -0.017855,0.011 -0.066233,0.11032 -0.107509,0.22065 -0.2020412,0.54 0.00386,1.46363 0.4356407,1.95416 0.2243314,0.25485 0.4993799,0.37696 0.6432839,0.28558 z m 19.603742,-0.95146 c 0.464401,-0.4595 0.719648,-0.97802 0.778849,-1.58216 0.05976,-0.60983 -0.217234,-1.2208 -0.707512,-1.56056 -0.07868,-0.0545 -0.158643,-0.0895 -0.177697,-0.0777 -0.05578,0.0345 -0.07345,0.26509 -0.111683,1.4576 -0.04128,1.28759 -0.09051,1.62461 -0.312761,2.14104 -0.0293,0.0681 -0.02773,0.0681 0.09438,0 0.0683,-0.0381 0.264688,-0.20826 0.436423,-0.37819 z m -22.7046134,0.19999 c -0.1644838,-0.39366 -0.2035648,-0.72239 -0.2160698,-1.81745 -0.011793,-1.0326 -0.03753,-1.52964 -0.085985,-1.66063 -0.021915,-0.0593 -0.04205,-0.0535 -0.2095939,0.0593 -0.91281367,0.61473 -0.96300198,1.95374 -0.1123648,2.99787 0.1734342,0.21289 0.6331231,0.60791 0.6674646,0.57356 0.00788,-0.008 -0.011673,-0.0766 -0.043452,-0.15263 z m 21.4531684,0.0332 c 0.330557,-0.15843 0.583607,-0.52249 0.666316,-0.9586 0.04457,-0.23505 0.0474,-0.43764 0.0061,-0.43764 -0.01678,0 -0.104019,0.094 -0.193856,0.209 -0.08984,0.11495 -0.354164,0.44975 -0.587392,0.744 -0.233228,0.29426 -0.424051,0.54554 -0.424051,0.55843 0,0.0477 0.351452,-0.0282 0.532873,-0.11519 z m -20.185979,0.008 c -0.045924,-0.0785 -1.0011265,-1.33238 -1.0947666,-1.43713 l -0.084317,-0.0943 0.017198,0.29078 c 0.036684,0.62029 0.3289117,1.06522 0.8130588,1.23791 0.189111,0.0675 0.3876135,0.0691 0.3488274,0.003 z m 19.582656,-0.33456 c 0.193512,-0.12043 0.442332,-0.41529 0.570985,-0.67663 0.327331,-0.6649 0.301853,-1.39367 -0.0621,-1.77625 -0.13825,-0.14534 -0.253778,-0.18056 -0.321271,-0.098 -0.03158,0.0386 -0.444295,2.47879 -0.444295,2.62685 0,0.0611 0.06964,0.0404 0.256679,-0.076 z M 3.6342158,280.49951 c -0.1296957,-0.9128 -0.2046672,-1.34092 -0.238543,-1.36221 -0.1254396,-0.0788 -0.3482229,0.10133 -0.4940759,0.39944 -0.2530743,0.51727 -0.08922,1.38119 0.3620439,1.90887 0.1466107,0.17145 0.4346087,0.38508 0.5191136,0.38508 0.0272,0 -0.021825,-0.43939 -0.1485386,-1.33118 z M 22.816507,279.7629 c 0.05904,-0.31558 0.01777,-0.84679 -0.09211,-1.18532 -0.223458,-0.68848 -0.767398,-1.37078 -1.399481,-1.75545 -0.342856,-0.20865 -0.850582,-0.35644 -1.07797,-0.31379 -0.191986,0.036 -0.34439,0.21291 -0.34439,0.39972 0,0.26004 0.08035,0.39488 0.279819,0.4696 0.934079,0.34989 1.93406,1.45109 2.426391,2.672 l 0.06596,0.16356 0.05181,-0.12319 c 0.02849,-0.0678 0.06899,-0.21496 0.08997,-0.32713 z M 4.1404457,279.7407 c 0.3929274,-0.78338 0.9196494,-1.45364 1.4726362,-1.87393 0.132642,-0.10081 0.425829,-0.27475 0.6515281,-0.38652 0.2256983,-0.11177 0.4260638,-0.23256 0.4452566,-0.26842 0.019195,-0.0359 0.034898,-0.16296 0.034898,-0.28245 0,-0.19797 -0.00993,-0.22559 -0.1118437,-0.31135 -0.1622153,-0.13649 -0.2541613,-0.1472 -0.6223081,-0.0725 -0.4310507,0.0875 -0.8029659,0.29603 -1.2141158,0.6807 -0.590309,0.5523 -0.8970644,1.11547 -0.9934211,1.82384 -0.027119,0.19935 -0.028274,0.37648 -0.00369,0.56338 0.03598,0.2734 0.1046859,0.56292 0.128036,0.53953 0.00686,-0.007 0.1027173,-0.19241 0.2130159,-0.41231 z m 17.8528033,0.0818 c -0.126993,-0.82242 -0.720754,-1.48902 -1.772914,-1.99042 -0.815709,-0.38872 -1.348832,-0.49842 -1.589481,-0.32706 -0.13853,0.0987 -0.253323,0.32947 -0.253226,0.50919 7.3e-5,0.13003 0.05081,0.39172 0.082,0.42291 0.0095,0.01 0.121368,-0.0112 0.248525,-0.046 0.318822,-0.0874 0.979617,-0.0865 1.321617,0.002 0.751806,0.19401 1.439405,0.70402 1.814986,1.34624 0.07655,0.13089 0.146647,0.23799 0.155765,0.23799 0.0091,0 0.0058,-0.0695 -0.0073,-0.15448 z M 4.7838119,279.69527 c 0.2460214,-0.4365 0.8221792,-0.93506 1.3249549,-1.14649 0.6126407,-0.25765 1.3437969,-0.30287 1.8737031,-0.11591 0.144851,0.0511 0.1465171,0.0506 0.1853259,-0.0472 0.070533,-0.17797 0.057909,-0.59301 -0.022058,-0.72522 -0.1597181,-0.26405 -0.4582198,-0.28679 -1.0738485,-0.0818 -1.1843464,0.39435 -2.0027305,1.01777 -2.3180802,1.76582 -0.08041,0.19074 -0.1632915,0.6065 -0.1149505,0.57662 0.014935,-0.009 0.080166,-0.11083 0.1449527,-0.22578 z m 19.6344911,-0.32726 c 0,-0.54421 -0.174612,-0.98281 -0.605293,-1.52041 -0.372651,-0.46516 -0.597397,-0.65868 -0.800297,-0.6891 -0.118723,-0.0178 -0.200347,-0.0105 -0.263894,0.0235 -0.08319,0.0445 -0.09012,0.0652 -0.07235,0.21525 0.01126,0.095 0.106229,0.34239 0.222162,0.57861 0.181212,0.36923 0.202501,0.43689 0.202501,0.64349 v 0.23088 h 0.203505 c 0.349705,0 0.463052,0.0858 0.755378,0.5721 0.145306,0.24169 0.270127,0.35793 0.325213,0.30285 0.01819,-0.0183 0.03307,-0.1789 0.03307,-0.35713 z M 2.6214376,279.2646 c 0.2748334,-0.40381 0.4129607,-0.49591 0.7157469,-0.47721 l 0.208998,0.0129 v -0.22453 c 0,-0.20093 0.022899,-0.27105 0.2179197,-0.66731 0.1198557,-0.24354 0.2275073,-0.50338 0.239226,-0.57744 0.019009,-0.12015 0.010217,-0.141 -0.081617,-0.19345 -0.056607,-0.0323 -0.1192787,-0.0541 -0.1392701,-0.0484 -0.019992,0.006 -0.1004024,0.0212 -0.1786919,0.0343 -0.1076786,0.0181 -0.1997083,0.0786 -0.3778877,0.24832 -0.5100432,0.48591 -0.8604518,1.02327 -0.9698695,1.48735 -0.05523,0.23424 -0.07062,0.6002 -0.031395,0.74663 0.020237,0.0756 0.029343,0.0785 0.099459,0.0328 0.042449,-0.0278 0.1762729,-0.196 0.2973834,-0.37395 z m 7.1803718,-1.89021 c 0.1419274,-0.3402 0.5211226,-0.72732 1.0580856,-1.0802 0.214673,-0.14109 0.384893,-0.26194 0.378266,-0.26857 -0.07059,-0.0706 -0.987004,0.33403 -1.4038607,0.61986 -0.218696,0.14996 -0.7937076,0.70659 -0.8576486,0.83023 -0.089091,0.17228 -0.077357,0.17817 0.3332094,0.16715 l 0.3842486,-0.0103 z m 0.7738586,0.23992 c 0.138354,-6e-5 0.157036,-0.0125 0.258181,-0.17265 0.308517,-0.48834 0.521205,-0.72716 0.884543,-0.99323 0.201036,-0.14721 0.360287,-0.27289 0.353894,-0.27929 -0.0064,-0.006 -0.132271,0.0152 -0.279726,0.0482 -0.364145,0.0812 -0.672332,0.23329 -0.986338,0.4866 -0.291925,0.23549 -0.790184,0.73649 -0.790184,0.79453 0,0.0205 -0.01093,0.0658 -0.024294,0.10057 -0.02207,0.0575 -0.00331,0.0611 0.205242,0.0393 0.126246,-0.0131 0.296655,-0.024 0.378684,-0.0241 z m 1.287191,-0.11807 c 0.138295,-0.35638 0.373304,-0.78979 0.565138,-1.04224 0.112783,-0.14843 0.205061,-0.28258 0.205061,-0.29813 0,-0.0535 -0.318174,0.0677 -0.492717,0.18773 -0.328905,0.2263 -0.807378,0.79478 -0.954841,1.13447 l -0.07495,0.17265 h 0.346181 0.346181 z m 1.1782,-0.56339 c 0.0096,-0.39482 0.01331,-0.72315 0.0081,-0.72962 -0.06089,-0.0754 -0.527412,0.43333 -0.685473,0.74749 -0.05183,0.10301 -0.275821,0.66343 -0.275821,0.69009 0,0.005 0.210516,0.01 0.467815,0.01 h 0.467815 z m 1.191288,0.68416 c 0,-0.0913 -0.220189,-0.63872 -0.329915,-0.82022 -0.159311,-0.26353 -0.471351,-0.59998 -0.556444,-0.59998 -0.06151,0 -0.06512,0.0452 -0.05582,0.6997 0.0055,0.38483 0.0162,0.71195 0.02386,0.72695 0.02038,0.0399 0.918321,0.0336 0.918321,-0.006 z m 1.054078,0.0165 c 0,-0.0737 -0.201578,-0.41593 -0.389037,-0.66054 -0.277018,-0.36147 -0.584184,-0.64076 -0.83544,-0.75963 -0.175482,-0.083 -0.302118,-0.11304 -0.302118,-0.0716 0,0.01 0.09183,0.13646 0.204055,0.2817 0.201573,0.26085 0.394481,0.61152 0.560177,1.01828 l 0.08514,0.20899 h 0.338612 c 0.186237,0 0.338613,-0.008 0.338613,-0.0172 z m 1.073895,-0.0827 c -0.03894,-0.15944 -0.192008,-0.35561 -0.518996,-0.66513 -0.490273,-0.46409 -0.891441,-0.69601 -1.281849,-0.74106 l -0.199911,-0.0231 0.181738,0.15309 c 0.354967,0.299 0.659566,0.63595 0.907188,1.00356 l 0.250964,0.37256 h 0.342638 0.342639 z m 1.049604,0.0181 c -0.03247,-0.10252 -0.296861,-0.40103 -0.580213,-0.65508 -0.341184,-0.3059 -0.742787,-0.56323 -1.055551,-0.67635 -0.269986,-0.0976 -0.633125,-0.17594 -0.633125,-0.13651 0,0.01 0.147198,0.1019 0.327106,0.20486 0.512935,0.29352 1.031105,0.84824 1.128936,1.20856 l 0.03701,0.1363 h 0.400871 c 0.399161,0 0.40076,-3.4e-4 0.374967,-0.0818 z"
       id="path4542"
       inkscape:connector-curvature="0" />
  </g>
</svg>
