<?xml version="1.0" encoding="UTF-8" standalone="no"?>
<!-- Created with Inkscape (http://www.inkscape.org/) -->

<svg
   xmlns:dc="http://purl.org/dc/elements/1.1/"
   xmlns:cc="http://creativecommons.org/ns#"
   xmlns:rdf="http://www.w3.org/1999/02/22-rdf-syntax-ns#"
   xmlns:svg="http://www.w3.org/2000/svg"
   xmlns="http://www.w3.org/2000/svg"
   xmlns:xlink="http://www.w3.org/1999/xlink"
   xmlns:sodipodi="http://sodipodi.sourceforge.net/DTD/sodipodi-0.dtd"
   xmlns:inkscape="http://www.inkscape.org/namespaces/inkscape"
   width="100"
   height="100"
   viewBox="0 0 26.458333 26.458333"
   version="1.1"
   id="svg5379"
   inkscape:version="0.92.0 r15299"
   sodipodi:docname="apc_icon.svg">
  <defs
     id="defs5373">
    <linearGradient
       inkscape:collect="always"
       xlink:href="#linearGradient4595"
       id="linearGradient4597-7"
       x1="887.80212"
       y1="-220.30157"
       x2="887.80212"
       y2="-276.95328"
       gradientUnits="userSpaceOnUse"
       gradientTransform="matrix(0.0536115,0,0,0.05599781,-36.595955,286.19793)" />
    <linearGradient
       inkscape:collect="always"
       id="linearGradient4595">
      <stop
         style="stop-color:#ffcc00;stop-opacity:1;"
         offset="0"
         id="stop4591" />
      <stop
         style="stop-color:#ffcc00;stop-opacity:0;"
         offset="1"
         id="stop4593" />
    </linearGradient>
  </defs>
  <sodipodi:namedview
     id="base"
     pagecolor="#ffffff"
     bordercolor="#666666"
     borderopacity="1.0"
     inkscape:pageopacity="0.0"
     inkscape:pageshadow="2"
     inkscape:zoom="11.2"
     inkscape:cx="56.535565"
     inkscape:cy="66.346335"
     inkscape:document-units="px"
     inkscape:current-layer="layer1"
     showgrid="false"
     units="px"
     width="100px"
     inkscape:pagecheckerboard="true"
     inkscape:window-width="2560"
     inkscape:window-height="1377"
     inkscape:window-x="-8"
     inkscape:window-y="-8"
     inkscape:window-maximized="1" />
  <metadata
     id="metadata5376">
    <rdf:RDF>
      <cc:Work
         rdf:about="">
        <dc:format>image/svg+xml</dc:format>
        <dc:type
           rdf:resource="http://purl.org/dc/dcmitype/StillImage" />
        <dc:title></dc:title>
      </cc:Work>
    </rdf:RDF>
  </metadata>
  <g
     inkscape:label="Layer 1"
     inkscape:groupmode="layer"
     id="layer1"
     transform="translate(0,-270.54167)">
    <path
       style="fill:#000000;fill-opacity:1;stroke-width:0.10120862"
       d="m 13.935809,290.19353 c -0.139161,-0.0251 -0.355092,-0.14035 -0.479847,-0.25604 -0.39343,-0.36485 -0.810599,-1.45567 -0.860897,-2.2511 -0.02523,-0.39888 -0.03228,-0.40561 -0.517459,-0.49372 -0.454643,-0.0826 -0.508287,-0.0701 -0.708461,0.16387 -0.616827,0.72113 -2.1854846,0.75708 -2.6766206,0.0614 -0.1847059,-0.26165 -0.2869751,-0.23442 -0.4064153,0.10821 -0.1646848,0.4724 -0.8324608,1.06807 -1.3643216,1.21698 -0.7283428,0.20393 -1.5146031,0.0997 -1.9692394,-0.26091 C 4.46151,288.09268 4.0425947,287.26356 3.9577015,286.5132 l -0.067373,-0.5955 -0.790086,-0.45572 C 2.6656951,285.21134 2.28116,284.95934 2.2457199,284.902 c -0.081824,-0.1324 -1.0114212,-0.60645 -1.1892138,-0.60645 -0.0735599,0 -0.30465484,-0.20447 -0.51354483,-0.45436 -0.31295706,-0.3744 -0.36125948,-0.48902 -0.27445366,-0.65121 0.05794,-0.10826 0.10534583,-0.30652 0.10534583,-0.44058 0,-0.17454 0.1001141,-0.29765 0.35261795,-0.43363 l 0.35261831,-0.1899 -0.30277738,-0.31239 c -0.27430027,-0.283 -0.29679746,-0.35601 -0.23919635,-0.77626 0.0597363,-0.43582 0.0850612,-0.46735 0.41878945,-0.52151 0.21940008,-0.0357 0.46432938,-9.9e-4 0.64061678,0.09 0.1569747,0.0812 0.356854,0.14758 0.4441758,0.14758 0.1156111,0 0.1427191,0.064 0.099728,0.23524 -0.037242,0.14838 -0.00145,0.28302 0.096957,0.36469 0.1305134,0.10831 0.225763,0.0781 0.583092,-0.18463 0.234903,-0.17275 0.4978256,-0.31594 0.584273,-0.3182 0.086447,-0.002 0.3082812,-0.1334 0.4929641,-0.29142 0.3099224,-0.26518 0.3841904,-0.28342 0.9641737,-0.23687 l 0.6283864,0.0504 0.6298552,-0.54338 c 0.6718733,-0.57964 0.7250613,-0.72117 0.5277559,-1.40433 -0.071523,-0.24765 -0.066698,-0.51273 0.016105,-0.8849 0.1428791,-0.6422 0.2884249,-0.69187 0.2884249,-0.0985 0,0.23811 0.061521,0.52277 0.1367133,0.63256 0.075192,0.1098 0.1661895,0.32106 0.2022169,0.46948 l 0.065503,0.26984 1.2400061,0.0394 1.2400056,0.0395 0.3036259,-0.32186 c 0.324157,-0.34363 0.72447,-0.50182 0.787935,-0.31136 0.04654,0.13965 1.697278,0.26988 1.841214,0.14525 0.171778,-0.14873 -0.09773,-0.43102 -0.463646,-0.48562 -0.320948,-0.0479 -0.342287,-0.0747 -0.321716,-0.40483 0.03033,-0.48675 -0.264017,-1.43231 -0.507333,-1.62972 -0.191744,-0.15558 -0.178068,-0.16506 0.304734,-0.21145 0.27802,-0.0267 0.744087,-0.0179 1.035708,0.0194 0.467309,0.06 0.538849,0.0446 0.602962,-0.12862 0.06928,-0.18728 0.08003,-0.18526 0.225763,0.0423 0.08416,0.13138 0.182344,0.31857 0.218184,0.41599 0.03584,0.0975 0.106827,0.17711 0.157745,0.17711 0.13888,0 0.214473,-0.38162 0.216017,-1.0905 0.0013,-0.59301 0.01911,-0.6418 0.269119,-0.73685 0.90654,-0.34466 2.387707,-0.0957 2.440875,0.41043 0.01462,0.13916 0.07437,0.42713 0.132782,0.63993 0.125535,0.45735 0.02601,0.6301 -0.419381,0.72792 -0.322435,0.0708 -0.362065,0.14557 -0.175877,0.33176 0.09353,0.0936 0.07065,0.18852 -0.101494,0.42137 -0.217622,0.29435 -0.218167,0.30279 -0.0262,0.40552 0.107826,0.0577 0.279329,0.10492 0.381119,0.10492 0.10179,0 0.230029,0.10248 0.284977,0.22773 0.05682,0.12952 0.209007,0.24232 0.352927,0.26159 0.139162,0.0186 0.296289,0.0755 0.349171,0.12651 0.155469,0.14979 0.487275,0.1064 0.842477,-0.11016 0.409705,-0.24979 0.427691,-0.24978 0.427691,3.8e-4 0,0.14766 0.06748,0.20241 0.249461,0.20241 0.275171,0 0.408546,0.18693 0.555382,0.77833 l 0.09573,0.38557 -0.01795,-0.38353 c -0.01731,-0.36966 0.0025,-0.39385 0.54856,-0.66928 0.447978,-0.22597 0.606351,-0.26296 0.756872,-0.17682 0.104693,0.0599 0.394322,0.13337 0.643618,0.16324 0.383467,0.0459 0.468622,0.0981 0.552979,0.33859 0.07724,0.22021 0.06632,0.305 -0.04844,0.3762 -0.124414,0.0772 -0.111223,0.12893 0.08235,0.32298 0.209993,0.21048 0.322544,0.23104 1.265107,0.23104 0.929198,0 1.031579,-0.018 1.00487,-0.17711 -0.04385,-0.26117 0.249681,-0.21939 0.546917,0.0778 0.140225,0.14022 0.296222,0.22945 0.346658,0.19828 0.105001,-0.0649 0.704897,0.22149 0.704897,0.33651 0,0.0419 -0.06681,0.17148 -0.148468,0.28805 -0.113249,0.16169 -0.125252,0.29291 -0.05061,0.5532 0.1832,0.63878 0.133818,0.80017 -0.296573,0.96923 -0.420076,0.16501 -0.516441,0.37443 -0.516441,1.12232 0,0.29933 -0.08217,0.43291 -0.506043,0.82259 l -0.506043,0.46523 v 0.6993 c 0,0.83599 -0.248978,1.69314 -0.582947,2.0069 -0.180786,0.16983 -0.369941,0.22975 -0.742353,0.23515 -0.416791,0.006 -0.554077,0.0597 -0.82703,0.32292 -0.180005,0.17362 -0.45561,0.36406 -0.612458,0.4232 -0.429855,0.16206 -1.063727,0.0255 -1.257979,-0.27091 l -0.163116,-0.24895 -0.209555,0.39857 c -0.333885,0.63502 -0.633278,0.94964 -1.042668,1.09572 -0.509904,0.18194 -1.257694,0.18013 -1.500643,-0.003 -0.108053,-0.0817 -0.219231,-0.14918 -0.247064,-0.14989 -0.02783,-7.7e-4 -0.185558,0.2189 -0.350501,0.48805 -0.547012,0.8926 -1.558534,1.27473 -2.786965,1.0529 z m -5.6170786,-6.10047 c -0.034404,-0.0557 -0.1054066,-0.10121 -0.157786,-0.10121 -0.05238,0 -0.095236,0.0455 -0.095236,0.10121 0,0.0557 0.071003,0.10121 0.1577864,0.10121 0.086782,0 0.1296378,-0.0455 0.095236,-0.10121 z m -0.2530214,-0.3846 c 0,-0.13177 -0.2314135,-0.32386 -0.3901582,-0.32386 -0.1168945,0 -0.1094865,0.0417 0.035927,0.20241 0.1881674,0.20793 0.3542303,0.26486 0.3542312,0.12145 z m 9.945208,-1.29524 c 0.03328,-0.0333 0.03645,-0.12318 0.0071,-0.19982 -0.04518,-0.11772 -0.07548,-0.1173 -0.195444,0.003 -0.07809,0.0781 -0.141983,0.16801 -0.141983,0.19982 0,0.0765 0.253274,0.0744 0.330388,-0.003 z m 1.692234,-0.11661 c -0.0037,-0.17992 -0.17677,-0.34859 -0.244794,-0.23852 -0.03807,0.0616 -0.134857,0.11201 -0.215069,0.11201 -0.184641,0 -0.191439,-0.36785 -0.0088,-0.47571 0.07538,-0.0445 0.159886,-0.20481 0.187796,-0.3562 0.02843,-0.15418 0.0099,-0.24996 -0.0423,-0.21776 -0.05432,0.0336 -0.06714,-0.10458 -0.03079,-0.33199 l 0.06225,-0.38949 -0.221381,0.48274 c -0.195617,0.42658 -0.272783,0.4957 -0.663047,0.59397 -0.336035,0.0846 -0.441666,0.15934 -0.441666,0.31245 0,0.14515 0.04638,0.18342 0.166451,0.13735 0.182936,-0.0702 0.570386,0.21805 0.483046,0.35937 -0.0298,0.0482 0.176216,0.0877 0.457825,0.0877 0.281609,0 0.511319,-0.0342 0.510467,-0.0759 z m -4.21512,-0.64626 c 0.133893,0.11112 2.394914,0.13794 2.394914,0.0284 0,-0.0376 -0.08542,-0.22767 -0.189815,-0.42245 -0.104397,-0.19479 -0.248276,-0.61539 -0.319731,-0.93468 -0.09863,-0.44077 -0.173335,-0.58053 -0.310255,-0.58053 -0.265702,0 -0.336561,-0.18949 -0.148546,-0.39725 0.15854,-0.17518 0.138798,-0.17554 -0.521431,-0.009 -1.025746,0.25818 -1.379882,0.41128 -1.250522,0.54064 0.0777,0.0777 0.143658,0.0741 0.230326,-0.0125 0.171991,-0.172 0.644603,-0.15061 0.832894,0.0377 0.104063,0.10407 0.137115,0.24687 0.09551,0.41264 -0.03499,0.13942 -0.0062,0.36078 0.06396,0.49189 0.1468,0.2743 0.07439,0.55568 -0.143,0.55568 -0.08186,0 -0.361255,-0.18385 -0.62088,-0.40855 -0.374715,-0.32432 -0.501193,-0.38437 -0.613407,-0.29124 -0.07775,0.0646 -0.141362,0.20015 -0.141362,0.30137 0,0.10123 -0.04554,0.2122 -0.101209,0.24661 -0.05567,0.0344 -0.101208,0.17005 -0.101208,0.30143 0,0.22506 0.02093,0.23312 0.361134,0.13919 0.238617,-0.0659 0.402351,-0.0656 0.482628,10e-4 z m -7.7259478,-0.59952 c 0,-0.0524 -0.045544,-0.0953 -0.1012085,-0.0953 -0.055665,0 -0.1012089,0.071 -0.1012089,0.15778 0,0.0868 0.045544,0.12963 0.1012089,0.0953 0.055664,-0.0344 0.1012085,-0.10541 0.1012085,-0.15779 z m 15.7191338,-0.64635 c -0.100986,-0.13871 -0.217768,-0.25362 -0.259517,-0.25538 -0.162752,-0.007 -0.06425,0.49046 0.151813,0.76638 l 0.22772,0.29083 0.03179,-0.27483 c 0.0175,-0.15118 -0.0508,-0.38827 -0.151813,-0.527 z m -9.239885,-2.84166 c 0.07383,-0.089 0.207413,-0.12886 0.316018,-0.0944 0.226328,0.0718 0.592962,-0.0306 0.592962,-0.16568 0,-0.0533 -0.125245,-0.14434 -0.278324,-0.20233 -0.153077,-0.058 -0.377432,-0.19828 -0.498565,-0.31174 -0.214843,-0.20124 -0.233085,-0.20203 -0.744094,-0.0323 -0.288119,0.0956 -0.667222,0.1521 -0.842449,0.12536 -0.450772,-0.0688 -0.571618,10e-4 -0.571618,0.33074 0,0.357 0.229165,0.44637 0.905848,0.35331 0.311423,-0.0428 0.513774,-0.0276 0.556736,0.042 0.0982,0.1589 0.415317,0.13364 0.563486,-0.0449 z m 1.485968,-1.12441 c -0.109446,-0.10944 -0.996314,-0.14253 -0.929659,-0.0347 0.03355,0.0543 0.270842,0.0986 0.527326,0.0986 0.256483,0 0.437534,-0.0288 0.402333,-0.064 z m 6.979923,2.32433 c -0.03711,-0.0371 -0.06747,-0.13337 -0.06747,-0.2139 0,-0.10798 0.08637,-0.13331 0.328928,-0.0965 0.180911,0.0275 0.403848,0.0109 0.495416,-0.037 0.237403,-0.12401 0.448335,0.13934 0.246065,0.30722 -0.107086,0.0889 -0.201232,0.0925 -0.349336,0.0131 -0.134189,-0.0718 -0.223953,-0.0742 -0.265465,-0.007 -0.07142,0.11556 -0.287633,0.13451 -0.388135,0.034 z"
       id="path4512"
       inkscape:connector-curvature="0" />
  </g>
</svg>
