<?xml version="1.0" encoding="UTF-8" standalone="no"?>
<!-- Created with Inkscape (http://www.inkscape.org/) -->

<svg
   xmlns:dc="http://purl.org/dc/elements/1.1/"
   xmlns:cc="http://creativecommons.org/ns#"
   xmlns:rdf="http://www.w3.org/1999/02/22-rdf-syntax-ns#"
   xmlns:svg="http://www.w3.org/2000/svg"
   xmlns="http://www.w3.org/2000/svg"
   xmlns:xlink="http://www.w3.org/1999/xlink"
   xmlns:sodipodi="http://sodipodi.sourceforge.net/DTD/sodipodi-0.dtd"
   xmlns:inkscape="http://www.inkscape.org/namespaces/inkscape"
   width="100"
   height="100"
   viewBox="0 0 26.458333 26.458333"
   version="1.1"
   id="svg5379"
   inkscape:version="0.92.0 r15299"
   sodipodi:docname="heli_icon.svg">
  <defs
     id="defs5373">
    <linearGradient
       inkscape:collect="always"
       xlink:href="#linearGradient4595"
       id="linearGradient4597-7"
       x1="887.80212"
       y1="-220.30157"
       x2="887.80212"
       y2="-276.95328"
       gradientUnits="userSpaceOnUse"
       gradientTransform="matrix(0.0536115,0,0,0.05599781,-36.595955,286.19793)" />
    <linearGradient
       inkscape:collect="always"
       id="linearGradient4595">
      <stop
         style="stop-color:#ffcc00;stop-opacity:1;"
         offset="0"
         id="stop4591" />
      <stop
         style="stop-color:#ffcc00;stop-opacity:0;"
         offset="1"
         id="stop4593" />
    </linearGradient>
  </defs>
  <sodipodi:namedview
     id="base"
     pagecolor="#ffffff"
     bordercolor="#666666"
     borderopacity="1.0"
     inkscape:pageopacity="0.0"
     inkscape:pageshadow="2"
     inkscape:zoom="3.959798"
     inkscape:cx="66.703917"
     inkscape:cy="92.047058"
     inkscape:document-units="px"
     inkscape:current-layer="layer1"
     showgrid="false"
     units="px"
     width="100px"
     inkscape:pagecheckerboard="true"
     inkscape:window-width="2560"
     inkscape:window-height="1377"
     inkscape:window-x="-8"
     inkscape:window-y="-8"
     inkscape:window-maximized="1" />
  <metadata
     id="metadata5376">
    <rdf:RDF>
      <cc:Work
         rdf:about="">
        <dc:format>image/svg+xml</dc:format>
        <dc:type
           rdf:resource="http://purl.org/dc/dcmitype/StillImage" />
        <dc:title></dc:title>
      </cc:Work>
    </rdf:RDF>
  </metadata>
  <g
     inkscape:label="Layer 1"
     inkscape:groupmode="layer"
     id="layer1"
     transform="translate(0,-270.54167)">
    <path
       style="fill:#121212;stroke-width:0.06000013"
       d="m 20.786462,287.22969 c -0.0346,-0.0417 -0.09592,-0.21044 -0.136272,-0.375 -0.100252,-0.40885 -0.328831,-0.85071 -0.482689,-0.93304 -0.195509,-0.1047 -1.046184,-0.22585 -1.155534,-0.16466 -0.06129,0.0343 -0.142727,0.0223 -0.23098,-0.0339 -0.145965,-0.0931 -1.318864,-0.25841 -3.256321,-0.45904 -0.660002,-0.0683 -1.308003,-0.14935 -1.440003,-0.17998 -0.425259,-0.0987 -0.497303,-0.0786 -0.626227,0.17404 -0.128485,0.25185 -0.217285,0.30739 -0.491411,0.30739 -0.219351,0 -0.472365,-0.23694 -0.472365,-0.44236 0,-0.0813 -0.01639,-0.19053 -0.03642,-0.24272 -0.04245,-0.11058 -0.182971,-0.12675 -0.216919,-0.025 -0.01464,0.0439 -0.06722,0.023 -0.141163,-0.0564 -0.113859,-0.12221 -1.048543,-0.37355 -1.389179,-0.37355 -0.172548,0 -0.246317,0.17948 -0.211321,0.51414 0.02083,0.19923 -0.004,0.27925 -0.135071,0.435 -0.3778936,0.4491 -0.9360153,0.0425 -0.8380822,-0.61058 0.046272,-0.30856 -0.019276,-0.37878 -0.5990784,-0.64167 -0.318716,-0.1445 -0.4587279,-0.17788 -0.6196866,-0.14767 -0.1691909,0.0317 -0.2373051,0.012 -0.3655156,-0.10592 -0.086667,-0.0797 -0.3247807,-0.2446 -0.5291427,-0.36638 -0.8248185,-0.49151 -0.9560866,-1.0316 -0.3285418,-1.35175 0.1254743,-0.064 0.2622878,-0.15753 0.3040282,-0.20783 0.041737,-0.0504 0.2019351,-0.10991 0.3559869,-0.13256 0.1540518,-0.0226 0.3374158,-0.0624 0.4074766,-0.0885 0.073713,-0.0275 0.1533251,-0.0215 0.1889605,0.0142 0.037023,0.0371 0.1178273,0.0419 0.2026186,0.0122 0.077572,-0.0273 0.1936914,-0.0501 0.2580412,-0.0509 0.073667,-7.7e-4 0.1298377,-0.0555 0.1516562,-0.14704 0.019058,-0.0801 0.06766,-0.15655 0.1079982,-0.17001 0.090627,-0.0302 0.092727,0.0173 0.00779,0.17594 -0.094206,0.17604 0.017796,0.25816 0.6110319,0.44807 0.067667,0.0216 0.1681584,-0.0854 0.345001,-0.3674 0.137241,-0.2189 0.249528,-0.43693 0.249528,-0.48452 0,-0.11377 -0.6293527,-0.1159 -0.8333974,-0.003 -0.1226618,0.068 -0.157718,0.0654 -0.2424457,-0.0171 -0.088869,-0.0866 -0.089548,-0.10415 -0.00658,-0.16971 0.050848,-0.0401 0.2051231,-0.0739 0.3428421,-0.075 0.1791186,-10e-4 0.3022805,-0.0456 0.4326605,-0.15528 0.1468235,-0.12354 0.2051945,-0.14109 0.3002035,-0.0903 0.169438,0.0907 1.746745,0.0111 1.746745,-0.0884 0,-0.10026 -0.118429,-0.1903 -0.315337,-0.23971 -0.252711,-0.0634 -0.197496,-0.133 0.165337,-0.20832 0.227318,-0.0472 0.329999,-0.0973 0.329999,-0.16082 0,-0.0736 -0.0456,-0.0844 -0.225,-0.0533 -0.123749,0.0214 -0.279,0.0411 -0.345,0.0437 -0.132598,0.006 -11.13685276,-1.43014 -11.358809,-1.4816 -0.32262803,-0.0749 0.00488,-0.55445 0.4558244,-0.66764 0.0792901,-0.0199 1.9978977,0.27728 4.2635734,0.66037 7.3729372,1.24672 7.2482912,1.2313 8.2815862,1.02409 0.111194,-0.0223 0.340695,-0.008 0.51,0.0332 0.299506,0.0718 0.422834,0.0484 4.56083,-0.86359 4.17533,-0.92019 4.259408,-0.93605 4.603926,-0.86827 0.394388,0.0776 0.625271,0.20316 0.473094,0.25731 -0.0495,0.0176 -1.993505,0.39785 -4.32001,0.84499 -2.326504,0.44713 -4.294972,0.82772 -4.374372,0.84576 -0.135711,0.0308 -0.138264,0.0388 -0.04259,0.1343 0.09447,0.0942 0.515147,0.10004 5.864912,0.0806 5.485352,-0.0199 5.762148,-0.0158 5.742601,0.0852 -0.01129,0.0583 -0.142037,0.17142 -0.290538,0.25129 -0.259591,0.13959 -0.307859,0.14442 -1.252006,0.12481 l -0.982005,-0.0203 -0.231729,0.78 c -0.268219,0.90284 -0.282242,1.01332 -0.122171,0.96251 0.07944,-0.0253 0.143857,0.013 0.221129,0.13096 0.05997,0.0916 0.171528,0.21575 0.247907,0.27589 0.07637,0.0601 0.138871,0.17196 0.138871,0.24849 0,0.10647 0.05674,0.16184 0.242005,0.23596 0.256596,0.1027 0.356126,0.24207 0.249188,0.349 -0.04633,0.0462 -0.151519,0.0274 -0.369754,-0.0664 -0.167757,-0.0721 -0.329009,-0.11639 -0.35834,-0.0983 -0.07134,0.0441 -0.5431,0.86546 -0.5431,0.94558 0,0.0347 0.04392,0.0953 0.0976,0.13447 0.08076,0.059 0.08515,0.0946 0.02538,0.2063 -0.145973,0.27276 -0.06596,0.30557 0.745142,0.30557 0.836951,0 0.910554,0.0306 1.087145,0.45333 0.141982,0.33982 0.11461,0.4316 -0.14026,0.47026 -1.267801,0.19234 -1.762919,0.22974 -2.445005,0.18468 -0.852674,-0.0563 -1.513393,-0.0414 -1.660937,0.0376 -0.214354,0.11472 -0.246708,0.27983 -0.110124,0.56197 0.06961,0.1438 0.165831,0.27652 0.213813,0.29494 0.04798,0.0184 0.08724,0.10991 0.08724,0.20336 0,0.26754 -0.206561,0.40876 -0.348213,0.23808 z m 0.994108,-2.84921 c 0.489494,-0.56714 0.903579,-1.15047 0.942509,-1.3277 0.07734,-0.35211 -0.03344,-0.46453 -0.82765,-0.8399 -0.738911,-0.34924 -0.889822,-0.47539 -0.728677,-0.60913 0.06763,-0.0561 0.226366,0.004 0.779266,0.29734 l 0.694326,0.36783 0.179639,-0.10614 c 0.0988,-0.0583 0.196121,-0.17389 0.216268,-0.25672 0.02015,-0.0829 0.122879,-0.45533 0.228292,-0.82778 0.105409,-0.37244 0.175568,-0.68693 0.155899,-0.69886 -0.04502,-0.0273 -5.578837,-0.15498 -7.385775,-0.1704 -0.742502,-0.007 -1.552504,0.003 -1.800004,0.0216 -0.415516,0.0306 -0.454149,0.0449 -0.504115,0.18695 -0.103912,0.29538 -0.02031,0.36206 0.399066,0.31831 0.333576,-0.0348 0.443738,-0.0151 0.996227,0.17823 0.341647,0.11956 0.881648,0.3343 1.200003,0.47721 0.318352,0.14292 0.778294,0.33634 1.022091,0.42984 0.243797,0.0935 0.510443,0.22287 0.592545,0.28745 0.136781,0.10758 0.140792,0.12362 0.04791,0.19154 -0.08738,0.0639 -0.09203,0.1088 -0.03375,0.32521 0.10948,0.40657 0.188316,0.53543 0.412259,0.67383 0.265336,0.16399 2.953125,1.41973 3.046836,1.4235 0.03799,10e-4 0.203057,-0.1525 0.366828,-0.34223 z m -11.505915,0.022 c 0,-0.0832 -0.173886,-0.15464 -0.3800017,-0.15617 -0.1541393,-10e-4 -0.091413,0.13739 0.084447,0.18655 0.2319397,0.0648 0.2955537,0.0582 0.2955537,-0.0304 z m 5.296781,-1.14699 c 0.02572,-0.19801 0.03139,-0.44703 0.01259,-0.5534 -0.03041,-0.17205 -0.06833,-0.20354 -0.343517,-0.28526 -0.170131,-0.0506 -0.328375,-0.0715 -0.351653,-0.0466 -0.02328,0.025 -0.05175,0.28551 -0.06325,0.57914 l -0.02093,0.53391 0.210001,0.0779 c 0.1155,0.0428 0.277499,0.0725 0.36,0.0661 0.136183,-0.0111 0.154308,-0.0449 0.196772,-0.37174 z m -1.013304,-0.27718 c 0.08905,-0.66148 0.01575,-0.78362 -0.51847,-0.86372 l -0.285,-0.0427 v 0.56946 c 0,0.67826 0.07002,0.76961 0.57,0.74355 0.175089,-0.009 0.18146,-0.0202 0.23347,-0.40656 z m -5.2653824,0.19203 c 0.1207974,-0.0736 0.2253307,-0.21219 0.2921578,-0.38718 0.1931566,-0.50576 0.00776,-0.72107 -0.5903178,-0.68543 -0.2429618,0.0145 -0.3201055,0.0478 -0.418997,0.18063 -0.1077953,0.14486 -0.1132705,0.18937 -0.049477,0.4023 0.085239,0.28449 0.3390187,0.60492 0.4788681,0.60459 0.054819,-1.1e-4 0.1843106,-0.0519 0.2877659,-0.11491 z m 3.6919454,-0.27486 c 0.02676,-0.099 0.06584,-0.38314 0.08681,-0.63144 0.02927,-0.34636 0.01894,-0.46723 -0.04435,-0.51932 -0.137538,-0.1132 -0.778462,-0.27727 -0.840555,-0.21518 -0.03083,0.0308 -0.04839,0.36414 -0.03901,0.74068 l 0.01706,0.68462 0.299999,0.0702 c 0.404689,0.0947 0.463351,0.0801 0.520038,-0.12958 z m -1.692149,-0.62606 c 0.127867,-0.23891 0.0202,-0.85793 -0.166619,-0.95791 -0.05692,-0.0305 -0.19982,-0.0734 -0.317569,-0.0955 -0.213236,-0.04 -0.215121,-0.0385 -0.473031,0.38839 -0.310402,0.51374 -0.293551,0.54853 0.329329,0.68001 0.559754,0.11813 0.556636,0.11821 0.62789,-0.015 z m 1.982115,-1.68394 c 0,-0.0329 -0.027,-0.06 -0.05999,-0.06 -0.033,0 -0.06,0.0271 -0.06,0.06 0,0.0329 0.027,0.06 0.06,0.06 0.033,0 0.05999,-0.0271 0.05999,-0.06 z m -0.555001,-0.075 c -0.01374,-0.0413 -0.043,-0.0682 -0.06499,-0.06 -0.02199,0.008 -0.0821,0.015 -0.133541,0.015 -0.05144,0 -0.07686,0.0271 -0.05646,0.06 0.05442,0.0881 0.284834,0.0744 0.254999,-0.015 z m -3.885009,0.615 c 0,-0.0329 0.042093,-0.06 0.093542,-0.06 0.051452,0 0.076857,0.0271 0.05646,0.06 -0.020396,0.0329 -0.06249,0.06 -0.093542,0.06 -0.031055,0 -0.05646,-0.0271 -0.05646,-0.06 z"
       id="path6073"
       inkscape:connector-curvature="0" />
  </g>
</svg>
