<?xml version="1.0" encoding="UTF-8" standalone="no"?>
<!-- Created with Inkscape (http://www.inkscape.org/) -->

<svg
   xmlns:dc="http://purl.org/dc/elements/1.1/"
   xmlns:cc="http://creativecommons.org/ns#"
   xmlns:rdf="http://www.w3.org/1999/02/22-rdf-syntax-ns#"
   xmlns:svg="http://www.w3.org/2000/svg"
   xmlns="http://www.w3.org/2000/svg"
   xmlns:xlink="http://www.w3.org/1999/xlink"
   xmlns:sodipodi="http://sodipodi.sourceforge.net/DTD/sodipodi-0.dtd"
   xmlns:inkscape="http://www.inkscape.org/namespaces/inkscape"
   width="100"
   height="100"
   viewBox="0 0 26.458333 26.458333"
   version="1.1"
   id="svg5379"
   inkscape:version="0.92.0 r15299"
   sodipodi:docname="infantry_icon.svg">
  <defs
     id="defs5373">
    <linearGradient
       inkscape:collect="always"
       xlink:href="#linearGradient4595"
       id="linearGradient4597-7"
       x1="887.80212"
       y1="-220.30157"
       x2="887.80212"
       y2="-276.95328"
       gradientUnits="userSpaceOnUse"
       gradientTransform="matrix(0.0536115,0,0,0.05599781,-36.595955,286.19793)" />
    <linearGradient
       inkscape:collect="always"
       id="linearGradient4595">
      <stop
         style="stop-color:#ffcc00;stop-opacity:1;"
         offset="0"
         id="stop4591" />
      <stop
         style="stop-color:#ffcc00;stop-opacity:0;"
         offset="1"
         id="stop4593" />
    </linearGradient>
  </defs>
  <sodipodi:namedview
     id="base"
     pagecolor="#ffffff"
     bordercolor="#666666"
     borderopacity="1.0"
     inkscape:pageopacity="0.0"
     inkscape:pageshadow="2"
     inkscape:zoom="5.6"
     inkscape:cx="66.033907"
     inkscape:cy="42.427724"
     inkscape:document-units="px"
     inkscape:current-layer="layer1"
     showgrid="false"
     units="px"
     width="100px"
     inkscape:pagecheckerboard="true"
     inkscape:window-width="2560"
     inkscape:window-height="1377"
     inkscape:window-x="-8"
     inkscape:window-y="-8"
     inkscape:window-maximized="1" />
  <metadata
     id="metadata5376">
    <rdf:RDF>
      <cc:Work
         rdf:about="">
        <dc:format>image/svg+xml</dc:format>
        <dc:type
           rdf:resource="http://purl.org/dc/dcmitype/StillImage" />
        <dc:title></dc:title>
      </cc:Work>
    </rdf:RDF>
  </metadata>
  <g
     inkscape:label="Layer 1"
     inkscape:groupmode="layer"
     id="layer1"
     transform="translate(0,-270.54167)">
    <path
       style="fill:#030303;stroke-width:0.05096267"
       d="m 0.1370206,288.19883 v -0.71347 h 0.38709788 c 0.26478094,0 0.43110498,-0.026 0.52637072,-0.0823 0.1281825,-0.0757 0.1519428,-0.0757 0.2983674,0 0.1019285,0.0527 0.2871499,0.0823 0.5154744,0.0823 0.4019247,0 0.4693581,-0.0509 0.5724565,-0.4324 0.047327,-0.17511 0.042705,-0.21019 -0.033574,-0.25481 -0.048651,-0.0285 -0.1484481,-0.10003 -0.2217744,-0.15903 -0.073326,-0.059 -0.2152396,-0.13397 -0.3153634,-0.16659 -0.2898736,-0.0944 -0.4895824,-0.34101 -0.5917785,-0.73066 -0.076346,-0.29108 -0.079779,-0.36743 -0.023521,-0.52302 0.063308,-0.17508 0.055498,-0.20307 -0.2001538,-0.7175 l -0.26603186,-0.53532 -0.0247811,-0.72993 c -0.0145513,-0.42859 -0.004289,-0.76653 0.0248186,-0.81857 0.0349305,-0.0624 0.059109,0.12752 0.0817525,0.64221 0.0176824,0.40195 0.0585418,0.86086 0.0907952,1.0198 0.059133,0.29137 0.25921726,0.6006 0.45717346,0.70655 0.088735,0.0475 0.092781,0.0404 0.046431,-0.0815 -0.027923,-0.0734 -0.055458,-0.28905 -0.061187,-0.47912 -0.00923,-0.30607 0.0054,-0.36632 0.1279422,-0.52698 0.076098,-0.0998 0.1383593,-0.21625 0.1383593,-0.25885 0,-0.0426 0.025655,-0.13375 0.057008,-0.20256 0.044758,-0.0982 0.034378,-0.23022 -0.048318,-0.61424 -0.095376,-0.44291 -0.132483,-0.52519 -0.392779,-0.87105 -0.1580984,-0.21006 -0.30568056,-0.38193 -0.32796046,-0.38193 -0.0897063,0 -0.0900286,0.29961 -6.97e-4,0.62429 0.052071,0.1892 0.084787,0.344 0.072701,0.344 -0.012085,0 -0.070611,-0.10347 -0.13005793,-0.22994 -0.0866824,-0.18441 -0.10373484,-0.29794 -0.0861178,-0.57333 0.021398,-0.33449 0.0161919,-0.35232 -0.20069697,-0.68781 -0.12246541,-0.18944 -0.21027483,-0.36448 -0.19513219,-0.38898 0.015141,-0.0245 -0.0146049,-0.0988 -0.0661015,-0.1652 -0.0514977,-0.0664 -0.12145961,-0.17799 -0.15547064,-0.24806 -0.0558336,-0.11504 -0.0479109,-0.11231 0.0815868,0.0281 0.46480343,0.50394 1.13910753,1.29348 1.49334813,1.74856 0.4416657,0.56738 0.6766407,0.82244 0.7576726,0.82244 0.096949,0 0.1271101,-0.21765 0.03908,-0.28202 -0.045477,-0.0333 -0.082689,-0.0839 -0.082689,-0.11261 0,-0.0287 -0.04753,-0.0646 -0.1056189,-0.0798 -0.094728,-0.0248 -0.1019392,-0.0522 -0.069936,-0.26557 0.080388,-0.53607 0.1493815,-0.70782 0.3316932,-0.82571 0.096315,-0.0623 0.2114421,-0.14829 0.2558379,-0.19112 0.098043,-0.0946 0.1807654,-0.0995 0.235265,-0.0139 0.022417,0.0352 0.1231287,0.12534 0.2238091,0.2003 0.1628776,0.12127 0.1895476,0.17461 0.241952,0.48384 0.032395,0.19115 0.073775,0.40176 0.09196,0.46802 0.027843,0.10145 0.017806,0.11571 -0.063582,0.0904 -0.1347386,-0.042 -0.2054184,0.0171 -0.2464021,0.20608 -0.029569,0.13634 -0.016417,0.17246 0.082782,0.22742 0.064866,0.0359 0.1351369,0.0605 0.1561591,0.0545 0.021023,-0.006 0.038222,0.0236 0.038222,0.0656 0,0.042 0.022931,0.0765 0.050962,0.0765 0.02803,0 0.050962,0.0344 0.050962,0.0764 0,0.042 0.031172,0.0764 0.069269,0.0764 0.1692611,0 0.5316824,0.41308 0.7679115,0.87526 0.2290467,0.44812 0.2399966,0.48805 0.2067775,0.75392 -0.019291,0.15441 -0.074116,0.33834 -0.1218306,0.40874 -0.1785371,0.26339 -0.2633811,0.54346 -0.2780792,0.91791 -0.017559,0.44733 -0.1292243,0.74561 -0.304004,0.81206 -0.1414963,0.0538 -0.1751786,0.19957 -0.1361937,0.58941 l 0.025483,0.25481 0.4144016,0.005 c 0.2279208,0.003 0.7134718,0.0215 1.0790017,0.0413 l 0.6646002,0.0361 0.016696,-0.11652 c 0.00918,-0.0641 0.068138,-0.14207 0.1310107,-0.17329 0.1763271,-0.0876 0.3035123,-0.21887 0.3718957,-0.38396 0.053487,-0.12913 0.049359,-0.16485 -0.02907,-0.25151 -0.087458,-0.0966 -0.087599,-0.11919 -0.00327,-0.52107 0.048479,-0.23103 0.145992,-0.60528 0.2166943,-0.83167 0.1246846,-0.39924 0.1261129,-0.41982 0.047509,-0.6845 -0.099766,-0.33595 -0.1030142,-0.5963 -0.010251,-0.8215 0.038936,-0.0945 0.086781,-0.29799 0.106325,-0.45215 0.019543,-0.15416 0.07873,-0.45341 0.1315238,-0.66498 0.090123,-0.36119 0.089024,-0.76197 -0.00209,-0.76197 -0.020267,0 -0.097534,-0.0562 -0.1717011,-0.12498 -0.1197906,-0.11102 -0.1348501,-0.16284 -0.1348501,-0.46405 0,-0.34251 -0.1059856,-0.85205 -0.2268255,-1.09048 -0.084666,-0.16706 -0.150405,-0.61382 -0.090322,-0.61382 0.02521,0 0.06957,0.13187 0.098577,0.29304 l 0.052742,0.29303 -0.00198,-0.33125 c -0.00118,-0.19436 -0.033075,-0.38658 -0.077255,-0.46514 -0.067255,-0.11956 -0.066355,-0.14664 0.00843,-0.25341 0.048152,-0.0688 0.083395,-0.21757 0.082947,-0.35027 -4.627e-4,-0.13674 -0.017527,-0.20435 -0.041884,-0.16597 -0.022604,0.0356 -0.030883,-0.12992 -0.018396,-0.36787 l 0.022706,-0.43263 -0.2101574,-0.0336 c -0.1278028,-0.0204 -0.2101553,-0.061 -0.2101553,-0.10353 0,-0.0384 0.0172,-0.0703 0.038223,-0.0707 0.138772,-0.003 0.1658924,-0.0876 0.093599,-0.29248 -0.064927,-0.18402 -0.064768,-0.21724 0.00129,-0.27208 0.086151,-0.0715 0.068244,-0.20494 -0.093563,-0.6972 -0.057802,-0.17584 -0.089968,-0.33485 -0.071479,-0.35333 0.057112,-0.0571 0.1107333,0.0465 0.2343531,0.45292 0.094282,0.30996 0.1426093,0.39732 0.2322357,0.41981 0.072495,0.0182 0.1152724,0.0699 0.1190046,0.1437 0.00322,0.0634 0.057904,0.34365 0.121555,0.62274 0.1025055,0.44947 0.1297202,0.51076 0.238178,0.53636 0.1549147,0.0366 0.3422153,0.5247 0.2643531,0.68893 -0.1136237,0.23966 -0.102952,0.53343 0.026556,0.73109 0.00635,0.01 0.1519599,-0.0992 0.3235844,-0.24208 0.1716218,-0.14282 0.3554164,-0.25968 0.408431,-0.25968 0.2524365,0 0.3502688,-0.52727 0.1351996,-0.72866 -0.1129578,-0.10576 -0.118041,-0.1365 -0.088303,-0.5338 l 0.031553,-0.42158 0.22845,-0.20055 c 0.125647,-0.11029 0.2458016,-0.20152 0.2670081,-0.20271 0.02121,-0.001 0.088136,0.0549 0.1487301,0.12454 0.060765,0.0699 0.1920252,0.14101 0.2926986,0.1586 0.2936921,0.0513 0.4118597,0.15102 0.4118597,0.34745 0,0.10492 -0.029462,0.18304 -0.075726,0.2008 -0.058487,0.0225 -0.068511,0.0817 -0.044034,0.26026 0.025285,0.18448 0.016439,0.23121 -0.043782,0.23121 -0.1659707,0 -0.4294681,0.50731 -0.2879917,0.55447 0.032046,0.0107 0.1410197,0.0936 0.2421611,0.18419 0.101141,0.0906 0.2564368,0.20186 0.3451019,0.24719 0.1212757,0.062 0.1821594,0.14549 0.245788,0.33706 0.04652,0.14005 0.07186,0.27523 0.05631,0.30038 -0.01555,0.0251 0.0087,0.15411 0.05378,0.28656 0.06432,0.18878 0.07048,0.281 0.02851,0.42681 -0.07543,0.26201 -0.1781883,1.1186 -0.1446646,1.20596 0.01536,0.04 -0.0055,0.1062 -0.046351,0.14705 -0.040855,0.0409 -0.074278,0.14191 -0.074278,0.22457 0,0.0827 -0.033274,0.17791 -0.073947,0.21166 -0.040673,0.0338 -0.089408,0.16448 -0.108305,0.29049 -0.030834,0.20561 -0.1770097,0.42506 -0.2831325,0.42506 -0.021157,0 -0.074163,-0.051 -0.1177972,-0.11327 -0.077297,-0.11035 -0.079333,-0.11057 -0.079333,-0.008 0,0.0576 0.01698,0.12175 0.037729,0.1425 0.068213,0.0682 0.049841,0.81389 -0.027741,1.12592 -0.098926,0.39789 -0.094769,1.04009 0.00929,1.43431 0.1121627,0.42494 0.1099623,0.81318 -0.00499,0.87751 -0.1231141,0.0689 -0.095509,0.32793 0.070422,0.66082 l 0.1353873,0.27161 0.3103869,-0.036 c 0.1707119,-0.0198 0.5511851,-0.0343 0.8454941,-0.032 0.29431,0.002 0.661767,-0.008 0.816573,-0.0226 0.246556,-0.0234 0.292381,-0.0457 0.369479,-0.18001 0.116621,-0.2032 0.11149,-0.47362 -0.01222,-0.64404 -0.104005,-0.14329 -0.118225,-0.27507 -0.108377,-1.00445 0.0067,-0.49393 -0.05163,-0.76036 -0.201197,-0.91958 -0.120389,-0.12814 -0.1209,-0.16787 -0.01778,-1.38405 0.02715,-0.32018 0.01791,-0.38384 -0.07237,-0.49861 -0.106168,-0.13497 -0.102217,-0.20121 0.03238,-0.54275 0.04319,-0.1096 0.03096,-0.17562 -0.06645,-0.3586 -0.103591,-0.19459 -0.113308,-0.25681 -0.07344,-0.47021 0.02527,-0.13527 0.03281,-0.29829 0.01675,-0.36226 -0.02291,-0.0913 0.004,-0.1359 0.12477,-0.20727 0.127944,-0.0756 0.145213,-0.10731 0.102183,-0.18771 -0.02848,-0.0532 -0.0399,-0.12772 -0.02538,-0.16556 0.02335,-0.0609 -0.137142,-0.20688 -0.498955,-0.45402 -0.07388,-0.0505 -0.103833,-0.14523 -0.121023,-0.38289 -0.01971,-0.27247 -0.0039,-0.3507 0.115432,-0.56988 0.07605,-0.13974 0.124258,-0.2906 0.107126,-0.33524 -0.03833,-0.0999 0.09948,-0.32163 0.199876,-0.32163 0.04041,0 0.100233,-0.05 0.132935,-0.1111 0.07372,-0.13774 0.02967,-0.7366 -0.07805,-1.06104 -0.122455,-0.36883 -0.344727,-1.79392 -0.288561,-1.85008 0.111464,-0.11146 0.202605,0.0194 0.283545,0.40718 0.04571,0.21899 0.127864,0.49624 0.182559,0.61612 0.0547,0.11987 0.100346,0.28041 0.101445,0.35674 0.0032,0.2216 0.327751,1.656 0.404417,1.78732 0.03511,0.0602 0.04959,-0.0137 0.0507,-0.25863 0.0014,-0.31205 0.01344,-0.35061 0.133936,-0.42957 0.161145,-0.10558 0.54804,-0.11868 0.767611,-0.026 0.153478,0.0648 0.16534,0.0908 0.252653,0.5544 l 0.09161,0.48642 -0.137988,0.11003 c -0.07589,0.0605 -0.137986,0.13918 -0.137986,0.17482 0,0.0357 -0.02293,0.0506 -0.05096,0.0333 -0.02974,-0.0184 -0.05096,0.0335 -0.05096,0.1244 0,0.1451 0.01323,0.15631 0.19111,0.16192 0.187934,0.006 0.188569,0.007 0.03822,0.0419 -0.151958,0.0356 -0.151026,0.0368 0.152888,0.18595 0.239319,0.11746 0.346906,0.2108 0.495019,0.42949 0.238128,0.3516 0.413257,0.84149 0.345847,0.96745 -0.03169,0.0592 -0.024,0.21915 0.02235,0.46552 0.103899,0.55216 0.147268,1.22076 0.08898,1.37182 -0.03151,0.0817 -0.132749,0.16604 -0.271873,0.2266 -0.121916,0.0531 -0.229394,0.10162 -0.238841,0.1079 -0.0094,0.006 0.02181,0.26453 0.06944,0.57389 0.06717,0.43618 0.07389,0.59901 0.02992,0.72514 -0.07755,0.22245 -0.07116,0.63058 0.01509,0.96488 0.09897,0.38361 0.113688,0.90871 0.03031,1.08136 -0.08573,0.17753 0.0036,0.37377 0.2244,0.49295 0.08147,0.044 0.189,0.11868 0.238955,0.16601 0.08534,0.0809 0.103473,0.08 0.300318,-0.0151 0.243767,-0.11777 0.297806,-0.21416 0.183914,-0.32805 -0.09305,-0.0931 -0.09604,-0.11623 -0.08186,-0.63378 0.0071,-0.26066 0.04191,-0.44295 0.109877,-0.57619 0.0801,-0.15702 0.104707,-0.33903 0.126579,-0.93639 0.01616,-0.44132 0.05649,-0.82466 0.09964,-0.94694 0.03987,-0.113 0.140806,-0.52911 0.224306,-0.92468 0.0835,-0.39557 0.166437,-0.77116 0.184305,-0.83465 0.02385,-0.0847 0.01391,-0.10882 -0.03736,-0.0906 -0.137601,0.0489 -0.350141,-0.2128 -0.350141,-0.43107 0,-0.0894 -0.02026,-0.10228 -0.114266,-0.0725 -0.104881,0.0333 -0.108078,0.0288 -0.03892,-0.0545 0.06798,-0.0819 0.06307,-0.0988 -0.05025,-0.17298 -0.266084,-0.17413 -0.317019,-0.2582 -0.291982,-0.48191 0.01304,-0.11651 0.118331,-0.45977 0.23398,-0.76279 0.115651,-0.30303 0.224163,-0.64703 0.241139,-0.76444 0.01698,-0.11742 0.06289,-0.32659 0.102031,-0.46481 0.09863,-0.34832 0.09567,-0.79342 -0.0053,-0.79342 -0.06049,0 -0.07644,-0.0727 -0.07644,-0.34824 0,-0.38824 0.03948,-0.47643 0.135693,-0.30313 0.05572,0.10037 0.06479,0.0487 0.06635,-0.37761 10e-4,-0.27163 0.02161,-0.50612 0.04582,-0.52108 0.04863,-0.0301 0.107739,0.37396 0.108429,0.74116 2.5e-4,0.14388 0.02939,0.25986 0.07468,0.29745 0.06153,0.051 0.06897,0.19007 0.04344,0.81195 -0.02717,0.66195 -0.02029,0.76638 0.05846,0.88656 0.07204,0.10996 0.07892,0.16588 0.03566,0.28999 -0.06191,0.17759 -0.03363,0.18715 0.228999,0.0774 0.144137,-0.0602 0.177006,-0.0981 0.155706,-0.17958 -0.01989,-0.0761 -0.0047,-0.0996 0.05773,-0.0893 0.06274,0.0103 0.08904,-0.0313 0.10134,-0.16026 0.01924,-0.20174 -0.127445,-0.56475 -0.2282,-0.56475 -0.08385,0 -0.08654,-0.11566 -0.01089,-0.4684 0.0689,-0.32125 0.172167,-0.49297 0.333314,-0.55423 0.06517,-0.0248 0.1185,-0.08 0.1185,-0.12276 0,-0.0963 0.08279,-0.10153 0.137615,-0.009 0.02242,0.038 0.109554,0.0913 0.193643,0.11847 0.128675,0.0417 0.182254,0.11751 0.338318,0.47889 0.101986,0.23615 0.174589,0.4475 0.16134,0.46966 -0.01325,0.0221 -0.06803,0.0263 -0.121727,0.009 -0.07803,-0.0248 -0.09764,-0.006 -0.09764,0.0936 0,0.0685 -0.0344,0.15316 -0.07644,0.18805 -0.122047,0.10129 -0.09881,0.43722 0.03682,0.53221 0.0623,0.0437 0.152888,0.0793 0.201318,0.0793 0.04843,0 0.106393,0.031 0.128808,0.069 0.02242,0.038 0.09207,0.0959 0.154783,0.12885 0.187742,0.0985 0.468004,0.59171 0.548304,0.96482 0.137346,0.63817 0.201208,1.50155 0.129393,1.74932 -0.03542,0.12221 -0.07562,0.3254 -0.08932,0.45154 -0.0137,0.12613 -0.05805,0.26675 -0.09855,0.31249 -0.0405,0.0457 -0.09683,0.16715 -0.125178,0.26982 -0.03822,0.13841 -0.09727,0.20847 -0.228436,0.27101 -0.123348,0.0588 -0.167669,0.10827 -0.146415,0.16337 0.138972,0.36023 0.143309,0.49748 0.02494,0.78914 -0.131135,0.32309 -0.154505,0.79933 -0.08028,1.63595 l 0.04085,0.46047 -0.184814,0.16227 c -0.199742,0.17537 -0.230991,0.32348 -0.129607,0.61432 0.04714,0.13521 0.07508,0.15461 0.19111,0.13268 0.07475,-0.0142 0.240764,-0.005 0.368929,0.0194 0.135682,0.0262 0.284326,0.0261 0.355828,-3.8e-4 0.07982,-0.0295 0.129064,-0.0266 0.140699,0.008 0.02038,0.0611 0.805897,0.0756 0.841288,0.0154 0.01238,-0.021 0.03834,-0.11212 0.05771,-0.20243 0.02962,-0.13814 0.01236,-0.18669 -0.108674,-0.30578 -0.136847,-0.13465 -0.142961,-0.16026 -0.125007,-0.52379 0.0291,-0.5892 0.02023,-1.45821 -0.01972,-1.93156 -0.02252,-0.26687 -0.01317,-0.57052 0.02483,-0.8061 0.04623,-0.28659 0.04688,-0.43666 0.0027,-0.62092 -0.05272,-0.21975 -0.04629,-0.27013 0.06732,-0.527 0.117368,-0.26539 0.119581,-0.28559 0.03374,-0.30804 -0.132973,-0.0348 -0.277577,-0.28108 -0.264646,-0.45079 0.009,-0.11758 -0.0096,-0.14608 -0.09495,-0.14608 -0.177935,0 -0.28708,-0.0892 -0.373551,-0.30532 -0.141243,-0.353 -0.07407,-0.83643 0.141023,-1.01494 0.1852,-0.1537 0.304875,-0.85786 0.316949,-1.8649 0.0107,-0.89247 0.07698,-1.8115 0.128348,-1.77976 0.02452,0.0152 0.04459,0.21805 0.04459,0.45086 0,0.36178 0.01666,0.44451 0.114666,0.5692 0.110409,0.14047 0.114015,0.1778 0.09715,1.00559 l -0.01752,0.85971 0.119444,-0.0378 c 0.06569,-0.0207 0.149411,-0.0803 0.186037,-0.13235 0.03662,-0.0521 0.105426,-0.0964 0.152888,-0.0986 0.05307,-0.003 0.06177,-0.0139 0.02259,-0.0298 -0.03504,-0.0142 -0.0637,-0.067 -0.0637,-0.11744 0,-0.0505 -0.04587,-0.10373 -0.101925,-0.11838 -0.148267,-0.0388 -0.139926,-0.45029 0.01466,-0.72323 0.183067,-0.32323 0.48214,-0.41564 0.822473,-0.25415 0.130995,0.0622 0.181917,0.13321 0.249775,0.34848 0.105453,0.33454 0.107985,0.48524 0.0088,0.5233 -0.04204,0.0161 -0.07644,0.07 -0.07644,0.11957 0,0.0496 -0.03312,0.11772 -0.07359,0.15131 -0.141978,0.11783 0.09236,0.45107 0.485476,0.69037 0.195806,0.11918 0.342931,0.39206 0.535658,0.99348 0.0764,0.23841 0.206269,0.64271 0.288598,0.89845 0.141095,0.43828 0.146482,0.48567 0.09381,0.82517 -0.03074,0.1981 -0.05588,0.51058 -0.05588,0.69442 0,0.26628 -0.02072,0.35495 -0.101926,0.43616 -0.05606,0.056 -0.12222,0.10192 -0.147026,0.10192 -0.09591,0 -0.209712,-0.26176 -0.209712,-0.48235 0,-0.12712 -0.02013,-0.23113 -0.04473,-0.23113 -0.06787,0 -0.171623,0.14241 -0.140476,0.19281 0.0581,0.094 0.24554,1.548 0.287216,2.22792 0.02564,0.41838 0.07491,0.78725 0.119115,0.89185 0.102407,0.2423 0.279064,0.45866 0.374499,0.45866 0.06845,0 0.06723,-0.0174 -0.0094,-0.13437 -0.08794,-0.13422 -0.08789,-0.13433 0.04198,-0.10174 0.153809,0.0386 0.217861,-0.0318 0.110226,-0.12109 -0.08431,-0.07 -0.105241,-0.17658 -0.02492,-0.12694 0.02803,0.0173 0.05135,0.002 0.05182,-0.0352 3.85e-4,-0.0367 0.05047,0.0108 0.111104,0.10551 0.1064,0.16622 0.111692,0.1683 0.151787,0.0599 0.05132,-0.13873 0.228589,-0.12212 0.203741,0.0191 -0.0092,0.0521 0.01377,0.11394 0.05096,0.13752 0.104756,0.0664 0.143918,0.0524 0.108858,-0.039 -0.0217,-0.0566 -0.0095,-0.0759 0.03786,-0.0601 0.03843,0.0128 0.07075,0.0885 0.07182,0.16809 0.0027,0.20013 0.107383,0.21673 0.202826,0.0322 0.04369,-0.0845 0.07943,-0.16684 0.07943,-0.18301 0,-0.0162 -0.106402,-0.12851 -0.23645,-0.24964 -0.219373,-0.20432 -0.233979,-0.2334 -0.202226,-0.40266 0.03373,-0.17979 0.21851,-0.41491 0.414744,-0.52773 0.09687,-0.0557 0.09548,-0.0616 -0.03977,-0.16933 -0.07708,-0.0614 -0.140147,-0.14571 -0.140147,-0.18737 0,-0.0417 -0.02293,-0.0616 -0.05097,-0.0442 -0.0935,0.0578 -0.02773,-0.27715 0.11133,-0.56696 0.03611,-0.0752 0.03462,-0.1407 -0.0049,-0.21453 -0.07366,-0.13763 -0.01884,-0.6544 0.0874,-0.82383 0.04394,-0.0701 0.132411,-0.16877 0.196611,-0.21933 0.0642,-0.0506 0.143843,-0.18242 0.176984,-0.29303 0.03314,-0.11062 0.09103,-0.20112 0.128633,-0.20112 0.09526,0 0.08589,-0.14937 -0.01173,-0.18682 -0.06758,-0.0259 -0.07695,-0.11354 -0.05994,-0.56066 l 0.02016,-0.52992 0.223436,-0.22766 c 0.203848,-0.20771 0.406064,-0.29768 0.406064,-0.18066 0,0.0258 0.08044,0.0736 0.17876,0.10601 0.202841,0.0669 0.279905,0.17823 0.279905,0.40422 0,0.17142 0.09692,0.20864 0.204805,0.0786 0.03542,-0.0427 0.101294,-0.0669 0.146387,-0.0539 0.05709,0.0165 0.140545,-0.0699 0.274829,-0.28437 0.106061,-0.16943 0.237927,-0.31985 0.293035,-0.33426 0.05511,-0.0144 0.100197,-0.0605 0.100197,-0.10237 0,-0.0591 0.03901,-0.0688 0.173564,-0.0436 0.145582,0.0273 0.189633,0.0121 0.273247,-0.0942 0.05483,-0.0697 0.128571,-0.19646 0.163877,-0.2817 0.03531,-0.0852 0.08434,-0.15497 0.108971,-0.15497 0.09677,0 0.03622,0.19794 -0.133589,0.43678 -0.0981,0.13799 -0.178369,0.27962 -0.178369,0.31475 0,0.0351 -0.02034,0.0639 -0.04519,0.0639 -0.02486,0 -0.07314,0.14811 -0.107296,0.32913 -0.05811,0.30797 -0.05525,0.33785 0.0445,0.46466 0.185237,0.23549 0.0609,0.26707 -0.221473,0.0562 -0.09514,-0.071 -0.11121,-0.0515 -0.322412,0.39122 -0.278596,0.58404 -0.269645,0.71544 0.07143,1.04858 0.257983,0.25198 0.46086,0.63335 0.51943,0.97643 0.03219,0.18854 0.05949,0.22365 0.214575,0.27589 l 0.177695,0.0599 -0.0044,1.09112 c -0.0024,0.60011 -0.0098,1.19431 -0.01647,1.32044 -0.0066,0.12614 0.0038,0.5332 0.02313,0.90459 l 0.03523,0.67526 H 13.189489 0.1370206 Z m 25.4155624,-0.48414 c 0.122027,-0.3571 0.125298,-0.44851 0.03691,-1.03199 -0.01805,-0.11913 -0.03999,-0.2166 -0.04877,-0.2166 -0.07578,0 -0.177184,0.0751 -0.177184,0.13126 0,0.0382 -0.03019,0.0578 -0.06709,0.0437 -0.0369,-0.0142 -0.157299,0.0468 -0.267553,0.13552 -0.279721,0.22502 -0.483756,0.30112 -0.807371,0.30112 -0.261765,0 -0.397281,0.058 -0.290204,0.12416 0.09708,0.06 0.12063,0.43381 0.03551,0.56372 -0.105797,0.16147 -0.10296,0.26709 0.008,0.29693 0.04905,0.0132 0.396688,0.0206 0.772528,0.0165 l 0.683343,-0.008 z m -2.318221,0.21659 c 0.04066,-0.0631 0.102338,-0.22905 0.137051,-0.36885 0.06908,-0.27823 0.09507,-0.22945 -0.285756,-0.53649 -0.0402,-0.0324 -0.0737,-0.0287 -0.09821,0.011 -0.02046,0.0331 -0.0092,0.0695 0.02492,0.0809 0.04853,0.0162 0.04824,0.0374 -0.0013,0.0972 -0.135468,0.16323 -0.06749,0.41744 0.07383,0.27612 0.03119,-0.0312 0.07553,-0.0567 0.09852,-0.0567 0.05665,0 -0.136735,0.3725 -0.236273,0.45511 -0.04378,0.0364 -0.06704,0.0864 -0.05168,0.11126 0.05429,0.0879 0.265396,0.0446 0.33894,-0.0695 z m -3.201771,-0.19977 c -0.02455,-0.0397 -0.0094,-0.0491 0.04536,-0.0281 0.05773,0.0221 0.07377,0.01 0.05387,-0.0423 -0.01558,-0.0406 -0.0029,-0.0739 0.02808,-0.0739 0.03103,0 0.05642,0.023 0.05642,0.051 0,0.028 0.04395,0.0509 0.09768,0.0509 0.05372,0 0.109245,0.0287 0.123383,0.0637 0.01535,0.0381 0.02732,0.0278 0.02973,-0.0255 0.0022,-0.0491 0.03842,-0.0892 0.08047,-0.0892 0.119537,0 0.09697,-0.24143 -0.02622,-0.28053 -0.12822,-0.0407 -0.08538,-0.12682 0.04599,-0.0925 0.176098,0.0461 0.08641,-0.4036 -0.383041,-1.92032 -0.09977,-0.32234 -0.186914,-0.609 -0.193655,-0.63703 -0.0067,-0.028 -0.06006,0.0981 -0.118479,0.28029 -0.120963,0.37723 -0.170352,0.83137 -0.169575,1.5593 4.63e-4,0.4499 -0.01085,0.51341 -0.10439,0.58496 -0.09291,0.0711 -0.100789,0.11339 -0.06879,0.36948 l 0.03614,0.28921 h 0.251948 c 0.179386,0 0.241337,-0.0172 0.215101,-0.0596 z m -3.434732,-0.33534 c 0.03195,-0.16117 0.06952,-0.33316 0.08349,-0.38222 0.01539,-0.054 -0.0023,-0.0892 -0.04473,-0.0892 -0.03858,0 -0.109824,-0.029 -0.158331,-0.0645 -0.08279,-0.0605 -0.08312,-0.0843 -0.0054,-0.38774 0.08625,-0.33669 0.06745,-0.81256 -0.04255,-1.07665 -0.02919,-0.0701 -0.06648,-0.32857 -0.08288,-0.57443 l -0.02982,-0.44703 -0.264965,0.52347 c -0.257071,0.50788 -0.555869,1.37503 -0.503174,1.46029 0.01429,0.0231 0.03672,0.17408 0.04984,0.33544 0.02328,0.28642 0.02028,0.29474 -0.12581,0.34989 -0.126909,0.0479 -0.149538,0.0838 -0.148876,0.23642 4.05e-4,0.099 0.02027,0.21069 0.04409,0.24827 0.04013,0.0633 0.507402,0.13651 0.98351,0.15408 l 0.187497,0.007 z m 4.230005,0.27057 c 0,-0.0124 -0.02293,-0.0367 -0.05096,-0.054 -0.02803,-0.0173 -0.05096,-0.007 -0.05096,0.0225 0,0.0297 0.02293,0.054 0.05096,0.054 0.02803,0 0.05096,-0.0101 0.05096,-0.0225 z M 3.422361,287.37069 c 0.017977,-0.11912 0.044748,-0.27965 0.059492,-0.35674 0.024937,-0.13039 0.014889,-0.14014 -0.1444124,-0.14014 -0.158056,0 -0.1837196,0.024 -0.3339091,0.3129 -0.089482,0.1721 -0.1505026,0.33263 -0.1356023,0.35674 0.0149,0.0241 0.1383876,0.0439 0.2744173,0.0439 h 0.2473264 z m 4.919394,0.16577 c 0.064117,-0.0343 0.1064832,-0.0344 0.1275771,-2e-4 0.017371,0.0281 0.064628,0.0511 0.1050179,0.0511 0.057667,0 0.073436,-0.0854 0.073436,-0.39772 0,-0.35259 -0.017007,-0.42455 -0.1498624,-0.63404 -0.1384429,-0.2183 -0.1579311,-0.31129 -0.2557285,-1.22033 -0.058225,-0.54124 -0.1200742,-1.07579 -0.1374408,-1.18791 l -0.03158,-0.20385 -0.11635,0.4077 c -0.3142805,1.10126 -0.4291507,1.56428 -0.4845297,1.95302 -0.051761,0.36333 -0.076773,0.43036 -0.1744736,0.4675 -0.1718019,0.0653 -0.2220252,0.28155 -0.1495552,0.6439 l 0.02936,0.14681 0.5340657,0.0127 c 0.293736,0.007 0.5772626,-0.0104 0.63006,-0.0387 z m 4.765264,-0.0391 c 0.172906,-0.12703 0.240009,-0.5689 0.109557,-0.72143 -0.06655,-0.0778 -0.219141,-0.69729 -0.339927,-1.38 -0.03223,-0.18219 -0.100916,-0.45203 -0.152628,-0.59965 -0.05171,-0.14762 -0.110475,-0.39989 -0.130586,-0.56059 -0.0266,-0.21259 -0.04694,-0.26443 -0.07466,-0.19027 -0.06697,0.17917 -0.150713,1.20734 -0.150713,1.85044 0,0.37561 -0.02292,0.65933 -0.05777,0.71514 -0.0389,0.0623 -0.0458,0.22022 -0.02114,0.48345 0.03299,0.35204 0.08935,0.48702 0.139956,0.33519 0.0223,-0.0669 0.499535,-0.008 0.499535,0.0616 0,0.0544 0.107587,0.0582 0.178369,0.006 z m 8.265285,-3.79276 c -0.01628,-0.0406 -0.02835,-0.0286 -0.03079,0.0308 -0.0022,0.0537 0.0098,0.0838 0.02676,0.0669 0.01693,-0.0169 0.01874,-0.0609 0.004,-0.0977 z m -3.874225,-0.46185 c -0.01414,-0.0351 -0.0257,-0.006 -0.0257,0.0637 0,0.0701 0.01156,0.0987 0.0257,0.0637 0.01414,-0.035 0.01414,-0.0924 0,-0.12741 z m 3.496911,-0.60083 c -0.01495,-0.0572 -0.03857,-0.0925 -0.05249,-0.0786 -0.02757,0.0276 0.02113,0.18259 0.05736,0.18259 0.01227,0 0.01008,-0.0468 -0.0049,-0.10395 z m -7.413992,-0.31649 c -0.02801,-0.16117 -0.07413,-0.29304 -0.102495,-0.29304 -0.05524,0 -0.01879,0.27246 0.06645,0.49666 0.07671,0.20177 0.09174,0.11688 0.03604,-0.20362 z m 3.862945,-0.17073 c -0.01814,-0.0473 -0.04444,-0.0745 -0.05846,-0.0605 -0.01401,0.014 -0.01064,0.0641 0.0075,0.11141 0.01814,0.0473 0.04444,0.0745 0.05846,0.0605 0.01402,-0.014 0.01064,-0.0641 -0.0075,-0.11142 z m -2.480854,-1.64359 c 0.03027,-0.0565 0.05459,-0.17886 0.05406,-0.2718 l -9.65e-4,-0.16898 -0.153753,0.24486 c -0.19362,0.30837 -0.229039,0.48425 -0.147328,0.73161 l 0.06464,0.19567 0.06416,-0.31427 c 0.03529,-0.17284 0.08892,-0.36053 0.11919,-0.41709 z m -7.7789893,-0.91218 c -0.014192,-0.0911 -0.046131,-0.16563 -0.070977,-0.16563 -0.053777,0 -0.055638,0.0369 -0.012691,0.25162 0.04197,0.20985 0.1176363,0.13208 0.083668,-0.086 z m 8.0474143,0.0292 c -0.02363,-0.16099 -0.02591,-0.16242 -0.06979,-0.0438 -0.04927,0.13319 -0.01755,0.27929 0.05138,0.23668 0.02355,-0.0146 0.03183,-0.10136 0.0184,-0.19289 z m -3.526748,-0.23303 c -4.05e-4,-0.13315 -0.02253,-0.27648 -0.04912,-0.31852 -0.07499,-0.11858 -0.206623,0.0423 -0.240357,0.29386 -0.02305,0.17183 -0.01184,0.21002 0.06761,0.23043 0.208641,0.0536 0.222658,0.0406 0.221864,-0.20577 z m 0.335522,-0.0887 c -0.141514,-0.33869 -0.189283,-0.37871 -0.152639,-0.12789 0.03998,0.27361 0.05605,0.30578 0.152846,0.30578 0.06481,0 0.06479,-0.0224 -2.12e-4,-0.17789 z"
       id="path4529"
       inkscape:connector-curvature="0" />
  </g>
</svg>
