<?xml version="1.0" encoding="UTF-8" standalone="no"?>
<!-- Created with Inkscape (http://www.inkscape.org/) -->

<svg
   xmlns:dc="http://purl.org/dc/elements/1.1/"
   xmlns:cc="http://creativecommons.org/ns#"
   xmlns:rdf="http://www.w3.org/1999/02/22-rdf-syntax-ns#"
   xmlns:svg="http://www.w3.org/2000/svg"
   xmlns="http://www.w3.org/2000/svg"
   xmlns:sodipodi="http://sodipodi.sourceforge.net/DTD/sodipodi-0.dtd"
   xmlns:inkscape="http://www.inkscape.org/namespaces/inkscape"
   width="100"
   height="100"
   viewBox="0 0 26.458333 26.458333"
   version="1.1"
   id="svg5379"
   inkscape:version="0.92.0 r15299"
   sodipodi:docname="mod_link_banner.svg">
  <defs
     id="defs5373" />
  <sodipodi:namedview
     id="base"
     pagecolor="#ffffff"
     bordercolor="#666666"
     borderopacity="1.0"
     inkscape:pageopacity="0.0"
     inkscape:pageshadow="2"
     inkscape:zoom="7.9195959"
     inkscape:cx="50.456035"
     inkscape:cy="45.713816"
     inkscape:document-units="px"
     inkscape:current-layer="layer1"
     showgrid="false"
     units="px"
     width="100px"
     inkscape:pagecheckerboard="true"
     inkscape:window-width="2560"
     inkscape:window-height="1377"
     inkscape:window-x="-8"
     inkscape:window-y="-8"
     inkscape:window-maximized="1" />
  <metadata
     id="metadata5376">
    <rdf:RDF>
      <cc:Work
         rdf:about="">
        <dc:format>image/svg+xml</dc:format>
        <dc:type
           rdf:resource="http://purl.org/dc/dcmitype/StillImage" />
        <dc:title></dc:title>
      </cc:Work>
    </rdf:RDF>
  </metadata>
  <g
     inkscape:label="Layer 1"
     inkscape:groupmode="layer"
     id="layer1"
     transform="translate(0,-270.54167)">
    <path
       inkscape:connector-curvature="0"
       style="font-style:normal;font-variant:normal;font-weight:normal;font-stretch:normal;font-size:22.57777786px;line-height:6.61458302px;font-family:'[TOP_SECRET]';-inkscape-font-specification:'[TOP_SECRET]';letter-spacing:0px;word-spacing:0px;fill:#000000;fill-opacity:1;stroke:none;stroke-width:0.06438732"
       d="m 12.520267,280.18875 -0.429206,0.0322 h -0.09658 l -0.0038,0.0149 c -0.01613,0.004 -0.03194,0.0105 -0.04728,0.0174 l -0.01068,-0.0429 c -0.107321,0.0143 -0.160968,0.0357 -0.160968,0.0644 l 0.09658,-0.0109 c 0.02147,0 0.03219,0.007 0.03219,0.0215 h -0.08589 c -0.0528,0 -0.09039,-0.0178 -0.114314,-0.0515 l 0.0043,-0.013 h -0.01068 l -0.004,-0.004 c -0.0013,-0.002 -0.0031,-0.004 -0.0041,-0.007 -9.33e-4,6e-5 -0.0016,7e-5 -0.0025,1.4e-4 v -1.4e-4 h -0.289743 l -0.0064,0.006 -0.0016,-0.006 -0.118086,0.0429 v -0.0215 l 0.01069,-0.0106 h -0.01069 l -0.01068,-0.0108 -0.09658,0.0858 h -0.0537 v -0.0106 l 0.043,-0.0322 v -0.0108 l -0.01069,-0.0108 -0.729766,-0.0214 H 8.724236 l -0.013082,0.013 -2.2741792,0.007 -0.019992,-0.02 H 2.2533061 l -0.021384,0.0214 v 0.0168 c -0.3167728,0.0256 -0.4777476,0.0701 -0.4777476,0.13355 l -0.053572,-0.0107 h -0.021508 c -0.046498,0 -0.1860022,0.0714 -0.4185181,0.21454 -0.6653269,0.48112 -0.99800327,0.93182 -0.99800327,1.35213 l 0.0215079,0.17178 c -0.0715505,0.0357 -0.10739792,0.1216 -0.10739792,0.25753 v 0.0751 c 0.0250368,0.36486 0.0536881,0.54729 0.0858923,0.54729 h 0.0213757 l 0.10739869,-0.12833 h 0.0321957 l 0.0106876,0.0106 c -0.0840505,0.10198 -0.14125317,0.15927 -0.17165647,0.17179 0.0733304,0.28617 0.14832896,0.4292 0.22522639,0.4292 l -0.0213753,0.0322 v 0.0429 c 0,0.0411 0.0501124,0.11272 0.1502799,0.21467 l 0.13946308,-0.0215 c 0.0393699,0 0.0643682,0.0143 0.0750716,0.043 v 0.0214 L 0.788359,283.8374 0.6917783,283.8268 H 0.6595826 v 0.0215 c 0.4703881,0.55086 1.0284198,0.82622 1.6740703,0.82622 h 0.1717855 l 0.018103,-0.0181 c 0.053759,0.003 0.1118083,0.005 0.1805869,0.007 0.1806327,0 0.3630741,-0.018 0.5472925,-0.0537 h 0.010688 v 0.0109 c -0.021461,0 -0.032196,0.007 -0.032196,0.0214 v 0.0107 l 0.2253555,0.0214 0.9336165,-0.0751 0.3219363,0.0644 h 0.021384 c 0.021446,0 0.032196,-0.0215 0.032196,-0.0644 0.1699246,0.0429 0.3308861,0.0644 0.4829049,0.0644 h 0.1287744 c 0.1226967,0 0.2271455,-0.0123 0.3138882,-0.0362 l -0.0028,0.0255 0.042883,0.0214 1.2448642,-0.0106 h 0.075079 c 0.042915,-0.0518 0.085848,-0.0805 0.1287745,-0.0858 0.035771,0.008 0.053695,0.0197 0.053695,0.0322 0,0.0215 -0.014387,0.0321 -0.043008,0.0321 v 0.0215 H 7.629478 l 1.7492748,0.0106 c 0.010936,-0.001 0.020125,-0.003 0.028675,-0.005 l 0.1321681,0.005 c 0.1430946,0 0.2146676,-0.0285 0.2146676,-0.0858 0.091211,0.0482 0.1663381,0.0733 0.2253546,0.0751 l 0.2897429,-0.0106 0.04289,-0.0108 0.03219,0.0108 h 0.07521 l 0.01068,-0.0108 -0.03219,-0.0644 v -0.0214 h 0.03219 l 0.03219,0.0214 c 0.0072,0.05 0.01792,0.0752 0.03219,0.0752 h 0.160968 c 0.08764,0 0.169944,-0.0215 0.246862,-0.0644 0.01427,0 0.02137,0.0142 0.02137,0.0429 0,0.0215 0.04294,0.0322 0.128774,0.0322 h 1.309253 c 0.024,0 0.04211,-0.002 0.05609,-0.007 l 0.445553,0.007 h 0.118087 l 1.419291,-0.0205 v 0.009 l 0.02137,0.0214 h 3.230183 l 0.0017,-0.001 0.06263,-0.008 0.309736,-0.003 0.108782,0.003 c 0.014,0 0.02958,-0.001 0.0459,-0.004 l 0.168766,-10e-4 v 0.0163 l 0.141601,-0.0177 0.04414,-5e-4 0.0075,0.007 v -0.007 l 0.364818,-0.003 h 1.634331 c 0.0024,0.007 0.0046,0.0145 0.0074,0.0214 l 0.955123,-0.0322 1.792156,0.0215 0.4614,-0.0106 v -0.0109 l 0.01069,-0.0107 -0.03219,-0.0537 h 0.03219 c 0.03577,0.0215 0.0537,0.0536 0.0537,0.0966 l 0.09658,-0.0214 0.0026,1.4e-4 c 0.004,0.008 0.0084,0.0153 0.01359,0.0212 l 0.07281,-0.0182 0.211396,0.007 h 0.01068 c 0.0065,-0.003 0.01219,-0.006 0.01723,-0.0106 h 0.042 c 0.200328,0 0.465072,-0.0788 0.794156,-0.23617 0.436409,-0.24503 0.726146,-0.56696 0.869228,-0.96581 v -0.0106 l 0.03219,0.0106 c 0.0304,0 0.05539,-0.0393 0.07508,-0.11795 l -0.01068,-0.0321 -0.05371,0.0106 -0.08577,-0.0859 0.0214,-0.0214 h 0.04289 c 0.05186,0.0429 0.09125,0.0644 0.118086,0.0644 h 0.01068 l 0.01068,-0.0109 c 0.07869,-0.27185 0.118088,-0.53647 0.118088,-0.79403 0,-0.63849 -0.203904,-1.17153 -0.611681,-1.59898 -0.383693,-0.37418 -0.835026,-0.58216 -1.353648,-0.62464 -0.02978,-0.0272 -0.159726,-0.0408 -0.39022,-0.0408 h -0.16096 c -0.107302,0 -0.193156,0.007 -0.257549,0.0215 v 0.0215 c 0.02862,0.004 0.043,0.0143 0.043,0.0322 v 0.0106 l -0.03219,0.0106 -0.289744,-0.0966 c -0.03758,0 -0.05904,0.0215 -0.06438,0.0644 h -0.01082 l -0.07507,-0.0429 c -0.07511,0 -0.164504,0.0501 -0.268237,0.15028 h -0.01068 c -0.06081,-0.11447 -0.135915,-0.17179 -0.225356,-0.17179 h -0.01082 c -0.06439,0.0143 -0.09658,0.0322 -0.09658,0.0537 v 0.0215 l 0.01069,0.0106 0.0537,-0.0321 v 0.0106 l 0.01069,0.0107 v 0.0106 c -0.05008,0 -0.08581,0.0429 -0.107269,0.12878 -0.03221,-0.0125 -0.0572,-0.0339 -0.07507,-0.0644 v -0.0107 c 0.03581,0 0.0608,-0.0358 0.07507,-0.1074 -0.08049,-0.0143 -0.270104,-0.0251 -0.568798,-0.0321 l -1.201854,0.0107 -0.08589,-0.0107 v 0.0107 l -0.0045,0.004 -0.628659,-0.004 h -0.858412 l -0.489949,0.004 -0.0037,-0.004 -0.01145,0.004 -0.408957,0.003 -0.706252,-0.007 v 0 c -0.0762,1e-5 -0.169981,0.007 -0.279305,0.0214 h -2.020031 v -0.0106 l -0.01068,-0.0106 h -0.02151 l -0.04275,0.0214 h -0.12595 c -0.004,-0.004 -0.0084,-0.007 -0.01358,-0.0106 -0.05008,-0.005 -0.07521,-0.0161 -0.07521,-0.0322 l -1.073079,0.0215 -0.718949,-0.0215 -0.02138,0.0322 v 0.0644 l -0.0537,0.0106 c 0,-0.0572 -0.01074,-0.0858 -0.03219,-0.0858 h -0.04289 c -0.07155,0.0179 -0.107398,0.0357 -0.107398,0.0535 -0.05723,-0.05 -0.128684,-0.0751 -0.214538,-0.0751 z m -8.7861024,0.0644 c 0.028636,0 0.046428,0.0644 0.053572,0.19317 v 0.0106 c -0.030439,-0.0179 -0.051893,-0.0429 -0.064384,-0.0751 z m 3.0797748,0.0322 h 0.06426 c 0.012546,0 0.02328,0.0215 0.032196,0.0644 -0.019712,0.05 -0.037504,0.0751 -0.053571,0.0751 h -0.021508 l -0.010688,-0.0106 0.010688,-0.0537 v -0.0429 z m 6.2643086,0.0215 0.01082,0.0321 c -0.03936,0.0357 -0.0824,0.0535 -0.128903,0.0535 h -0.01069 l -0.01069,-0.0322 c 0.06796,-0.0108 0.114418,-0.0285 0.139464,-0.0535 z m -1.107662,0.009 -0.0083,0.0332 v 0.0429 l 0.01068,0.0109 0.01887,-0.004 c -0.02013,0.0355 -0.03706,0.0584 -0.04829,0.0584 v -0.0106 c -0.0085,0 -0.01661,-5e-4 -0.02453,-10e-4 v -0.0201 l -0.02137,-0.0214 h -0.01069 c 0,0.0135 -10e-4,0.0248 -0.0025,0.0346 -0.02067,-0.006 -0.03874,-0.0162 -0.05433,-0.0298 l -0.0074,-0.037 c 0.0036,-0.009 0.0066,-0.0141 0.01011,-0.0215 l 0.02489,0.0107 z m -0.842695,0.0117 c 0,0.008 0.03218,0.0161 0.09658,0.0215 -0.01075,0.0285 -0.03574,0.0429 -0.07508,0.0429 h -0.07508 c 0,-0.0322 0.0178,-0.0536 0.05357,-0.0644 z m 12.469765,0.0109 c 0.04293,0 0.06439,0.0251 0.06439,0.0751 h -0.03219 c -0.03221,-0.0287 -0.07158,-0.0429 -0.118086,-0.0429 0,-0.0179 0.02866,-0.0287 0.08589,-0.0321 z m -15.5710461,0.0321 v 0.0106 c 0.1001615,0.0339 0.15028,0.0662 0.15028,0.0966 -0.1502474,-0.0269 -0.2253554,-0.0518 -0.2253554,-0.0751 v -0.0107 z m 4.6547541,0 h 0.03219 v 0.0106 l -0.043,0.0429 0.02151,0.0322 -0.193162,0.043 h -0.01082 l 0.01082,-0.043 h 0.06439 c 0.04293,-0.0572 0.08231,-0.0858 0.118085,-0.0858 z m 10.755324,0 h 0.01069 v 0.0214 c -0.009,0.0286 -0.04114,0.043 -0.09658,0.043 h -0.0322 c 0,-0.0215 0.03939,-0.0429 0.118086,-0.0644 z m -11.360089,0.006 c 0.01807,0.004 0.03416,0.0109 0.04829,0.0179 -0.04151,0.0277 -0.07673,0.0558 -0.104127,0.0844 l 0.02942,-0.0956 z m -10.1936986,0.0151 h 0.021508 l 0.053571,0.0322 -0.010688,0.0321 c -0.02862,0.0197 -0.042883,0.0376 -0.042883,0.0537 h -0.021508 l -0.010688,-0.0322 0.010688,-0.0644 z m 2.8599561,0.0109 c 0.035755,0.008 0.053572,0.0197 0.053572,0.0321 l -0.010688,0.0751 h -0.010688 c -0.078687,-0.0215 -0.1180866,-0.0429 -0.1180866,-0.0644 v -0.0107 z m 19.1606395,0.007 v 0.0791 h -0.02691 v -0.0107 c 0,-0.0161 0.01082,-0.0402 0.02691,-0.0684 z m -10.953773,0.004 c 0,0.0357 0.0071,0.0537 0.02139,0.0537 h 0.01068 l 0.01068,-0.0109 v 0.0109 l 0.01069,0.0107 v 0.0106 l -0.03219,0.0109 c -0.03579,0 -0.05725,-0.0107 -0.06438,-0.0322 z m 10.626428,0 h 0.03219 v 0.0106 l -0.06439,0.0322 h -0.01069 z m -12.866649,0.0321 h 0.02137 v 0.0322 l -0.04289,0.0429 h -0.0537 v -0.0322 c 0.01253,-0.0287 0.03764,-0.0429 0.07521,-0.0429 z m 0.193033,0 -0.01068,0.0537 v 0.0106 l 0.01068,0.0107 -0.02138,0.0537 c -0.0358,0 -0.05726,-0.0142 -0.06438,-0.0429 v 0 c 0,-0.0393 0.02865,-0.0681 0.08589,-0.0858 z m 5.33346,0 c 0,0.0303 0.02853,0.0554 0.08576,0.0751 v 0.0107 c -0.08586,0 -0.128774,0.0178 -0.128774,0.0535 h -0.0322 l 0.01082,-0.0751 -0.02151,-0.0321 z m -14.5354397,0.0322 0.075072,0.0215 -0.021375,0.0535 c -0.078701,0.0197 -0.1180865,0.0484 -0.1180865,0.0858 l -0.085892,-0.0429 0.032196,-0.043 v -0.0107 l -0.010688,-0.0106 H 1.679179 c 0.014279,0 0.021375,-0.0179 0.021375,-0.0537 z m 2.709548,0 h 0.01082 c 0.055452,0 0.094836,0.0429 0.1180865,0.12876 -0.085854,-0.0251 -0.1289033,-0.0645 -0.1289033,-0.11807 z m 6.6318947,0.0106 h 0.01068 v 0.0107 l -0.01068,0.0106 v 0.0966 l -0.02151,0.0644 0.01082,0.0106 0.05357,-0.0106 h 0.128775 l 0.158206,0.007 v 0.004 l 0.01069,0.0109 c 0.0135,0 0.03856,-0.004 0.06904,-0.0106 l 0.47033,0.0214 c 0.05093,0 0.09313,-0.004 0.129405,-0.0129 l 0.823076,-0.0194 0.182474,0.0106 0.02138,-0.0966 c 0.04473,0 0.07328,0.0322 0.08576,0.0966 l 0.09658,-0.0214 0.15028,0.0107 c 0.04293,0 0.0894,-0.0251 0.139463,-0.0751 l 0.01069,0.0857 0.848728,0.008 0.01258,0.0126 h 3.219366 c 0.0043,0 0.0083,-0.003 0.0122,-0.007 0.04139,0.004 0.08091,0.007 0.116574,0.007 0.359983,0 0.592891,-0.007 0.704738,-0.0205 l 0.722601,0.009 h 0.321935 l 0.01068,-0.0109 c 0.03222,-0.0572 0.05369,-0.0858 0.06439,-0.0858 h 0.0537 c 0.05543,0.0715 0.112619,0.10726 0.171657,0.10726 l 1.481037,-0.0105 0.01057,0.0105 c 0.121615,-0.0143 0.296858,-0.0215 0.525787,-0.0215 h 0.686884 l 0.386324,0.0109 0.300431,-0.0109 h 0.20385 c 0.03577,0 0.09309,-0.0285 0.171786,-0.0858 l 0.01068,0.0751 h 0.305968 v 0.0106 l 0.02151,0.0215 h 0.20385 c 0.388113,0 0.738714,0.13598 1.051701,0.40783 0.372018,0.37201 0.557982,0.80126 0.557982,1.28775 v 0.0966 c 0,0.50616 -0.189622,0.93894 -0.568799,1.29843 -0.295105,0.22894 -0.563388,0.35418 -0.80484,0.37564 v 0.0429 l 0.01068,0.0106 -0.02137,0.0322 c -0.02305,-0.009 -0.04725,-0.017 -0.07144,-0.0244 l 0.0015,-0.0183 c 0,-0.0125 -0.143165,-0.0305 -0.429329,-0.0537 -0.09121,0.007 -0.155604,0.0215 -0.193161,0.043 -0.157402,-0.0215 -0.293247,-0.0322 -0.407708,-0.0322 h -0.06439 c -0.04293,0 -0.103769,0.0357 -0.182475,0.10726 -0.02864,-0.0107 -0.0501,-0.0287 -0.06438,-0.0537 0,-0.0143 0.01074,-0.0214 0.03219,-0.0214 v -0.0215 h -0.268237 c -0.03759,0 -0.0627,0.0142 -0.0752,0.0429 v 0.0109 l 0.06439,0.0107 v 0.0215 l -0.02139,0.0214 h -0.03219 c -0.01073,0 -0.03571,-0.0357 -0.07508,-0.10728 h -0.01069 l -0.01082,0.0106 c 0,0.0357 -0.0071,0.0537 -0.02137,0.0537 l -0.01068,0.0106 h -0.01069 v -0.0106 l 0.01069,-0.0106 c -0.03042,-0.0429 -0.144917,-0.0644 -0.343443,-0.0644 h -0.160968 l -0.300432,0.0214 -0.347466,-0.0147 -0.0066,-0.007 h -0.151915 l -0.255915,-0.0107 -0.11016,0.0132 -1.081005,0.008 -0.0537,-0.0107 -0.01069,0.0107 -0.06438,-0.0107 h -1.98532 l -0.01069,0.0107 0.0072,0.0215 h -0.176056 c -0.02892,-0.006 -0.05549,-0.0108 -0.07784,-0.0108 l -0.558109,0.0108 -0.139463,-0.0108 v 0.0108 h -1.569442 l -0.01082,-0.0108 -0.193033,-0.0106 -2.146288,-0.0106 -1.341445,0.0106 -0.0171,0.007 -0.581249,0.004 h -0.08589 l -0.182346,-0.0106 -0.06438,0.0859 h -0.02138 c 0,-0.0572 -0.01792,-0.0859 -0.0537,-0.0859 l -0.160969,0.0215 v 0.0214 c 0.05724,0 0.08577,0.0251 0.08577,0.0751 v 0.0107 c -0.107315,-0.0215 -0.160969,-0.0465 -0.160969,-0.0751 v -0.0107 l -0.06426,0.0107 -0.2254847,-0.043 h -0.010693 v 0.0215 l 0.064389,0.0107 v 0.043 l -0.2038503,-0.0751 c -0.014279,0 -0.021375,0.0107 -0.021375,0.0322 -0.042931,-0.0287 -0.082313,-0.0429 -0.1180865,-0.0429 h -0.042883 c -0.036618,0 -0.073843,0.0109 -0.1115511,0.0306 l -0.00653,-0.0199 -0.01082,0.0109 -0.053571,-7.4e-4 v -0.0105 l -0.010688,-0.0107 v 0 c -0.015989,0 -0.0378,0.008 -0.062246,0.02 l -0.4595137,-0.005 c -0.00467,-7.8e-4 -0.011574,-0.004 -0.014838,-0.004 v 0.004 l -0.3003026,-0.004 c -0.1717147,0 -0.3004891,0.0287 -0.3863239,0.0859 h -0.043008 l -0.075079,-0.0859 -0.1824733,0.0109 -1.3950155,-0.0109 v 0 c -0.00805,7e-5 -0.013198,2.4e-4 -0.021127,5e-4 l -0.010936,-0.0112 h -0.043008 l -0.1930329,0.0106 -0.2683664,-0.0106 H 5.1187119 c -0.203902,0 -0.3685277,0.0179 -0.4937219,0.0537 v -0.0215 c 0,-0.0357 -0.1395019,-0.0537 -0.4185174,-0.0537 H 3.95974 l -1.3091298,0.043 -0.4078226,-0.0215 v 0.0108 l -0.00101,7.6e-4 c -0.439115,-0.0408 -0.8020407,-0.21269 -1.0884226,-0.5161 -0.1287619,-0.14845 -0.25753711,-0.32721 -0.38632393,-0.53648 v 0.0214 l 0.0108204,0.043 -0.0108204,0.0429 c -0.10730154,-0.007 -0.16083954,-0.0214 -0.16083954,-0.0429 0.10014783,-0.0393 0.15015084,-0.093 0.15015084,-0.16096 -0.0107266,-0.0572 -0.0249898,-0.0859 -0.0428833,-0.0859 h -0.1609688 c -0.041143,0.0787 -0.0733302,0.12516 -0.0965807,0.13947 h -0.0213753 v -0.0106 c 0.0447101,-0.15023 0.10189346,-0.22535 0.17165645,-0.22535 l 0.0965807,0.0429 0.0106876,-0.0106 c -0.021469,-0.0697 -0.0357407,-0.20926 -0.0428833,-0.41852 0,-0.45786 0.1430557,-0.85138 0.42920518,-1.18047 0.3881141,-0.39348 0.8530876,-0.59018 1.395016,-0.59018 0.021469,0 0.032196,-0.007 0.032196,-0.0215 v -0.0295 c 0.016937,-0.007 0.033152,-0.0147 0.048418,-0.024 0.1377188,0.0429 0.3666155,0.0644 0.6867556,0.0644 H 3.466144 c 0.1913726,0 0.320147,-0.0215 0.3863239,-0.0644 h 0.010688 v 0.0107 l -0.053696,0.0215 0.021508,0.0214 h 1.8840825 c 0.00435,0.005 0.00936,0.009 0.015468,0.0107 h 0.2467389 c 0.031084,0 0.058943,-0.004 0.08463,-0.0107 h 0.1016101 c 0.00497,0.007 0.010758,0.0107 0.01773,0.0107 h 1.0623902 c 0.048301,-0.0572 0.1162128,-0.0859 0.2038502,-0.0859 v 0.0215 c -0.085854,0.008 -0.1287744,0.0233 -0.1287744,0.0429 l 0.021384,0.0215 h 0.2682374 l 0.1180865,-0.16097 h 0.010688 l 0.010688,0.0429 c 0,0.0143 -0.024998,0.043 -0.075079,0.0859 v 0.0106 l 0.8907346,0.0321 c 0.227674,0 0.4210933,-0.005 0.5877859,-0.0153 l 0.3135081,0.004 h 0.5257863 c 0.3201408,0 0.5597648,-0.0108 0.7189488,-0.0322 v 0.0214 h 0.08589 c 0.05009,0 0.132405,-0.0644 0.246861,-0.19316 z m 2.250917,0.0215 0.043,0.0751 v 0.0109 l -0.01068,0.0106 -0.0537,-0.0321 h -0.0537 v -0.0215 l 0.01068,-0.0106 c 0.03578,0 0.0537,-0.007 0.0537,-0.0215 z m 10.508591,0.0429 c 0.04509,0.009 0.07876,0.0185 0.101988,0.0273 v 0.0357 l -0.0055,10e-4 -0.09658,-0.0214 -0.0537,0.0106 v -0.0106 c 0.0036,-0.0143 0.02151,-0.0286 0.0537,-0.043 z m -5.247568,0.30056 -0.08589,0.0107 c -0.05546,0.0626 -0.134112,0.13052 -0.236044,0.20385 l -0.01068,0.5903 c 0,0.56339 0.01426,1.04984 0.04289,1.45941 l -0.04289,0.55798 v 0.0322 c 0.01788,0.20747 0.100071,0.31125 0.246731,0.31125 h 0.07521 l 0.09658,-0.0215 c 0.128761,-0.0912 0.193161,-0.29145 0.193161,-0.60087 v -0.0644 l -0.0537,-1.12679 0.03219,-0.27905 h 0.01069 c 0.128781,0.22178 0.23256,0.33262 0.311248,0.33262 v 0.0108 h -0.03219 v 0.0322 c 0.35234,0.61526 0.656345,1.09815 0.912111,1.44871 0.128781,0.18601 0.264754,0.27892 0.407829,0.27892 0.103738,0 0.200315,-0.0429 0.289743,-0.12876 0.06439,-0.059 0.09658,-0.24852 0.09658,-0.56868 l -0.0537,-1.95312 0.0322,-0.27905 c -0.0465,-0.15739 -0.146616,-0.23605 -0.300432,-0.23605 h -0.0537 c -0.05008,0 -0.103738,0.0215 -0.160968,0.0644 -0.04292,0 -0.06439,0.20035 -0.06439,0.60099 v 1.43789 c -0.12878,-0.15738 -0.26109,-0.33616 -0.397012,-0.53647 -0.37559,-0.61525 -0.672525,-1.0517 -0.890734,-1.30925 0,-0.14309 -0.121583,-0.23246 -0.364819,-0.26824 z m 2.833044,0 c -0.207309,0.0519 -0.310998,0.2022 -0.310998,0.45071 0,0.11089 0.02866,0.2182 0.08589,0.32194 h -0.06439 c 0,0.13593 0.01426,0.20385 0.04289,0.20385 h 0.01069 l 0.01068,-0.0322 -0.01068,-0.0537 0.03219,-0.0322 -0.01068,0.0537 0.02138,0.16096 v 0.0107 l -0.06438,-0.0214 c -0.01434,0.004 -0.0286,0.0214 -0.04289,0.0535 l 0.01069,0.11808 v 0.49359 l -0.01069,0.21467 c 0.009,0.24146 0.0197,0.37024 0.03219,0.38633 h 0.01069 l 0.01069,-0.0106 h 0.02138 v 0.0214 l -0.01069,0.0108 c -0.03577,0.001 -0.05358,0.008 -0.05358,0.0214 l -0.01081,0.0107 v 0.0535 l -0.01068,0.19316 c 0,0.36485 0.110971,0.5473 0.332748,0.5473 l 0.06438,-0.0107 c 0.171715,-0.0447 0.25755,-0.20568 0.25755,-0.48291 v -0.0215 c 0,-0.14844 -0.02146,-0.29149 -0.06439,-0.4292 0.02147,-0.005 0.06074,-0.0411 0.117964,-0.10727 0.21105,-0.27902 0.37921,-0.41853 0.504404,-0.41853 h 0.01069 l 0.01068,0.0107 v 0.0106 l -0.01068,0.0109 0.043,0.0535 v 0.0107 l -0.0322,0.0429 0.02139,0.0215 0.05357,-0.0109 0.0967,0.22536 0.611557,0.95512 0.0537,-0.0106 c 0.02146,0 0.03219,0.0215 0.03219,0.0644 h 0.0537 c 0.05542,0 0.141285,0.0251 0.257549,0.0751 0.110888,0 0.178816,-0.093 0.20385,-0.27906 v -0.0214 c 0,-0.10909 -0.04648,-0.21287 -0.139463,-0.31125 l -0.06439,0.0215 -0.107398,-0.0109 c 0.02146,-0.05 0.05365,-0.0751 0.09658,-0.0751 l 0.043,0.0106 0.01068,-0.0106 c -0.118048,-0.13951 -0.254014,-0.33267 -0.407829,-0.57948 -0.31479,-0.38455 -0.472088,-0.60271 -0.472088,-0.65457 l 0.06439,-0.0644 v -0.0322 c -0.02147,-0.0269 -0.0322,-0.059 -0.0322,-0.0966 l 0.02138,-0.0215 c 0.03579,0 0.05725,0.0108 0.06438,0.0321 v 0.0215 l -0.01068,0.0106 h 0.01068 l 0.128775,-0.11808 c 0.422084,-0.25934 0.633184,-0.53469 0.633184,-0.82622 -0.08407,-0.0859 -0.166396,-0.12878 -0.24686,-0.12878 h -0.06439 c -0.103737,0 -0.211048,0.0536 -0.321936,0.16097 -0.282603,0.32372 -0.472216,0.52396 -0.568797,0.60086 v 0.0322 l 0.0322,0.10739 h -0.0322 l -0.06439,-0.0537 h -0.02138 c -0.261123,0.30763 -0.436365,0.47933 -0.525787,0.5151 l 0.01069,-0.0644 c 0,-0.0787 -0.01792,-0.17174 -0.0537,-0.27906 l 0.03219,0.0109 h 0.01069 l -0.01069,-0.0644 0.01069,-0.5151 v -0.0752 c 0,-0.27185 -0.09657,-0.4077 -0.289744,-0.4077 h -0.04263 z m -15.946553,0.0107 c -0.1001678,0 -0.2504022,0.018 -0.4507116,0.0537 -0.085853,0 -0.1466996,0.0859 -0.1824732,0.25755 l 0.042883,0.10726 c -0.075111,0.11806 -0.1395081,0.25402 -0.1931619,0.40784 l -0.3111196,1.22335 h -0.01082 L 3.895131,281.25187 c -0.078701,-0.0143 -0.1180865,-0.043 -0.1180865,-0.0859 l 0.010688,-0.21454 c -0.1073209,-0.05 -0.2288967,-0.0752 -0.3648184,-0.0752 H 3.3156449 c -0.1305708,0 -0.2450779,0.0215 -0.3434419,0.0644 -0.071551,0 -0.107398,0.17171 -0.107398,0.51511 0,0.0912 0.00723,0.16279 0.021508,0.21466 l 0.010688,-0.0106 0.1072689,0.0322 v 0.0108 l -0.010688,0.0106 -0.053696,-0.0106 v 0.0106 l 0.064384,0.0644 -0.053571,0.0109 -0.064384,-0.0109 H 2.875627 l -0.021508,0.24686 c 0.00715,0.0859 0.025075,0.12878 0.053704,0.12878 l 0.1072689,-0.10727 h 0.01082 l 0.1072688,0.16098 c -0.135941,0.093 -0.2217759,0.13946 -0.2575496,0.13946 l 0.010688,0.0429 -0.042883,0.91223 c 0,0.16097 0.021462,0.33267 0.064384,0.5151 0.033991,0.11447 0.1090979,0.17166 0.2253562,0.17166 0.1824151,0 0.2897298,-0.11085 0.3219364,-0.33263 v -0.0109 c 0,-0.0697 -0.039386,-0.13413 -0.1180865,-0.19316 v -0.0106 h 0.010688 l 0.064384,0.0106 0.021375,-0.0214 v -0.043 c -0.057233,-0.007 -0.085764,-0.0179 -0.085764,-0.0322 v -0.0214 c 0.057272,0 0.092995,-0.0536 0.1072688,-0.16096 0,-0.0733 -0.021462,-0.16284 -0.064384,-0.26837 l 0.042883,-0.0966 v -0.11795 c 0,-0.059 -0.010727,-0.10561 -0.032196,-0.1396 H 3.390593 l -0.010688,0.0108 H 3.35853 l -0.010688,-0.0108 c 0.064384,-0.10551 0.096581,-0.20563 0.096581,-0.30043 l -0.010688,-0.4829 0.010688,-0.0966 h 0.021375 c 0,0.0357 0.00707,0.0537 0.021375,0.0537 0.084058,0.41852 0.1591846,0.66533 0.2253553,0.74045 0.085854,0.55445 0.1574335,0.94077 0.2146676,1.15898 0.078687,0.24324 0.2181895,0.36482 0.4185181,0.36482 H 4.39941 c 0.1681213,0 0.3076295,-0.20744 0.4185174,-0.62237 l 0.2682374,-1.31994 v -0.0109 h -0.010688 l -0.032196,0.0322 v 0.0644 c -0.075111,0 -0.1216916,-0.0572 -0.1395913,-0.17165 v -0.0106 l 0.085892,0.0322 c 0.050082,0 0.1109463,-0.0286 0.1824741,-0.0858 -0.019665,-0.1109 -0.05906,-0.20028 -0.1180865,-0.26824 l 0.1287744,0.0321 0.064384,-0.0537 0.032196,0.15028 v 0.0108 c 0,0.0233 -0.010727,0.0482 -0.032196,0.0751 v 0.0322 c 0,0.0161 0.039386,0.0267 0.1180865,0.0321 v 0.0109 c -0.04471,0 -0.087631,0.0178 -0.1287752,0.0535 v 0.0321 c 0,0.0644 0.0178,0.12524 0.053572,0.18247 -0.04293,0.27902 -0.064384,0.57594 -0.064384,0.89074 0.014311,0.52225 0.046498,0.78333 0.096581,0.78333 h 0.01082 v -0.0321 h 0.021375 c 0.037559,0.10018 0.094759,0.15028 0.1716565,0.15028 h 0.021384 c 0.1251949,0 0.2182283,-0.0966 0.2790551,-0.28975 0,-0.0518 -0.021462,-0.0912 -0.064391,-0.11808 h -0.010696 c 0.05724,-0.11089 0.085893,-0.2432 0.085893,-0.39702 -0.010742,-0.24503 -0.050128,-0.38099 -0.1180865,-0.40782 h -0.010689 l -0.010688,0.0644 h -0.032196 l -0.021508,-0.0859 c 0,-0.0357 -0.014263,-0.0535 -0.042883,-0.0535 v -0.0215 l 0.1609679,0.0106 0.053696,-0.0214 -0.021375,-0.20396 v -0.13947 l 0.064384,-0.91212 v -0.0751 c 0,-0.30763 -0.1395081,-0.4614 -0.4185174,-0.4614 z m 1.8779205,0 -0.03232,0.0215 c 0,0.11446 -0.039254,0.17166 -0.1179571,0.17166 h -0.01082 v -0.0215 c 0.05724,-0.0447 0.085892,-0.084 0.085892,-0.11796 v -0.0109 l -0.010688,-0.0107 c -0.2128394,0 -0.4095427,0.0679 -0.5901746,0.20386 -0.3720232,0.32373 -0.5581095,0.76017 -0.5581095,1.30925 v 0.10726 c 0,0.37023 0.1037792,0.7029 0.3112486,0.99801 0.1985254,0.19316 0.3452258,0.28975 0.4400229,0.28975 h 0.010688 l -0.010688,0.0322 v 0.0215 c 0.050082,0.0733 0.3254326,0.13052 0.8262175,0.17166 0.2450265,0 0.3989186,-0.0536 0.4615285,-0.16097 v -0.0106 h -0.053696 l -0.021375,-0.0215 v -0.0106 l 0.021375,-0.0322 v -0.0215 l -0.010688,-0.0106 0.042883,-0.0106 c 0.087638,0 0.1986156,0.0178 0.3327533,0.0535 0.032188,0 0.085835,-0.0321 0.1609685,-0.0966 0.3147705,-0.30584 0.4720882,-0.74216 0.4720882,-1.30912 0,-0.24146 -0.035741,-0.45974 -0.1072698,-0.6547 -0.071551,-0.0233 -0.1072687,-0.0447 -0.1072687,-0.0644 l 0.042883,-0.0429 v -0.0321 c -0.234298,-0.49417 -0.7029278,-0.74099 -1.4058309,-0.74099 z m 10.2374565,0.0322 c -0.171695,0.0287 -0.257549,0.13946 -0.257549,0.33263 0.08586,0.0179 0.128774,0.0358 0.128774,0.0537 h -0.02137 l -0.09658,-0.0215 v 0.40783 l -0.01069,0.0751 0.02138,0.0215 0.06438,-0.0215 c 0,0.0339 0.02866,0.077 0.08589,0.12878 v 0.0109 c -0.02862,0 -0.07154,-0.0287 -0.128775,-0.0859 h -0.0322 l -0.01069,0.0106 v 0.0107 c 0,0.093 0.06793,0.16093 0.203849,0.20385 0,0.0143 -0.02148,0.0251 -0.06438,0.0322 v 0.0215 l 0.04289,0.0644 -0.05357,-0.0109 c -0.05186,-0.0859 -0.08771,-0.12878 -0.107398,-0.12878 h -0.01068 l -0.01069,0.23618 v 0.0106 c 0,0.0465 0.01792,0.0894 0.0537,0.12877 -0.03221,0 -0.05014,0.0357 -0.0537,0.10727 v 0.0537 l 0.01069,0.12877 -0.01069,0.0106 0.01069,0.0109 0.08589,-0.0215 v 0.0106 l -0.04289,0.043 v 0.0106 l 0.01069,0.0107 0.08577,-0.0429 h 0.03219 l 0.02151,0.0215 -0.0322,0.0429 v 0.0321 l 0.02137,0.0215 h 0.107398 l 0.02138,-0.0215 v -0.0106 c 0,-0.0197 -0.01793,-0.0303 -0.0537,-0.0322 v -0.043 c 0.08586,0 0.143166,0.0751 0.171786,0.22535 v 0.0108 l -0.07521,0.0214 c -0.0304,-0.008 -0.08052,-0.0481 -0.150274,-0.11797 h -0.04289 c 0,0.0357 -0.03218,0.0535 -0.09658,0.0535 h -0.05357 l -0.01082,-0.0106 v 0.0106 l -0.01069,0.0109 v 0.0751 l 0.01069,0.0106 0.182474,-0.0429 c 0.07871,0.008 0.118087,0.0339 0.118087,0.0751 h 0.01069 l 0.01068,-0.0106 c 0,0.0286 -0.02499,0.0608 -0.07508,0.0966 h -0.03219 c -0.04291,0 -0.1145,-0.0321 -0.214667,-0.0966 v 0.0106 l -0.01069,0.0109 v 0.37552 l 0.02139,0.0215 h 0.043 c 0.03756,-0.0357 0.06975,-0.0537 0.09658,-0.0537 h 0.02139 l -0.0322,0.0644 c -0.06439,0.008 -0.09658,0.0197 -0.09658,0.0322 v 0.0215 l 0.01068,0.0106 0.06439,-0.0214 v 0.0321 l -0.01069,0.0107 c -0.07869,0.0143 -0.118086,0.0287 -0.118086,0.0429 v 0.0215 l 0.08589,0.0537 c -0.05724,0.0393 -0.08589,0.0679 -0.08589,0.0858 0,0.0465 0.02146,0.0824 0.06439,0.10739 l 0.05371,-0.0109 -0.05371,0.0644 v 0.0109 l 0.02138,0.0322 c 0.116258,0.007 0.184315,0.0215 0.203979,0.0429 v 0.0106 l -0.01069,0.0109 v 0.0214 c 0.09479,0 0.159173,-0.0178 0.193162,-0.0535 v -0.0109 l -0.01069,-0.0106 -0.0537,0.0106 h -0.01069 v -0.0106 l 0.02139,-0.0215 h 0.03219 l 0.06438,0.0215 c 0.06438,-0.0554 0.09658,-0.10557 0.09658,-0.15029 0,-0.0287 -0.03574,-0.0429 -0.107269,-0.0429 v -0.0106 c 0.07691,0 0.11985,-0.0501 0.128774,-0.15028 l -0.01082,-0.31125 0.01082,-0.0321 h -0.01082 l -0.01069,-0.0106 h -0.02139 l -0.08589,0.0215 v -0.0215 c 0.08584,-0.0215 0.128774,-0.0572 0.128774,-0.10727 0,-0.0143 -0.03927,-0.0215 -0.117963,-0.0215 v -0.0106 l 0.01068,-0.0109 v -0.0321 c -0.02861,-0.0322 -0.04289,-0.0607 -0.04289,-0.0858 v -0.0109 h 0.02139 l 0.09658,0.0215 h 0.01069 c 0,-0.12161 -0.05014,-0.18247 -0.150279,-0.18247 v -0.0535 l -0.02137,-0.0321 c -0.05367,-0.0197 -0.08233,-0.0376 -0.08589,-0.0537 l 0.043,-0.0537 c 0,0.05 0.04645,0.0751 0.139471,0.0751 v 0.0535 c 0.01251,0.0287 0.03751,0.043 0.07508,0.043 l 0.02151,-0.0215 v -0.18248 l -0.02151,-0.0214 h -0.01069 c 0,0.05 -0.01781,0.0751 -0.05358,0.0751 v -0.0106 l -0.01081,-0.0109 0.03219,-0.0429 -0.05358,-0.0644 v -0.0106 l 0.04289,0.0106 c 0.03936,0 0.06438,-0.0142 0.07508,-0.0429 v -0.043 c 0,-0.0161 -0.03221,-0.0268 -0.09658,-0.0321 v -0.0107 c 0.05006,0 0.0752,-0.0321 0.0752,-0.0966 v -0.0106 l -0.01081,-0.0109 c -0.02325,0 -0.04826,0.0108 -0.07508,0.0322 l -0.02137,-0.0214 c 0.08584,0 0.128774,-0.093 0.128774,-0.27905 h -0.01069 l -0.0537,0.0537 c 0,0.12878 -0.04292,0.19317 -0.128775,0.19317 h -0.01069 l 0.118087,-0.26837 c 0.05723,-0.0251 0.08576,-0.0429 0.08576,-0.0535 v -0.31125 c -0.01073,-0.0572 -0.02499,-0.0859 -0.04289,-0.0859 0.05008,-0.11268 0.07507,-0.19487 0.07507,-0.24673 l -0.01068,-0.0752 c -0.07333,-0.20032 -0.194907,-0.30044 -0.364818,-0.30044 z m -7.6192104,0.0107 c -0.2074624,0 -0.3934382,0.0322 -0.5579801,0.0966 v 0.0107 c 0.050066,0.0125 0.075079,0.0269 0.075079,0.0429 v 0.0322 l -0.096452,-0.0215 -0.085893,0.0966 v 0.12877 l 0.010688,1.29856 -0.010688,0.28974 0.085893,0.0322 v 0.0106 c -0.057233,0.007 -0.085893,0.0179 -0.085893,0.0321 v 0.0322 l 0.021375,0.0215 h 0.010696 l 0.2038506,-0.0644 0.021508,0.0214 c -0.050089,0 -0.075203,0.0107 -0.075203,0.0322 0,0.0287 0.025114,0.0751 0.075203,0.1396 v 0.0106 h -0.010696 c -0.085835,0 -0.1287752,-0.0429 -0.1287752,-0.12878 h -0.010688 c -0.053681,0 -0.085874,0.0357 -0.096581,0.10728 v 0.0215 h 0.032196 l -0.032196,0.0429 v 0.0109 c 0.02862,0 0.042883,0.0107 0.042883,0.0322 -0.042931,0.13592 -0.064384,0.22531 -0.064384,0.26824 v 0.0215 l 0.021384,0.0751 h 0.021375 c 0,-0.0215 0.014388,-0.0357 0.043008,-0.0429 0.010711,0 0.017808,0.0322 0.021375,0.0966 0,0.0215 -0.00707,0.0321 -0.021375,0.0321 h -0.021384 c -0.010758,0 -0.021485,-0.0143 -0.032196,-0.043 h -0.010812 l -0.010688,0.0109 c 0.014341,0.0859 0.028729,0.12877 0.043,0.12877 0,0.12877 0.1143843,0.19315 0.3433199,0.19315 h 0.1180796 c 0.1269846,0 0.2378336,-0.0107 0.3326306,-0.0321 0.595585,0 0.974838,-0.0501 1.13759,-0.15029 0.414939,-0.23966 0.622368,-0.60098 0.622368,-1.08389 v -0.0535 c 0,-0.0179 -0.01439,-0.0287 -0.043,-0.0321 l 0.043,-0.0537 v -0.0215 l -0.107391,0.0321 -0.03219,-0.0106 v -0.0215 c 0.02862,0 0.05374,-0.0178 0.0752,-0.0535 v -0.0644 l -0.02138,-0.0215 h -0.02151 l -0.08577,0.0321 c -0.02147,0 -0.03219,-0.007 -0.03219,-0.0215 l 0.236043,-0.0858 c 0,-0.1091 -0.01792,-0.25226 -0.0537,-0.42933 -0.06796,-0.25754 -0.132354,-0.38632 -0.193161,-0.38632 -0.0054,-0.0697 -0.03037,-0.13048 -0.07508,-0.18235 l -0.193162,-0.19316 c -0.02681,0 -0.123405,0.0679 -0.289743,0.20385 0.0161,0.0357 0.05182,0.0537 0.107269,0.0537 h 0.01068 c 0.06618,0 0.137771,-0.0143 0.214668,-0.043 v 0.0109 c 0,0.0769 -0.04293,0.13057 -0.128774,0.16096 h -0.01069 c -0.134152,-0.10019 -0.212794,-0.15027 -0.236044,-0.15027 h -0.02151 c -0.01612,0 -0.02683,0.0179 -0.03219,0.0537 h -0.06439 v -0.0644 c 0,-0.0125 -0.03925,-0.0269 -0.117957,-0.043 0,-0.0179 0.02146,-0.0287 0.06439,-0.0322 l 0.171657,0.0215 h 0.03219 l 0.03219,-0.0215 v -0.0107 l -0.01068,-0.0106 c -0.135922,0 -0.203851,-0.0788 -0.203851,-0.23616 v -0.0322 l 0.01068,-0.0535 -0.01068,-0.0107 -0.160968,0.0107 -0.7834651,-0.043 z m 5.3013964,0 -0.09658,0.0215 c -0.150248,0.0823 -0.225355,0.29336 -0.225355,0.63318 v 0.10727 l 0.03219,0.86923 -0.02151,0.81554 c 0.0179,0.3434 0.03936,0.51509 0.06438,0.51509 0.04471,0.10019 0.177148,0.15028 0.397141,0.15028 h 0.07508 l 0.622368,-0.0215 0.440023,0.0109 0.364819,-0.0215 c 0.157382,0 0.236173,-0.0644 0.236173,-0.19317 v -0.0644 c -0.03218,-0.15024 -0.08586,-0.22537 -0.160969,-0.22537 -0.02683,0.0215 -0.05196,0.0322 -0.07521,0.0322 h -0.02137 l -0.06439,-0.0644 -0.279055,0.0215 -0.954993,-0.0215 v -1.41652 l -0.01069,-0.0107 c -0.03577,0 -0.0537,-0.007 -0.0537,-0.0215 l -0.01069,-0.0107 v -0.12878 l -0.0215,-0.0644 h 0.0322 l 0.01081,0.0106 c 0,0.0215 0.0071,0.0321 0.02138,0.0321 h 0.02138 l 0.01069,-0.0107 0.01068,-0.49372 c 0,-0.11804 -0.01782,-0.22889 -0.05357,-0.33263 -0.034,-0.0787 -0.109097,-0.11807 -0.225355,-0.11807 z m -7.7801794,0.0752 h 0.085892 c 0.035787,0 0.057248,0.0107 0.064384,0.0321 v 0.0214 c -0.010727,0.0287 -0.035841,0.043 -0.075203,0.043 h -0.075072 z m 2.7257734,0.11796 h 0.02138 c -0.04113,0.0572 -0.08393,0.0859 -0.128645,0.0859 h -0.03219 v -0.0215 z m -3.4125286,0.19316 h 0.032196 c 0,0.05 -0.042938,0.0751 -0.1287752,0.0751 h -0.010688 v 0 c 0.032188,-0.05 0.068061,-0.0751 0.1073979,-0.0751 z m 0.7941531,0.0644 h 0.010688 c 0.3523405,0 0.6026977,0.17535 0.7511424,0.52591 l 0.064391,-0.0215 h 0.021508 l -0.021508,0.12878 0.043008,0.59016 v 0.0644 l -0.021508,0.20397 c 0,0.0287 0.014388,0.0429 0.043008,0.0429 v 0.0108 c -0.121634,0.0554 -0.1824741,0.13776 -0.1824741,0.24685 v 0.0322 l 0.010688,0.0107 c -0.1645419,0.0948 -0.2467326,0.18065 -0.2467326,0.25755 l -0.043008,-0.0214 c -0.1216146,0.0125 -0.182345,0.0554 -0.182345,0.12877 -0.2843859,0 -0.5992461,-0.10377 -0.9444331,-0.31124 l 0.021508,-0.0751 v -0.0109 l -0.085892,-0.18236 -0.3434419,0.10727 h -0.010688 c 0.08942,-0.0859 0.1717466,-0.12876 0.2468609,-0.12876 h 0.075072 l 0.010688,-0.0107 c -0.050082,-0.18064 -0.075079,-0.3488 -0.075079,-0.5044 0,-0.16454 0.028652,-0.33271 0.085892,-0.50441 0.1341322,-0.38633 0.3916811,-0.57948 0.7726475,-0.57948 z m 2.9079895,0 c 0,0.05 0.01074,0.0751 0.03219,0.0751 h 0.03219 l 0.043,-0.0109 c 0.06439,0 0.160962,0.0322 0.289742,0.0966 0.155599,0.10197 0.255721,0.21998 0.300432,0.35413 l 0.07508,-0.0214 h 0.01082 c 0.05006,0 0.07508,0.0215 0.07508,0.0644 v 0.0106 c -0.02325,0 -0.05192,-0.0142 -0.08589,-0.0429 -0.0179,0 -0.03582,0.0285 -0.0537,0.0858 0,0.0482 0.03585,0.0842 0.107398,0.10739 v 0.0429 l -0.07521,0.0215 c 0.02862,0.15381 0.06094,0.24672 0.09671,0.27892 h -0.06439 v 0.0215 l 0.08577,0.0106 -0.03219,0.0321 h -0.04289 l -0.01068,-0.0106 -0.01068,0.0106 0.01068,0.043 c 0,0.28439 -0.08584,0.5312 -0.257549,0.74046 v 0.0214 c 0.02862,0.004 0.04289,0.0143 0.04289,0.0321 l -0.07507,0.0109 h -0.01082 l -0.01068,-0.0109 v 0.0109 l -0.01069,0.0106 v 0.0107 c 0,0.0215 0.02868,0.0321 0.08589,0.0321 -0.0036,0.0179 -0.02869,0.0358 -0.07521,0.0537 v 0.0215 h -0.08576 c -0.0197,0 -0.03408,0.0357 -0.043,0.10727 L 10.6772,283.5141 v -0.0214 l 0.0537,0.0214 c 0.02146,0 0.03219,-0.007 0.03219,-0.0214 v -0.0107 c 0,-0.0161 -0.01792,-0.0269 -0.0537,-0.0322 l -0.139462,0.0109 0.01069,0.0535 v 0.0109 l -0.06439,-0.0215 v 0.0106 l -0.01068,0.0107 v 0.0214 l 0.04289,0.043 -0.02138,0.0214 h -0.01068 c -0.03938,0 -0.06451,-0.0215 -0.0752,-0.0644 l 0.01068,-0.0321 c -0.05724,-0.0287 -0.12515,-0.0429 -0.203851,-0.0429 h -0.193161 l -0.1287745,0.0106 -0.032195,-0.0644 0.010682,-0.18235 c 0,-0.0233 -0.01792,-0.0447 -0.053696,-0.0644 0.028623,-0.10019 0.043003,-0.1932 0.043003,-0.27905 v -0.0751 c 0,-0.0715 -0.014391,-0.14313 -0.043003,-0.21467 0.035776,0 0.053696,-0.0251 0.053696,-0.0751 0,-0.0429 -0.02146,-0.0716 -0.064379,-0.0859 0.035777,-0.0393 0.053696,-0.0823 0.053696,-0.12877 v -0.0429 c 0,-0.0429 -0.02146,-0.0788 -0.064379,-0.10739 0.050083,-0.0572 0.075082,-0.16088 0.075082,-0.31112 v -0.0859 c 0,-0.14487 -0.024999,-0.26292 -0.075082,-0.35413 l 0.064379,-0.0107 0.3756355,0.0107 c 0.08042,-2e-5 0.148304,-0.018 0.203722,-0.0537 z m -5.5586862,0.0537 h 0.03232 l 0.032196,0.0322 v 0.0537 l -0.085893,-0.0215 z m 12.8774652,0.10659 h 0.0537 v 0.0108 c 0,0.0429 -0.01793,0.0714 -0.0537,0.0858 -0.03579,0 -0.05725,-0.0107 -0.06438,-0.0322 z m 4.743157,0.0537 h 0.01082 l 0.171656,0.0966 v 0.0107 l -0.03219,0.0109 -0.09658,-0.0644 c -0.02862,0.004 -0.04289,0.0143 -0.04289,0.0321 l -0.0322,-0.0215 z m -4.947007,0.0751 h 0.07495 v 0.0215 l -0.04289,0.0321 c 0,0.0143 0.01428,0.0215 0.04289,0.0215 l -0.02138,0.0535 h -0.03219 l -0.02138,-0.0214 z m -9.0357321,0.043 0.15028,0.0214 v 0.0109 l -0.15028,0.0535 -0.1072688,-0.0429 c 0,-0.0233 0.035725,-0.0375 0.1072688,-0.0429 z m 8.8854521,0.0214 0.03219,0.0322 v 0.0107 l -0.07508,-0.0107 z m 5.204685,0.0859 c 0.03577,0 0.06442,0.018 0.08589,0.0537 v 0.0107 h -0.07521 l -0.06438,0.0429 h -0.03219 v -0.0108 c 0,-0.0161 0.02866,-0.0303 0.08589,-0.0429 v -0.0322 l -0.01069,-0.0109 z m -0.160968,0.17166 c 0.02146,0 0.03219,0.007 0.03219,0.0215 v 0.0322 l -0.08589,-0.0322 v -0.0106 z m -0.06438,0.0215 c 0,0.0429 0.02865,0.0644 0.08589,0.0644 v 0.0106 l -0.0537,0.0109 c -0.05724,0 -0.08589,-0.0251 -0.08589,-0.0752 z m -4.796986,0.0215 c 0.02862,0.004 0.043,0.0143 0.043,0.0322 -0.01072,0.0287 -0.03584,0.0429 -0.0752,0.0429 h -0.02138 c -0.01076,0 -0.02148,-0.0142 -0.03219,-0.0429 z m 1.953126,0.15016 c 0.01432,0.0787 0.03929,0.11808 0.07508,0.11808 v 0.0106 h -0.01069 l -0.0752,-0.0214 h -0.02138 c -0.01611,0 -0.02683,0.0178 -0.03219,0.0535 l -0.02138,-0.0214 v -0.0321 z m -13.3817482,0.043 h 0.010688 c 0.055437,0.05 0.094836,0.0751 0.1180865,0.0751 v 0.0106 l -0.01082,0.0109 -0.1501509,-0.0537 c 0.01075,-0.0287 0.021485,-0.0429 0.032196,-0.0429 z m -0.718949,0.0322 h 0.032196 v 0.0966 h -0.043008 c -0.010758,0 -0.021485,-0.0144 -0.032196,-0.043 0.014341,-0.0321 0.028729,-0.0499 0.043008,-0.0535 z m 12.2335932,0.0535 c -0.04114,0.0572 -0.0876,0.0858 -0.139463,0.0858 l 0.02137,0.0644 c -0.0358,0 -0.05725,-0.0142 -0.06439,-0.0429 0,-0.0357 0.06085,-0.0716 0.182475,-0.10741 z m -11.2142126,0.043 h 0.010688 l 0.085892,0.0751 -0.021376,0.0215 H 6.4491241 l -0.010688,-0.0109 0.010688,-0.0321 c 0.02862,-0.0197 0.042883,-0.0375 0.042883,-0.0535 z m 15.5495396,0.10726 h 0.118087 v 0.0215 c -0.0054,0.0215 -0.02683,0.0322 -0.06439,0.0322 -0.02326,0 -0.04826,-0.0107 -0.07507,-0.0322 z m -12.2227755,0.0537 0.021375,0.0214 c -0.021502,0 -0.039422,0.0144 -0.053696,0.043 v 0.0106 l -0.096582,-0.0215 -0.1287744,0.0109 v -0.0109 l -0.010688,-0.0107 c 0.091211,-0.0285 0.1807228,-0.0429 0.268367,-0.0429 z m 11.5790305,0.19316 h 0.02138 l 0.107269,0.0106 c -0.0161,0.0429 -0.04109,0.0644 -0.07507,0.0644 l -0.193161,-0.0429 v -0.0109 z M 9.6147962,282.9038 h 0.1287752 l 0.07508,0.0109 v 0.0106 c 0,0.0644 -0.082197,0.0966 -0.2467328,0.0966 v -0.0215 c 0,-0.0179 0.021462,-0.0287 0.064391,-0.0321 h 0.053696 v -0.0214 l -0.075203,-0.0322 z m 8.0485458,0.19316 h 0.02137 c 0,0.0572 0.01426,0.0859 0.04289,0.0859 -0.03578,0.0375 -0.05357,0.0663 -0.05357,0.0859 l -0.06439,-0.043 -0.15028,0.0537 -0.01069,-0.0644 c 0.135921,-0.0251 0.20385,-0.0608 0.20385,-0.10727 z m -6.127613,0.0537 h 0.02138 c -0.02504,0.0429 -0.06797,0.0644 -0.128774,0.0644 h -0.02138 c 0.0018,-0.0197 0.04472,-0.0411 0.128774,-0.0644 z m -8.3274713,0.22535 h 0.032196 v 0.0537 c 0,0.0215 0.014263,0.0322 0.042883,0.0322 v 0.0106 l -0.010688,0.0106 -0.1072696,-0.0322 h -0.042889 v 0 c 0,-0.0447 0.028675,-0.0697 0.085892,-0.0751 z m 6.4065385,0.0966 h 0.010688 c 0.064391,0.0285 0.096581,0.0644 0.096581,0.10727 h -0.021375 c -0.05724,0 -0.085892,-0.0322 -0.085892,-0.0966 z m 8.0914278,0.0106 h 0.04289 c -0.0054,0.0215 -0.02683,0.0322 -0.06438,0.0322 -0.02325,0.0715 -0.05544,0.1074 -0.09658,0.1074 h -0.01069 l 0.02137,-0.0751 c 0,-0.0215 -0.025,-0.0322 -0.07507,-0.0322 v -0.0106 z m -7.426177,0.0752 h 0.07508 l 0.0537,0.0106 -0.01068,0.0537 v 0.0106 c 0.100166,0.0536 0.150152,0.0859 0.150152,0.0966 v 0.0106 l -0.03219,0.0109 -0.01068,-0.0109 h -0.06438 l -0.02138,0.0215 h -0.01068 c -0.0179,-0.10732 -0.05009,-0.16098 -0.09658,-0.16098 l -0.0537,0.0106 h -0.01068 v 0 c 0.0055,-0.0357 0.01614,-0.0535 0.0322,-0.0535 z m 7.51194,0 c 0.04651,0 0.07163,0.0142 0.07521,0.0429 v 0.0106 h -0.06439 c -0.05724,0 -0.08589,0.0501 -0.08589,0.15029 l -0.128776,-0.0215 h -0.01069 v -0.0214 l 0.01069,-0.0109 c 0.08586,-0.0375 0.128776,-0.0626 0.128776,-0.0751 v -0.0108 l -0.01069,-0.0537 z m -6.803551,0.0429 0.02138,0.0429 -0.268239,0.0215 v -0.0107 0 c 0,-0.0269 0.08219,-0.0448 0.246734,-0.0537 z m -2.6291926,0.0537 h 0.053571 l 0.021508,0.0214 v 0.0322 h -0.021508 l -0.085764,-0.0214 h -0.021508 l -0.010688,0.0106 v -0.0106 c 0,-0.0179 0.021462,-0.0286 0.064384,-0.0322 z m 1.8028456,0 0.05357,0.0322 c 0,0.0429 0.02513,0.0644 0.0752,0.0644 v 0.0106 l -0.150281,0.0321 v -0.0107 l 0.01068,-0.0107 v -0.0322 l -0.02138,-0.0214 h -0.01068 l -0.04289,0.0106 -0.0537,-0.0106 c 0.04828,-0.0429 0.09473,-0.0644 0.139463,-0.0644 z m -0.6116796,0.0858 h 0.06426 c 0.1699113,0 0.3238092,0.0107 0.4615276,0.0322 l -0.085891,0.0751 0.010693,0.0535 h -0.05357 c -0.037557,-0.0715 -0.069752,-0.11446 -0.096584,-0.12877 H 9.840026 l -0.010682,0.0108 c 0,0.0357 -0.00706,0.0535 -0.021375,0.0535 H 9.797276 c -0.06618,-0.05 -0.148497,-0.0751 -0.2468611,-0.0751 z m -0.085893,0.0215 h 0.01082 c 0,0.0233 0.017925,0.0412 0.053696,0.0537 l 0.064384,-0.0107 h 0.010688 l -0.021508,0.0321 -0.1287744,-0.0106 H 9.443134 Z m 1.4165216,0.0215 v 0.0214 c 0,0.0303 -0.05364,0.0518 -0.160969,0.0644 l -0.02138,-0.0429 0.01068,-0.0107 0.0537,0.0107 c 0.03578,0 0.07503,-0.0142 0.117958,-0.0429 z m 10.720618,0.0644 0.01068,0.0535 v 0.0109 h -0.10727 c 0.02504,-0.0429 0.05724,-0.0644 0.09658,-0.0644 z m -20.544965,0.20385 h 0.085764 v 0.0106 l -0.1286454,0.0859 c -0.0143485,-0.004 -0.0287371,-0.0215 -0.0430076,-0.0537 0,-0.0287 0.0286517,-0.0429 0.085893,-0.0429 z m 10.124907,0.19317 0.08589,0.0859 h -0.03219 c -0.04296,0 -0.07162,-0.0179 -0.08589,-0.0537 z m -6.535314,0.0215 h 0.075079 c -0.016113,0.0787 -0.037575,0.11796 -0.064391,0.11796 H 4.624776 v -0.0322 l 0.032196,-0.0106 H 4.66766 Z m 5.365653,0 h 0.107269 c 0.03934,0.0715 0.09301,0.10728 0.160969,0.10728 0,0.0179 -0.02513,0.0321 -0.07521,0.0429 -0.05902,-0.0787 -0.12329,-0.11795 -0.193034,-0.11795 z m 0.536604,0.0751 h 0.06438 v 0.0107 c 0,0.0107 -0.02514,0.0251 -0.07521,0.043 -0.04293,0 -0.06438,0.007 -0.06438,0.0214 l 0.0215,0.0322 0.117958,-0.0214 0.02138,0.0429 -0.01068,0.0106 v 0.0107 l 0.01068,0.0106 0.118086,-0.0215 c 0.03578,0.005 0.0537,0.0161 0.0537,0.0322 v 0.0644 h -0.04289 l -0.364948,-0.0535 0.0537,-0.0751 -0.02137,-0.0644 c 0,-0.0287 0.03939,-0.0429 0.118087,-0.0429 z m 3.356061,0 0.03219,0.0107 c 0.03041,0.11268 0.05895,0.18073 0.08577,0.20398 v 0.0106 h -0.04289 l -0.236045,-0.0644 h -0.02151 v -0.0322 l 0.01069,-0.0107 0.0752,0.0214 0.0322,-0.0106 -0.02138,-0.0859 v 0 c 0,-0.0143 0.02865,-0.0287 0.08589,-0.0429 z m 10.369,0.008 c 0.03915,0.0292 0.06705,0.0456 0.08061,0.0456 v 0.0106 l -0.08061,0.0162 z m -14.3797506,0.0456 0.2575486,0.0751 h 0.03219 c -0.0161,0.0787 -0.05184,0.11809 -0.107269,0.11809 -0.05187,0 -0.1162449,-0.0466 -0.1931612,-0.13959 z m 13.8325876,0 h 0.02138 l 0.01068,0.0321 c -0.01427,0 -0.02137,0.0357 -0.02137,0.10728 l -0.06439,-0.0215 0.01069,-0.0106 c 0.0197,-0.0715 0.03408,-0.10728 0.043,-0.10728 z m -16.5476726,0.0106 v 0.0215 c -0.017878,0.0357 -0.04653,0.0535 -0.085892,0.0535 H 7.071499 v -0.0322 c 0,-0.0179 0.035725,-0.0322 0.1072696,-0.0429 z m -3.9811973,0.0429 h 0.021375 l 0.043008,0.0644 c -0.00536,0.0215 -0.026832,0.0322 -0.064391,0.0322 H 3.122489 v -0.0106 l 0.010688,-0.0106 v -0.0321 l -0.010688,-0.0109 0.075072,0.0215 0.021375,-0.0215 v -0.0107 H 3.197561 Z m 19.0263279,0.0215 h 0.03219 c -0.02504,0.0644 -0.05722,0.0966 -0.09658,0.0966 l -0.02138,-0.0429 c 0.02326,-0.0357 0.05179,-0.0537 0.08577,-0.0537 z m -17.3093748,0.0106 h 0.053696 l 0.1609677,0.0107 v 0.0108 c 0,0.0197 -0.035725,0.0339 -0.1072689,0.0429 -0.071551,-0.0125 -0.1073978,-0.0303 -0.1073978,-0.0535 z"
       id="path5963" />
  </g>
</svg>
