<?xml version="1.0" encoding="UTF-8" standalone="no"?>
<!-- Created with Inkscape (http://www.inkscape.org/) -->

<svg
   xmlns:dc="http://purl.org/dc/elements/1.1/"
   xmlns:cc="http://creativecommons.org/ns#"
   xmlns:rdf="http://www.w3.org/1999/02/22-rdf-syntax-ns#"
   xmlns:svg="http://www.w3.org/2000/svg"
   xmlns="http://www.w3.org/2000/svg"
   xmlns:xlink="http://www.w3.org/1999/xlink"
   xmlns:sodipodi="http://sodipodi.sourceforge.net/DTD/sodipodi-0.dtd"
   xmlns:inkscape="http://www.inkscape.org/namespaces/inkscape"
   width="100"
   height="100"
   viewBox="0 0 26.458333 26.458333"
   version="1.1"
   id="svg5379"
   inkscape:version="0.92.0 r15299"
   sodipodi:docname="tank_icon.svg">
  <defs
     id="defs5373">
    <linearGradient
       inkscape:collect="always"
       xlink:href="#linearGradient4595"
       id="linearGradient4597-7"
       x1="887.80212"
       y1="-220.30157"
       x2="887.80212"
       y2="-276.95328"
       gradientUnits="userSpaceOnUse"
       gradientTransform="matrix(0.0536115,0,0,0.05599781,-36.595955,286.19793)" />
    <linearGradient
       inkscape:collect="always"
       id="linearGradient4595">
      <stop
         style="stop-color:#ffcc00;stop-opacity:1;"
         offset="0"
         id="stop4591" />
      <stop
         style="stop-color:#ffcc00;stop-opacity:0;"
         offset="1"
         id="stop4593" />
    </linearGradient>
  </defs>
  <sodipodi:namedview
     id="base"
     pagecolor="#ffffff"
     bordercolor="#666666"
     borderopacity="1.0"
     inkscape:pageopacity="0.0"
     inkscape:pageshadow="2"
     inkscape:zoom="3.959798"
     inkscape:cx="66.703917"
     inkscape:cy="92.047058"
     inkscape:document-units="px"
     inkscape:current-layer="layer1"
     showgrid="false"
     units="px"
     width="100px"
     inkscape:pagecheckerboard="true"
     inkscape:window-width="2560"
     inkscape:window-height="1377"
     inkscape:window-x="-8"
     inkscape:window-y="-8"
     inkscape:window-maximized="1" />
  <metadata
     id="metadata5376">
    <rdf:RDF>
      <cc:Work
         rdf:about="">
        <dc:format>image/svg+xml</dc:format>
        <dc:type
           rdf:resource="http://purl.org/dc/dcmitype/StillImage" />
        <dc:title></dc:title>
      </cc:Work>
    </rdf:RDF>
  </metadata>
  <g
     inkscape:label="Layer 1"
     inkscape:groupmode="layer"
     id="layer1"
     transform="translate(0,-270.54167)">
    <path
       style="fill:#171717;stroke-width:0.09792314"
       d="m 7.3931262,288.64447 c -0.6242468,-0.10472 -1.4728436,-0.52601 -1.6720568,-0.83006 -0.096462,-0.14721 -0.2516932,-0.24231 -0.3955438,-0.24231 -0.1302241,0 -0.2640049,-0.0441 -0.2972909,-0.0979 -0.033286,-0.0539 -0.2231645,-0.0982 -0.4219525,-0.0984 -0.2120891,-3e-4 -0.5232797,-0.10019 -0.7531252,-0.24175 -0.2154308,-0.13269 -0.4466568,-0.24263 -0.5138354,-0.24431 -0.067178,-0.001 -0.3976689,-0.13075 -0.7344236,-0.28682 -0.3367543,-0.15607 -0.8215914,-0.37392 -1.0774157,-0.4841 -0.5075829,-0.21864 -0.60819175,-0.40722 -0.2172538,-0.40722 0.1363345,0 0.2732453,-0.066 0.3042463,-0.14687 0.095032,-0.24765 0.2172243,-0.16375 0.2495343,0.17135 0.019668,0.20398 0.08343,0.31825 0.1775695,0.31825 0.1966511,0 0.244501,-0.47847 0.086095,-0.8609 -0.101439,-0.24489 -0.1012068,-0.30913 0.00126,-0.34328 0.1158864,-0.0387 -0.011501,-0.1416 -0.4587733,-0.37084 -0.1939458,-0.0994 -0.2716065,0.0438 -0.1389545,0.25619 0.1523149,0.24389 0.1529884,0.36411 0.00118,0.2123 -0.1751191,-0.17511 -0.351011,-0.14239 -0.4210694,0.0783 -0.076766,0.24187 -0.34273111,0.25974 -0.34273111,0.023 0,-0.095 -0.0930722,-0.34647 -0.20682733,-0.55871 -0.16789771,-0.31326 -0.18507056,-0.42074 -0.0912354,-0.57099 0.0917552,-0.14692 0.0857249,-0.2185 -0.0292412,-0.34707 -0.18532292,-0.20728 -0.36895628,-1.84914 -0.23588236,-2.10903 0.0519361,-0.10144 0.0677419,-0.35129 0.0351259,-0.55527 -0.0689573,-0.43124 0.002699,-0.6802 0.19580719,-0.6802 0.0862823,0 0.13640822,0.10797 0.13640822,0.29377 0,0.17576 0.0511376,0.29376 0.12729988,0.29376 0.18396758,0 0.36231551,-0.20597 0.36231551,-0.41845 0,-0.12292 0.056588,-0.17178 0.1713656,-0.14815 0.2406527,0.0496 0.2014987,0.80994 -0.05633,1.09395 -0.1033927,0.11388 -0.21761068,0.33928 -0.25381719,0.50086 -0.0362069,0.16157 -0.11255296,0.47003 -0.16965871,0.68545 -0.0571064,0.21544 -0.11021517,0.56796 -0.11802078,0.78339 -0.0137643,0.37983 -0.001369,0.39575 0.40981978,0.52585 0.5746821,0.18181 0.6748122,0.0721 0.4972178,-0.54498 -0.1902372,-0.66096 -0.1593858,-1.69184 0.06184,-2.06634 0.1851512,-0.31344 0.3867028,-0.40776 0.8774696,-0.4106 l 0.2937694,-0.001 -0.3075657,-0.18755 c -0.4163646,-0.25388 -0.4921237,-0.40053 -0.2408639,-0.46624 0.2976591,-0.0779 0.2532619,-0.20429 -0.1275961,-0.36343 -0.3850109,-0.16086 -0.5551874,-0.52356 -0.3247219,-0.69208 0.082153,-0.06 0.1646678,-0.21766 0.1833661,-0.35019 0.023187,-0.16436 0.096264,-0.24098 0.2298427,-0.24098 0.1408568,0 0.2045464,-0.0756 0.2268314,-0.26928 0.03298,-0.28664 -0.063943,-0.34405 -0.2562083,-0.15178 -0.091395,0.0914 -0.1175073,0.0825 -0.1175073,-0.0403 0,-0.0868 0.1309376,-0.26795 0.2909726,-0.4026 0.3593442,-0.30237 1.8937689,-0.67313 2.5987352,-0.62792 0.4713679,0.0303 0.4897306,0.0426 0.5194787,0.34747 0.026007,0.26661 -0.054528,0.41047 -0.5140963,0.91831 -0.6199385,0.68505 -0.6958662,0.96049 -0.2647729,0.96049 0.2321295,0 0.3202399,-0.0756 0.5139283,-0.44066 0.2557124,-0.48202 0.3293064,-0.51778 0.5865447,-0.28498 0.1593066,0.14418 0.1827715,0.13489 0.317566,-0.12579 0.080052,-0.1548 0.1763545,-0.44567 0.2140063,-0.64637 0.073659,-0.39263 0.2039965,-0.53794 0.3508223,-0.39111 0.056926,0.0569 -0.066029,0.54125 -0.3244907,1.27818 -0.2288806,0.65259 -0.3929027,1.20978 -0.3644931,1.23819 0.028409,0.0284 1.1290132,0.0806 2.4457868,0.11613 l 2.3941349,0.0644 0.766895,-0.41683 c 0.421794,-0.22926 0.788599,-0.47339 0.815122,-0.5425 0.02653,-0.0691 -0.08263,-0.53432 -0.242567,-1.03375 l -0.290793,-0.90809 -0.62225,-0.17403 c -0.34224,-0.0957 -0.721401,-0.17557 -0.84258,-0.17746 -0.305798,-0.005 -0.275128,-0.15585 0.07343,-0.36175 0.336,-0.19848 0.356722,-0.29162 0.135231,-0.60785 -0.130163,-0.18583 -0.216076,-0.21556 -0.479991,-0.16604 -0.3145485,0.059 -0.6344718,-0.11425 -0.6344718,-0.34365 0,-0.05 -0.04874,-0.0909 -0.1083143,-0.0909 -0.1322911,0 -0.5388514,0.50206 -0.5008987,0.61856 0.015011,0.0461 -0.062105,0.10709 -0.1713656,0.13572 -0.3118005,0.0815 -0.2324336,0.22495 0.1244893,0.22495 0.4200465,0 0.558162,0.15023 0.558162,0.60713 v 0.3721 H 8.7003631 8.0149011 v -0.48617 c 0,-0.51799 -0.1461949,-0.68891 -0.5892613,-0.68891 -0.1248747,0 -0.193823,-0.0497 -0.1695673,-0.12241 0.024131,-0.0722 0.1639183,-0.10973 0.3411804,-0.0915 0.1651671,0.017 0.3293067,-0.0161 0.3647549,-0.0734 0.035449,-0.0574 0.1977195,-0.10433 0.3606023,-0.10433 0.3797595,0 0.3257859,-0.22497 -0.07098,-0.29585 -0.1996148,-0.0357 -0.2468973,-0.0755 -0.1569334,-0.13211 0.070817,-0.0446 0.2727731,-0.054 0.448792,-0.0211 0.2722313,0.0511 0.3359323,0.0251 0.4264689,-0.17355 0.1293721,-0.28394 0.5672798,-0.4171 0.7843026,-0.2385 0.084623,0.0697 0.3109208,0.12662 0.5028898,0.12662 0.337051,0 0.354098,0.0177 0.496491,0.5141 0.101497,0.35384 0.198,0.5141 0.309613,0.5141 0.08919,0 0.187521,0.066 0.218523,0.14688 0.0644,0.16783 0.410992,0.1981 0.506104,0.0442 0.121573,-0.19671 0.348342,0.0996 0.236365,0.30881 -0.08693,0.16242 -0.06368,0.18555 0.186484,0.18555 0.199604,0 0.300641,0.0567 0.335027,0.18827 0.03018,0.11538 0.157755,0.20447 0.329671,0.23013 0.189287,0.0283 0.131134,0.0466 -0.178917,0.0565 -0.252646,0.008 -0.480052,0.0482 -0.505346,0.0891 -0.0253,0.0409 0.01484,0.21907 0.08918,0.39589 0.132363,0.3148 0.140219,0.31816 0.378146,0.16226 0.142147,-0.0932 0.325341,-0.13306 0.441459,-0.0962 0.153494,0.0487 0.242622,-0.0101 0.393215,-0.25722 0.107097,-0.17611 0.221737,-0.44316 0.254745,-0.59345 0.111931,-0.50958 0.669096,-0.18307 0.605262,0.35469 -0.01669,0.14055 0.06329,0.20761 0.3205,0.26874 0.188502,0.0448 0.483985,0.12791 0.65663,0.18469 0.244027,0.0802 0.376898,0.0707 0.59692,-0.0431 0.299754,-0.155 0.881811,-0.19164 1.550281,-0.0976 0.247449,0.0348 0.430436,0.0153 0.470913,-0.0502 0.108025,-0.1748 0.43144,-0.12204 0.544258,0.0888 0.13909,0.2599 0.345652,0.25039 1.941061,-0.0894 0.736652,-0.15689 1.662232,-0.31173 2.056848,-0.34411 0.394615,-0.0324 0.835269,-0.12468 0.979232,-0.20503 0.37988,-0.2121 0.828061,-0.55951 0.976394,-0.75686 0.235545,-0.31338 1.492436,-0.16617 1.629431,0.19083 0.09391,0.24474 -0.1592,0.81485 -0.382026,0.86045 -0.231736,0.0475 -1.558751,0.27128 -2.892321,0.48791 -1.815587,0.29492 -5.112392,1.0684 -5.167648,1.2124 -0.02927,0.0762 0.08597,0.39179 0.256054,0.70117 0.358657,0.6524 0.328933,0.71321 -0.429222,0.87789 -0.758252,0.16472 -0.811697,0.19333 -0.591802,0.31674 0.179825,0.10094 0.180287,0.11061 0.01118,0.23426 -0.166092,0.12141 -0.162748,0.13436 0.05723,0.2208 0.128494,0.0505 0.916641,0.24699 1.751436,0.43664 0.834794,0.18963 1.738135,0.39513 2.007424,0.45666 0.791935,0.18093 0.863182,0.17239 1.005707,-0.12041 0.152275,-0.3128 0.414178,-0.35924 0.414178,-0.0734 0,0.2746 0.182306,0.24421 0.29377,-0.049 0.07552,-0.19863 0.159649,-0.24481 0.44601,-0.24481 0.346658,0 0.351743,0.006 0.285878,0.31826 -0.05482,0.26014 -0.04372,0.2959 0.06077,0.19583 0.0703,-0.0673 0.276137,-0.12241 0.457409,-0.12241 0.181271,0 0.408671,-0.0423 0.505333,-0.094 0.09666,-0.0517 0.47317,-0.10509 0.836685,-0.11852 0.813402,-0.03 0.933153,0.0874 0.933153,0.91482 0,0.52309 -0.01895,0.57172 -0.244807,0.62841 -0.141739,0.0355 -0.244808,0.13194 -0.244808,0.22889 0,0.54399 -0.332212,1.23346 -0.838047,1.7393 -0.624732,0.62472 -0.57989,0.67304 0.534498,0.57582 0.420421,-0.0367 0.881036,-0.0374 1.023591,-0.001 0.25845,0.0649 0.259189,0.0678 0.259189,1.03368 v 0.96861 l -0.563058,7.4e-4 c -0.309682,3.7e-4 -1.290138,0.10748 -2.17879,0.23774 -2.190121,0.32102 -4.216157,0.45887 -6.267081,0.42641 -0.94251,-0.0149 -2.281889,0.0276 -2.976396,0.0945 -1.383825,0.13337 -6.2856403,0.14656 -7.0459904,0.019 z m -0.3960726,-0.75562 c 0.059553,-0.0395 0.1387843,-0.23782 0.176068,-0.44056 0.05856,-0.31845 0.039763,-0.37901 -0.138061,-0.44479 -0.1132171,-0.0419 -0.259848,-0.18446 -0.3258448,-0.31683 -0.1690528,-0.33909 -0.4043489,-0.30959 -0.4234625,0.0531 -0.00851,0.16157 -0.01953,0.34885 -0.024483,0.41617 -0.00495,0.0673 -0.086113,0.12304 -0.1803639,0.12392 -0.094251,7.4e-4 -0.2361048,0.0424 -0.3152306,0.0925 -0.1105529,0.0699 -0.019856,0.14871 0.3916924,0.34028 0.5745713,0.26745 0.6717392,0.28785 0.8396832,0.17626 z M 5.610221,287.15862 c 0.208435,-0.29758 0.1912522,-0.53277 -0.043409,-0.59412 -0.1213392,-0.0318 -0.1958464,-0.13358 -0.1958464,-0.26769 0,-0.23164 -0.6948399,-0.97694 -0.9107971,-0.97694 -0.069953,0 -0.1855749,0.0551 -0.2569364,0.12241 -0.091051,0.0859 -0.1417536,0.09 -0.1700006,0.0139 -0.02214,-0.0596 -0.1020781,-0.19188 -0.1776421,-0.29377 -0.1165757,-0.15719 -0.1677615,-0.16671 -0.3378705,-0.0629 -0.2605387,0.15907 -0.2691329,0.15715 -0.3294352,-0.0735 -0.053931,-0.20623 -0.402655,-0.27193 -0.5111914,-0.0963 -0.033828,0.0547 -0.1025276,0.0742 -0.1526639,0.0432 -0.1043255,-0.0645 -0.1170917,0.32385 -0.028306,0.861 0.04338,0.26246 0.1099264,0.36722 0.2332536,0.36722 0.094907,0 0.1979211,-0.066 0.2289221,-0.14688 0.096644,-0.25186 0.2741028,-0.16169 0.240885,0.12241 -0.025401,0.21722 0.011614,0.2754 0.1914392,0.30091 0.1744497,0.0247 0.246119,-0.0349 0.3295721,-0.27428 0.1310298,-0.37587 0.201546,-0.31916 0.2735049,0.21999 0.044358,0.33235 0.098222,0.42047 0.2721691,0.4452 0.1692118,0.0241 0.2301822,-0.0298 0.2774674,-0.24481 0.1050198,-0.47768 0.1447919,-0.55732 0.231423,-0.46338 0.1425571,0.15457 0.2261334,0.82424 0.1028665,0.82424 -0.1978772,0 -0.037166,0.23759 0.2068292,0.30578 0.3616528,0.10107 0.3629352,0.1007 0.5257651,-0.13173 z M 4.2425074,285.8021 c -0.077465,-0.24407 -0.010634,-0.3311 0.1939652,-0.2526 0.1904636,0.0731 0.1995504,0.45584 0.010823,0.45584 -0.077157,0 -0.1693119,-0.0914 -0.2047882,-0.20324 z m -0.7124968,-0.11011 c -0.1328168,-0.13282 -0.1580053,-0.37211 -0.039169,-0.37211 0.1220335,0 0.3133539,0.22121 0.3133539,0.36232 0,0.15925 -0.120415,0.16356 -0.2741847,0.01 z m -0.8356109,-0.33947 c -0.1126734,-0.11262 -0.071311,-0.22849 0.081603,-0.22849 0.080787,0 0.1468847,0.066 0.1468847,0.14689 0,0.15292 -0.1158135,0.19428 -0.2284877,0.0816 z m 5.1246447,1.0121 c 0,-0.19235 -0.3980287,-0.36377 -0.7344236,-0.3163 -0.1615734,0.0227 -0.3268185,0.0444 -0.367212,0.0482 -0.040393,0.004 -0.073442,0.0776 -0.073442,0.16425 0,0.11801 0.05982,0.14248 0.2388065,0.0976 0.1313436,-0.033 0.2661404,-0.0157 0.2995486,0.0383 0.091985,0.14885 0.6367226,0.12141 0.6367225,-0.032 z m -1.6096275,-0.36915 c 0.036644,-0.0593 -0.024986,-0.19942 -0.1369545,-0.31139 -0.1736783,-0.17367 -0.2401444,-0.18691 -0.4525377,-0.0901 -0.3071406,0.13994 -0.3153373,0.25154 -0.028631,0.38981 0.2907822,0.14025 0.5358213,0.14489 0.6181241,0.0113 z m 3.4701671,-0.24693 c 0,-0.18431 -0.1612109,-0.17055 -0.2343316,0.02 -0.1036688,0.27016 -0.068275,0.36603 0.087448,0.2368 0.080781,-0.067 0.1468853,-0.1826 0.1468853,-0.2568 z m -1.7189182,-0.57207 c -0.1048202,-0.0792 -0.2625583,-0.14554 -0.3505277,-0.14724 -0.2266971,-0.005 -0.3091531,-0.38877 -0.1017378,-0.47422 0.090068,-0.0372 0.1723497,-0.15561 0.1828491,-0.26332 0.010496,-0.10772 0.048704,-0.31713 0.0849,-0.46535 0.049671,-0.20342 0.00643,-0.3475 -0.1763657,-0.58755 -0.1331965,-0.17492 -0.2735177,-0.41717 -0.3118253,-0.53835 -0.091296,-0.2888 0.015974,-0.61202 0.2031141,-0.61202 0.2269377,0 0.099173,-0.2322 -0.1616437,-0.29377 -0.3118981,-0.0737 -0.3733512,-0.29407 -0.081603,-0.29271 0.46239,0.003 1.1682191,0.29247 1.5041026,0.61867 0.3068704,0.29804 0.324449,0.34075 0.1581036,0.38425 -0.1424338,0.0373 -0.1753507,0.11062 -0.137762,0.30732 0.067424,0.3527 0.1193428,0.3684 0.7232701,0.2187 0.2897266,-0.0718 0.8572649,-0.13655 1.2611979,-0.14386 0.403933,-0.008 1.108979,-0.0434 1.566771,-0.0805 0.45779,-0.0369 0.920298,-0.0704 1.027797,-0.0744 0.107498,-0.004 0.201135,-0.0623 0.208086,-0.12965 0.0069,-0.0673 0.01814,-0.16924 0.02487,-0.22648 0.0068,-0.0573 0.08936,-0.0962 0.183605,-0.0866 0.465387,0.0473 0.598052,-0.22513 0.195846,-0.40222 -0.161234,-0.0709 -0.03649,-0.0839 0.465135,-0.0478 0.648675,0.0465 0.673637,0.0407 0.465135,-0.1076 -0.121183,-0.0863 -0.220327,-0.23373 -0.220327,-0.32782 0,-0.18154 -0.405147,-0.29147 -1.082051,-0.29356 -0.191194,-7.4e-4 -0.397542,-0.051 -0.458552,-0.112 -0.06276,-0.0628 -0.188185,-0.0793 -0.288873,-0.0382 -0.09787,0.0401 -1.301694,0.0649 -2.675161,0.0554 -2.9311267,-0.0205 -3.4656318,0.0276 -3.5975898,0.32331 l -0.092374,0.20701 -0.1168406,-0.21831 c -0.1238941,-0.23151 -0.3481131,-0.26582 -1.0157379,-0.15548 -0.4272146,0.0706 -0.4933244,0.23092 -0.095231,0.23092 0.3349698,0 0.7072673,0.24779 0.7072011,0.4707 -2.74e-5,0.0912 -0.088158,0.39762 -0.1958464,0.68096 -0.2465162,0.64859 -0.2464199,0.96739 4.071e-4,1.37224 0.1075183,0.17634 0.195484,0.47117 0.195484,0.6552 0,0.18402 0.054641,0.36835 0.1214233,0.40962 0.066783,0.0413 0.5184535,0.16965 1.0037121,0.2853 0.891598,0.21246 1.2382919,0.17273 0.8770259,-0.10045 z m -1.3166991,-0.93376 c 0,-0.10772 0.044065,-0.19585 0.097922,-0.19585 0.053858,0 0.097924,0.0881 0.097924,0.19585 0,0.10773 -0.044065,0.19585 -0.097924,0.19585 -0.053857,0 -0.097922,-0.0881 -0.097922,-0.19585 z m 6.3067243,-1.9964 c -0.08346,-0.21747 0.02133,-0.45167 0.202092,-0.45167 0.191944,0 0.194806,0.33049 0.0043,0.48865 -0.11802,0.0979 -0.157249,0.0909 -0.206323,-0.0369 z m -3.2745522,2.88415 c 0.055758,-0.10421 0.1013712,-0.26236 0.1013712,-0.35151 0,-0.17947 -0.3969147,-0.54457 -0.5136071,-0.47244 -0.1280876,0.0792 -0.080241,0.22997 0.072959,0.22997 0.1922462,0 0.1891225,0.33267 -0.00465,0.49346 -0.1210202,0.10044 -0.1259494,0.14198 -0.024483,0.20635 0.1908966,0.12116 0.257142,0.10207 0.3684017,-0.10584 z m -5.6571115,-1.0312 c -0.021785,-0.18661 -0.1010687,-0.39031 -0.1761832,-0.45264 -0.075114,-0.0623 -0.1365718,-0.19608 -0.1365718,-0.2972 0,-0.10107 -0.060108,-0.18386 -0.1335748,-0.18386 -0.083254,0 -0.1554155,-0.15935 -0.1915506,-0.42299 -0.1337338,-0.97569 -0.414161,-1.21486 -0.680901,-0.58073 -0.1998036,0.47501 -0.2540597,0.93662 -0.1798113,1.52984 0.054595,0.4362 0.089137,0.48772 0.4024523,0.60034 0.1885022,0.0678 0.5211609,0.12843 0.7392413,0.13485 l 0.3965104,0.0113 z m 5.8928969,-0.22807 c 0.026429,-0.0428 -0.047685,-0.22896 -0.1647063,-0.41377 -0.2351262,-0.37136 -0.3447865,-0.22469 -0.1719318,0.22995 0.097893,0.25748 0.2423594,0.33637 0.3366381,0.18382 z m 2.4115848,-0.11814 c 0,-0.0539 -0.154229,-0.10522 -0.342731,-0.11426 -0.188503,-0.009 -0.416174,-0.02 -0.505938,-0.0245 -0.08976,-0.005 -0.181564,0.047 -0.204005,0.11425 -0.02939,0.0881 0.112068,0.12242 0.505936,0.12242 0.300706,0 0.546738,-0.0441 0.546738,-0.0979 z m 2.643925,-1.17508 c 0,-0.0539 -0.04147,-0.0979 -0.09214,-0.0979 -0.05067,0 -0.119376,0.0441 -0.152665,0.0979 -0.03328,0.0539 0.0082,0.0979 0.09214,0.0979 0.08397,0 0.152665,-0.0441 0.152665,-0.0979 z m 3.476271,-0.18045 c 1.537988,-0.0632 1.965667,-0.18359 1.155588,-0.32534 -1.760689,-0.30809 -2.752612,-0.52428 -2.915513,-0.63543 -0.273293,-0.18646 -0.580187,-0.16344 -0.781126,0.0586 -0.09475,0.10471 -0.266241,0.20386 -0.381071,0.22034 -0.157202,0.0225 -0.223412,0.1204 -0.268001,0.39638 -0.03257,0.20153 -0.03713,0.38852 -0.01017,0.41553 0.02701,0.027 0.405587,0.0233 0.841286,-0.009 0.435699,-0.0315 1.497227,-0.0864 2.35895,-0.12179 z M 3.9265991,281.33694 c 0.3364283,-0.0677 0.3388961,-0.1588 0.011275,-0.4165 -0.2494148,-0.19619 -0.8630449,-0.28021 -0.9458706,-0.12952 -0.022203,0.0404 -3.039e-4,0.22132 0.048668,0.40206 0.079992,0.29525 0.1158211,0.32199 0.3528356,0.26336 0.1450916,-0.0359 0.3849826,-0.0897 0.533092,-0.1194 z m 0.2937695,-1.076 c -0.067323,-0.0271 -0.1774856,-0.0271 -0.2448078,0 -0.067323,0.0271 -0.012241,0.0493 0.1224038,0.0493 0.1346442,0 0.189726,-0.0222 0.122404,-0.0493 z m 13.2930664,-0.38112 c 0,-0.14524 -0.0187,-0.14521 -0.709943,0.001 -0.367023,0.0776 -0.339514,0.22933 0.04897,0.26996 0.383993,0.0402 0.660981,-0.0734 0.660981,-0.271 z M 2.4146298,278.97934 c -0.03975,-0.2064 -0.2135392,-0.19338 -0.2578272,0.0193 -0.018471,0.0888 0.035508,0.15206 0.1295842,0.15206 0.1008565,0 0.1488851,-0.0642 0.128243,-0.17137 z m 3.3480284,-0.036 c 0,-0.0539 -0.044065,-0.0707 -0.097923,-0.0374 -0.053857,0.0333 -0.097924,0.10458 -0.097924,0.15843 0,0.0539 0.044065,0.0707 0.097924,0.0374 0.053858,-0.0333 0.097923,-0.10459 0.097923,-0.15845 z m -0.9262432,-1.3659 c 0.1053915,-0.17054 -0.014641,-0.20665 -0.1489473,-0.0448 -0.077236,0.093 -0.084665,0.14926 -0.019734,0.14926 0.057273,0 0.1331802,-0.047 0.1686813,-0.10446 z m 20.49455,-1.36442 c -0.01795,-0.0539 -0.07671,-0.0979 -0.130563,-0.0979 -0.05386,0 -0.112608,0.0441 -0.130564,0.0979 -0.01795,0.0539 0.0408,0.0979 0.130564,0.0979 0.08976,0 0.148517,-0.0441 0.130563,-0.0979 z m -15.035726,-0.9903 c -0.165274,-0.16526 -0.361672,-0.008 -0.213284,0.17081 0.08195,0.0987 0.149371,0.11112 0.220187,0.0403 0.07081,-0.0708 0.0687,-0.13545 -0.0069,-0.21106 z m 10.840182,6.55978 c -0.135285,-0.0476 -0.29714,-0.16851 -0.359674,-0.26864 -0.104322,-0.16704 -0.08152,-0.18024 0.276491,-0.16004 0.47957,0.027 0.677636,0.18691 0.471849,0.3808 -0.100731,0.0949 -0.21502,0.10898 -0.388666,0.0478 z m -1.908331,-0.47749 c -0.03328,-0.0539 -0.01385,-0.0979 0.04318,-0.0979 0.05704,0 0.103707,0.0441 0.103707,0.0979 0,0.0539 -0.01944,0.0979 -0.04318,0.0979 -0.02375,0 -0.07041,-0.0441 -0.103706,-0.0979 z M 7.3664374,279.6648 c -0.030123,-0.0943 -0.101586,-0.26921 -0.158808,-0.3888 -0.1116151,-0.23325 6.291e-4,-0.81189 0.1634661,-0.84262 0.1532856,-0.029 0.4762509,0.88499 0.4083485,1.15554 -0.071041,0.28305 -0.3315021,0.3309 -0.4130066,0.0758 z m 3.2923786,-0.20877 c 0,-0.0539 0.04407,-0.12518 0.09792,-0.15845 0.05386,-0.0333 0.09792,-0.0164 0.09792,0.0374 0,0.0539 -0.04407,0.12517 -0.09792,0.15845 -0.05386,0.0333 -0.09792,0.0164 -0.09792,-0.0374 z m -3.4273105,-1.4804 c 0,-0.0539 0.044065,-0.0979 0.097922,-0.0979 0.053858,0 0.097924,0.0441 0.097924,0.0979 0,0.0539 -0.044065,0.0979 -0.097924,0.0979 -0.053857,0 -0.097922,-0.0441 -0.097922,-0.0979 z m -0.5385776,-0.83518 c -0.2154308,-0.0776 -0.4832078,-0.14177 -0.5950601,-0.14258 -0.1695502,-10e-4 -0.1962746,-0.0498 -0.1607133,-0.2921 0.023461,-0.15984 0.1039589,-0.3415 0.1788865,-0.40369 0.08274,-0.0687 0.1362328,-0.30312 0.1362328,-0.59711 0,-0.76545 0.093878,-0.86289 0.8313551,-0.86289 h 0.6286177 l 0.065153,0.34731 c 0.083386,0.44448 0.031996,0.48676 -0.3509408,0.28873 -0.3013894,-0.15585 -0.3214723,-0.15369 -0.5476772,0.0588 -0.3000415,0.28188 -0.2948265,0.64379 0.014682,1.01881 l 0.2424528,0.29377 0.068166,-0.24481 c 0.061742,-0.22173 0.07444,-0.2079 0.1347432,0.14689 0.043141,0.2538 0.027354,0.41701 -0.044853,0.46363 -0.142153,0.0918 -0.13696,0.0924 -0.6010447,-0.0748 z m 6.3248371,-0.86788 c -0.06604,-0.0796 -0.106054,-0.29078 -0.08892,-0.46934 0.02782,-0.28978 0.06667,-0.32804 0.361864,-0.35626 0.40735,-0.0389 0.62586,0.13605 0.388756,0.31133 -0.08902,0.0658 -0.177149,0.22764 -0.195846,0.35962 -0.03959,0.2794 -0.292615,0.36339 -0.465858,0.15465 z m -0.675979,-0.37027 c 0.04433,-0.44891 0.275492,-0.48263 0.275492,-0.0402 0,0.25294 -0.04274,0.35088 -0.153089,0.35088 -0.113123,0 -0.145077,-0.0811 -0.122401,-0.3107 z m -1.193355,-0.27106 c 0,-0.10458 -0.04479,-0.21773 -0.09953,-0.25157 -0.05474,-0.0338 -0.07284,-0.10471 -0.04024,-0.15741 0.09582,-0.15504 0.33561,0.10659 0.33561,0.36623 0,0.12805 -0.04407,0.23283 -0.09792,0.23283 -0.05386,0 -0.09792,-0.0855 -0.09792,-0.19008 z m -3.228628,-0.78533 c -0.079226,-0.0501 -0.1141763,-0.12091 -0.077666,-0.15748 0.089608,-0.0896 0.3685992,0.0244 0.3685992,0.15059 0,0.12442 -0.1013788,0.12677 -0.2909338,0.006 z"
       id="path4499"
       inkscape:connector-curvature="0" />
  </g>
</svg>
